<svg id="Layer_2" data-name="Layer 2" xmlns="http://www.w3.org/2000/svg" xmlns:xlink="http://www.w3.org/1999/xlink" viewBox="0 0 400 300" width="406" height="306" class="illustration styles_illustrationTablet__1DWOa"><defs><linearGradient id="linear-gradient" x1="303.84" y1="214.93" x2="342.25" y2="171.95" gradientUnits="userSpaceOnUse"><stop offset="0" stop-color="#dd6f31"></stop><stop offset="1" stop-color="#603813"></stop></linearGradient><linearGradient id="linear-gradient-2" x1="110.14" y1="232.97" x2="119.97" y2="218.49" xlink:href="#linear-gradient"></linearGradient></defs><title>PP</title><path d="M194.06,289.07,14.34,182.85c-5.72-3.21-10.63-8.49-5.05-11.94L189.66,67c2.71-1.68,6.82-2.78,9.57-1.18L387.88,175.27c5.72,3.32,6.75,12.6,1,15.93L217.75,288.9A23.9,23.9,0,0,1,194.06,289.07Z" fill="#dd6f31"></path><path d="M325.4,153.51l0-7-3.57,1S324.18,153.42,325.4,153.51Z" fill="#e75a59"></path><polygon points="214.8 117.79 94.45 195.08 94.45 210.09 146.23 239.65 270 166.08 270 151.19 214.8 117.79" fill="#68e1fd"></polygon><polygon points="270 151.32 214.8 117.92 94.45 195.21 146.34 224.46 270 151.32" opacity="0.1"></polygon><polyline points="263.1 147.32 226.39 125.24 115.98 191.21 151.31 212.74" fill="#603813"></polyline><polyline points="206.64 130.84 207.06 132.82 211.16 132.46 213.65 128.66 213.29 126.83 212.23 125.94 209.02 125.23" fill="#bfc7ca"></polyline><path d="M203,147.2a7.37,7.37,0,0,0,3.61.72c1.64-.24,5.1-2.37,5.89-4.25s2.79-6.5,3.1-7.35,3.65-4,4-5.48.09-2.43-1.89-3.27" fill="#ec4d3f"></path><path d="M183.15,124s21.31,6.71,23.5,6.85,3.21-5,3.21-5-7.67-6.21-13.09-7.92-8.37-2.74-8.37-2.74" fill="#f1a681"></path><path d="M206.78,132.2s2,1.07,3.62,0,1.07-6.06,1.83-6.26,4.53,1,5.5,1.63a2.2,2.2,0,0,1,1,2.19c-.05.61-4,4.69-4.28,6.06s-2.85,8.15-4.89,9.63-6.26,2.8-7.44,1.12a4.25,4.25,0,0,1,.31-5.36C203.78,139.69,206.38,135,206.78,132.2Z" fill="#3b2b52"></path><path d="M168.34,167.6s.26-4.12.83-4.34a45.79,45.79,0,0,1,7.3,0c.35.17.17,2.88.17,2.88s-2.56,3-4.13,2.93A13,13,0,0,1,168.34,167.6Z" fill="#bfc7ca"></path><path d="M168.67,92.17s2.23,22.89,9.15,25.59S184.71,96,184.71,96l-8-7.06" fill="#2d1d41"></path><path d="M179.52,134.63c.58-2,11.81-18.37,11.81-18.37l-18.55,1.12s-2.88,12.88-3,18.72c-.13,5.14,0,23.74,0,28.09h0c1.94.35,4.63.91,6.42-.16,1.75-4,4.08-15.45,4.08-18.45C180.25,142.22,178.94,136.67,179.52,134.63Z" fill="#f1a681"></path><path d="M158.89,181l0,4a4.08,4.08,0,0,0,3.41,1.72c2.36,0,6.37-.86,7.43-2.06s3.16-5.34,4.24-6.23,3.19-2.9,3.25-3.3-.32-3.39-.32-3.39" fill="#ec4d3f"></path><path d="M168.34,167.6s-1.59,4.38-3.33,5.9-6.73,6.12-6.12,8.24,1.74,3.33,4.54,2.72,5.52-1.06,7.33-4.69,5.14-5.52,5.82-6.65,0-7.56,0-7.56-2.42,2.19-3.86,2.27A40.39,40.39,0,0,1,168.34,167.6Z" fill="#3b2b52"></path><path d="M180.2,93.9s-8.4,23.44-7.47,24.89,10.89,5.29,15.14,3.73,9.3-16.49,8.85-19.71-2.32-10.89-2.32-10.89Z" fill="#3b2b52"></path><path d="M176.27,46.21a50.8,50.8,0,0,0-6.47.73c-2.89.58-4.93-.64-7.6,3.36s-9.83,19.76-7.88,23.13S161.17,81,161.17,81s1.84,4.81,4.2,6,5.81-2.76,5.87-4-2-2.87-2-2.87,1.33.61,1.13-.41-4.53-3-4.53-3l-4.4-8.19,6.29-9.17,15.63,6.65s7.61,7.48,10.24,6.51,3.11-2.38,3.11-2.38l1.5-3.14s6.65,7.78,6.45,9.52-4.2,15.76-5.83,16.58-3.58,1.23-4.81,2.46-3.58,2.35-2.66,3.89,1.43,3.28,2.56,3.48,3.38,1.74,4.5.61,4.09-7.47,4.09-7.47,9.11-12.49,9.72-18.22-4.2-18.32-9.72-22a53.11,53.11,0,0,0-13.91-6.51C185,48.38,181.3,44,181.3,44" fill="#f1a681"></path><path d="M196.73,69.78c-3.18,2.65-5.56.13-6.76-4.5s3.16-14.37,3.16-14.37-3.56-1.26-4.52-1.49-5.93,10.29-9.27,11.75-5.26-1.59-6.87-4.24c-1.24-2.05-.56-7.87-.19-10.4l-2.49.42c-1,2.3-3.82,9.41-3.93,11.84-.13,2.91,2.78,12.45,3.58,15.1s-.13,16.29-.77,18.28,8.72,6.36,14.68,5.56a44.69,44.69,0,0,0,12.05-3.84s-1.59-7.55-2.25-9.8S196.73,69.78,196.73,69.78Z" fill="#68e1fd"></path><path d="M173,47.83s1.17,5.44,3.68,5.44,7.11-2.16,8.51-5.68l-2.06-1.69" fill="#d38967"></path><path d="M172.5,38.69s-4.25.52-4.25-2.69,3.67-5.17,3.67-5.17a4.37,4.37,0,0,1,3.38-4,5.48,5.48,0,0,1,5.38,1.73s1.14-1.66,4.25-1.24S188,31.54,187.63,32a3.46,3.46,0,0,1,2.28,2.38,6,6,0,0,1-1,3.73,5.51,5.51,0,0,1-.21,3.42c-.73,1.76-3.73,4-3.73,4" fill="#563218"></path><path d="M173.46,47c2,5.61,7.57,3,10.89-.27a4.68,4.68,0,0,0,.59-1.17s2.69-2.69,1.45-4-2.18.52-2.18.52-2.28-.93-2.28-2.38.41-2.38-2-2.59c-2.12-.18-6.62-3.15-8.39-1C172,39.67,172.24,43.54,173.46,47Z" fill="#f1a681"></path><path d="M121.93,125.71,151,110.92s5-.76,6.12,2.68l-20.27,11.47-2,6.76" fill="#f2f2f2"></path><path d="M169.61,225.75l22.25-70.87,18.41-10.44s.9-3-4.51-3.3L181,154.8l-64.74-34.7s-4.21-1.8-6.76,2.85l18.78,10.82-17,50.52,9-5.76,14.22-41.46,46,23.73,4.06-2.25s-22.28,71.16-22.28,71.61S166.24,227.92,169.61,225.75Z" fill="#f2f2f2"></path><path d="M185.63,26.41a5.78,5.78,0,0,0-5.82.3,6.82,6.82,0,0,0-4.9-.56,5.9,5.9,0,0,0-4.4,4.19h0a4.64,4.64,0,0,0-.66,8.22,5.84,5.84,0,0,0,3.24.73,4.14,4.14,0,0,0,3.86-2.94l.27-.23a3.41,3.41,0,0,0,1.24.19,4.36,4.36,0,0,0,1.29-.28,4.41,4.41,0,0,0,1.55-.05,3.53,3.53,0,0,0,3.14.48,6,6,0,0,0,3.84-4.28A5.21,5.21,0,0,0,185.63,26.41Z" fill="#563218"></path><polygon points="82.95 79.57 82.95 25.2 149.01 64.1 149.01 119.16 82.95 79.57" fill="#68e1fd" opacity="0.42"></polygon><polygon points="302.97 93.3 302.97 47.34 358.81 80.22 358.81 126.76 302.97 93.3" fill="#68e1fd" opacity="0.42"></polygon><polygon points="240.15 57.67 240.15 11.7 295.99 44.59 295.99 91.13 240.15 57.67" fill="#68e1fd" opacity="0.42"></polygon><polyline points="240.15 37.94 250.45 44.04 258.44 35.99 260.5 59.85 268.07 40.99 271.45 59.85 277.01 52.32 281.04 59.85 295.99 68.98" fill="none" stroke="#f15a24" stroke-miterlimit="10"></polyline><polygon points="313.71 75.89 313.71 67.38 324.05 73.47 324.05 82.09 313.71 75.89" fill="#0071bc" opacity="0.46"></polygon><polygon points="326.41 96.56 326.41 88.04 336.76 94.13 336.76 102.75 326.41 96.56" fill="#0071bc" opacity="0.46"></polygon><polygon points="342.56 89.2 342.56 80.69 352.91 86.78 352.91 95.4 342.56 89.2" fill="#0071bc" opacity="0.46"></polygon><polygon points="110.81 60.72 110.81 52.2 121.15 58.29 121.15 66.91 110.81 60.72" fill="#0071bc" opacity="0.46"></polygon><polygon points="121.94 80.69 121.94 72.18 132.28 78.27 132.28 86.89 121.94 80.69" fill="#0071bc" opacity="0.46"></polygon><polygon points="99.15 75.43 99.15 66.91 109.49 73 109.49 81.63 99.15 75.43" fill="#0071bc" opacity="0.46"></polygon><path d="M184.84,41a.44.44,0,0,1-.05.06c-1.67,1.33-5.25.76-7-.08a.41.41,0,0,1-.25-.32l-7.31-.33s-.07,3.82.87,4.55,5.49,2.7,8.44,2.05,8.92-5.62,9.21-6.6-3.56.68-3.56.68Z" fill="#39285b"></path><path d="M171.58,38.71a6.79,6.79,0,0,0-1.39,1.6c-.29.65,7,3.1,9,3s6-2.27,6-2.27-5.57.61-6.58,0A66.34,66.34,0,0,0,171.58,38.71Z" fill="#5f4587"></path><path d="M182.5,39.08a1.47,1.47,0,0,1-.13-.24,2.24,2.24,0,0,1,0-1.63,1.89,1.89,0,0,0,.07-1.43,1.71,1.71,0,0,0-.77-1.7,1.63,1.63,0,0,0-2.18.57,2.1,2.1,0,0,1-1.32.9c-.27,0-.78,0-.7-.41.44-2-2.62-2.85-3.07-.85a3.59,3.59,0,0,0,2.75,4.35,4.11,4.11,0,0,0,1.93-.06,4.63,4.63,0,0,0,1.41,3.14,2.83,2.83,0,0,0,4.87-1.77C185.47,38.25,183.3,38,182.5,39.08Z" fill="#563218"></path><path d="M338.37,181.1l-3.13,4.6-51.82,27.24,22.27,12.48,40.41-32.94C343.11,187,343,185.37,338.37,181.1Z" fill="url(#linear-gradient)"></path><path d="M327.94,174.55l3.23,15.06a3.39,3.39,0,0,0,1.82,2.33c1.88.92,5.75,1.88,13.11.54a3.41,3.41,0,0,0,2.72-2.62l3.31-15.31" fill="#68e1fd"></path><ellipse cx="340.04" cy="174.55" rx="12.09" ry="4.95" fill="#124577"></ellipse><path d="M333,163.4a3.88,3.88,0,0,1-1.4-1.3l-6.8-10.53c-3.15-4.88-4.3-39.87,4-40.31,6.56-.35,13.31,15,15.66,19.47,2.2,4.2,4.61,8.67,5.92,13.25,2,6.9-2.51,12.94-6.76,18.42C341.53,165,335.74,164.92,333,163.4Z" fill="#66c652"></path><path d="M337.06,170.31q1.37,1,2.69,2a128.51,128.51,0,0,0-6.39-46,1.4,1.4,0,0,0-2.67.84A125.81,125.81,0,0,1,337.06,170.31Z" fill="#124577"></path><path d="M346.67,160.58a2.48,2.48,0,0,1-.16-1.21l.93-7.95c.43-3.68,14.09-21.36,18.33-18.22,3.37,2.5.46,12.79-.21,15.95a46.5,46.5,0,0,1-2.47,8.92c-1.83,4.2-6.5,5.35-10.81,6.31C350.21,164.85,347.4,162.44,346.67,160.58Z" fill="#49b230"></path><path d="M359.24,142.88a153.55,153.55,0,0,0-14.5,32.65,17.79,17.79,0,0,1,2,1.28A151.4,151.4,0,0,1,361.25,144C362,142.7,360,141.62,359.24,142.88Z" fill="#124577"></path><polyline points="94.45 210.09 78 220.48 129.54 250.94 146.23 239.65" fill="url(#linear-gradient-2)"></polyline></svg>