<svg xmlns="http://www.w3.org/2000/svg" viewBox="0 0 400 300" width="406" height="306" class="illustration styles_illustrationTablet__1DWOa"><g id="_395_dream__outline" data-name="#395_dream__outline"><rect x="159.45" y="148.43" width="65.65" height="27.22" rx="13.61" fill="#68e1fd"></rect><path d="M211.49,176.65H173.06a14.61,14.61,0,0,1,0-29.22h38.43a14.61,14.61,0,0,1,0,29.22Zm-38.43-27.22a12.61,12.61,0,0,0,0,25.22h38.43a12.61,12.61,0,0,0,0-25.22Z" fill="#093f68"></path><path d="M278.59,183.87H114.41V127.09a6.9,6.9,0,0,0-6.9-6.9h-4.09a6.9,6.9,0,0,0-6.9,6.9V229.42a5.92,5.92,0,0,0,5.91,5.92h6.06a5.92,5.92,0,0,0,5.92-5.92v-27.5H285.59v27.5a5.92,5.92,0,0,0,5.92,5.92h6.06a5.92,5.92,0,0,0,5.91-5.92V191.28a7.4,7.4,0,0,0-7.4-7.41Z" fill="#68e1fd"></path><path d="M297.57,236.34h-6.06a6.92,6.92,0,0,1-6.92-6.92v-26.5H115.41v26.5a6.92,6.92,0,0,1-6.92,6.92h-6.06a6.92,6.92,0,0,1-6.91-6.92V127.09a7.9,7.9,0,0,1,7.9-7.9h4.09a7.91,7.91,0,0,1,7.9,7.9v55.78H296.08a8.41,8.41,0,0,1,8.4,8.41v38.14A6.92,6.92,0,0,1,297.57,236.34ZM114.41,200.92H285.59a1,1,0,0,1,1,1v27.5a4.92,4.92,0,0,0,4.92,4.92h6.06a4.91,4.91,0,0,0,4.91-4.92V191.28a6.41,6.41,0,0,0-6.4-6.41H114.41a1,1,0,0,1-1-1V127.09a5.91,5.91,0,0,0-5.9-5.9h-4.09a5.9,5.9,0,0,0-5.9,5.9V229.42a4.91,4.91,0,0,0,4.91,4.92h6.06a4.92,4.92,0,0,0,4.92-4.92v-27.5A1,1,0,0,1,114.41,200.92Z" fill="#093f68"></path><rect x="114.41" y="175.87" width="183.14" height="8" fill="#fff"></rect><path d="M297.55,184.87H114.41a1,1,0,0,1-1-1v-8a1,1,0,0,1,1-1H297.55a1,1,0,0,1,1,1v8A1,1,0,0,1,297.55,184.87Zm-182.14-2H296.55v-6H115.41Z" fill="#093f68"></path><path d="M180.93,146.4h91.43a25.2,25.2,0,0,1,25.2,25.2v37.34a0,0,0,0,1,0,0H180.93a0,0,0,0,1,0,0V146.4A0,0,0,0,1,180.93,146.4Z" fill="#f56132"></path><path d="M297.55,209.93H180.93a1,1,0,0,1-1-1V146.4a1,1,0,0,1,1-1h91.42a26.23,26.23,0,0,1,26.2,26.2v37.33A1,1,0,0,1,297.55,209.93Zm-115.62-2H296.55V171.6a24.22,24.22,0,0,0-24.2-24.2H181.93Z" fill="#093f68"></path><path d="M140.47,122.36c-.37-1.17.08-1.92-.88-3a6,6,0,0,0-1.38-1.19,4.22,4.22,0,0,0-3-.51c-2.24.44-3.61,2.72-3.67,4.92a3.28,3.28,0,0,0-2.36-3,4.94,4.94,0,0,0-4,.65,6.82,6.82,0,0,0-1.87,9.44,6,6,0,0,0-2.54,11.28,8.91,8.91,0,0,0-4.71,8.19c.3,3.32,3.38,6.32,6.7,6-.56.06.23,3.07.4,3.36a6.3,6.3,0,0,0,2.12,1.92,8.12,8.12,0,0,0,4.14,1.07,28.85,28.85,0,0,1,3.78.52,130.68,130.68,0,0,0,13.09,1.32,50,50,0,0,0,6.59.16c1.3-.12,1.4-.27,2-1.4,2.8-5.25,4.18-12.13,1.68-17.73-2.43-5.41-6.3-10.23-10-14.77q-2.25-2.72-4.61-5.33a8.44,8.44,0,0,1-1.34-1.47A3.2,3.2,0,0,1,140.47,122.36Z" fill="#725858"></path><path d="M151.21,164.52c-1.13,0-2.27-.07-3.38-.14l-1.52-.09c-4.4-.22-8.83-.67-13.19-1.33l-1.2-.2a14.53,14.53,0,0,0-2.45-.31,9.17,9.17,0,0,1-4.64-1.21,7.29,7.29,0,0,1-2.46-2.27,10.71,10.71,0,0,1-.71-2.88,7.07,7.07,0,0,1-3.69-1.62,7.86,7.86,0,0,1-2.83-5.28,9.66,9.66,0,0,1,4-8.33,7,7,0,0,1,2.74-12,7.72,7.72,0,0,1-.44-4.58,7.51,7.51,0,0,1,3.34-5,5.84,5.84,0,0,1,4.78-.75,4.35,4.35,0,0,1,1.8,1.08,5.35,5.35,0,0,1,3.73-3,5.25,5.25,0,0,1,3.68.63,7.06,7.06,0,0,1,1.61,1.38,3.54,3.54,0,0,1,.95,2.45,4.45,4.45,0,0,0,.14.9c0,.09.07.18.11.27a3.82,3.82,0,0,0,.67.72c.19.18.37.35.51.5,1.55,1.72,3.11,3.53,4.64,5.38,4,4.83,7.78,9.61,10.19,15s1.71,12.2-1.7,18.61a2.8,2.8,0,0,1-2.8,1.93C152.43,164.5,151.83,164.52,151.21,164.52Zm-27.58-8.81a10.59,10.59,0,0,0,.5,2.31,5.22,5.22,0,0,0,1.74,1.5,7,7,0,0,0,3.64.93,16.65,16.65,0,0,1,2.77.34l1.14.2c4.29.64,8.66,1.08,13,1.3l1.55.09a31,31,0,0,0,4.9.07c.78-.07.78-.07,1.21-.87,3.13-5.87,3.74-12.17,1.64-16.85-2.3-5.15-6-9.82-9.9-14.54-1.51-1.83-3.05-3.61-4.58-5.3-.11-.12-.25-.25-.4-.39a4.8,4.8,0,0,1-1.1-1.31,2.66,2.66,0,0,1-.21-.53h0a5.81,5.81,0,0,1-.23-1.37,1.69,1.69,0,0,0-.44-1.25,5.2,5.2,0,0,0-1.15-1,3.28,3.28,0,0,0-2.27-.39c-1.79.35-2.81,2.31-2.86,4h0a1,1,0,0,1-1,1h0a1,1,0,0,1-1-1h0a2.29,2.29,0,0,0-1.65-2.06,4,4,0,0,0-3.14.54,5.82,5.82,0,0,0-1.59,8,1,1,0,0,1-.74,1.59,5,5,0,0,0-2.12,9.41,1,1,0,0,1,.51.87,1,1,0,0,1-.51.87,7.93,7.93,0,0,0-4.2,7.24,5.92,5.92,0,0,0,2.12,3.91,4.83,4.83,0,0,0,3.49,1.18h0a1,1,0,0,1,1.09.9A1.07,1.07,0,0,1,123.63,155.71Zm-.7.39Z" fill="#093f68"></path><path d="M168.5,152.82c-1.76,4.34-5.74,7.33-9.95,9.09-2.2.91-5.12,2.68-7.25.85a7.3,7.3,0,0,1-1.9-3,26.07,26.07,0,0,0-3.93-7.54c-1.37-1.59-3.75-3.54-6-3.35a20.45,20.45,0,0,1-3.3.37l1.82-2.9a3.83,3.83,0,0,0,.83-2.43,3.4,3.4,0,0,0-.76-1.53,13,13,0,0,0-2.6-2.54,12.27,12.27,0,0,0,2.85-1.86,4.68,4.68,0,0,0,1.53-3c.1-1.62-.91-3.09-1.95-4.34,1.26-.69,2.93-5.82,3.21-7.23.15-.74,12.59,4.44,15.92,5.79l.64.25C167.31,133.35,172.46,143.05,168.5,152.82Z" fill="#ffc9b0"></path><path d="M153.49,164.56a4.21,4.21,0,0,1-2.85-1.05,8.38,8.38,0,0,1-2.18-3.43,25,25,0,0,0-3.75-7.25c-1.27-1.48-3.36-3.15-5.12-3-.38,0-.76.1-1.15.17a10,10,0,0,1-2.29.2,1,1,0,0,1-.78-1.53l1.81-2.9a3.11,3.11,0,0,0,.69-1.77,2.57,2.57,0,0,0-.56-1.05,12.42,12.42,0,0,0-2.4-2.35,1,1,0,0,1,.13-1.69,11.12,11.12,0,0,0,2.62-1.7,3.6,3.6,0,0,0,1.22-2.3c.08-1.28-.83-2.55-1.72-3.63a1,1,0,0,1-.21-.82,1,1,0,0,1,.5-.69c.74-.48,2.34-4.68,2.71-6.55a1.18,1.18,0,0,1,.55-.74c.64-.34,1.11-.59,15.44,5.27l1.92.78a20.62,20.62,0,0,1,11,10,18,18,0,0,1,.33,14.7c-1.65,4.08-5.38,7.5-10.49,9.63l-.92.41A11.58,11.58,0,0,1,153.49,164.56Zm-13.67-16.74c3,0,5.64,2.82,6.41,3.71a26.77,26.77,0,0,1,4.1,7.83A6.58,6.58,0,0,0,152,162c1.26,1.08,3,.44,5.24-.59l1-.42c4.62-1.93,8-5,9.41-8.55a16,16,0,0,0-.28-13.07,18.65,18.65,0,0,0-10-9l-1.92-.78c-2.86-1.17-11-4.5-13.5-5.15a22.48,22.48,0,0,1-2.63,6.27,6.57,6.57,0,0,1,1.6,4.32,5.54,5.54,0,0,1-1.83,3.62,10.3,10.3,0,0,1-1.76,1.31,14.2,14.2,0,0,1,1.62,1.76,4.24,4.24,0,0,1,.95,2,4.78,4.78,0,0,1-1,3.09l-.75,1.19c.43-.07.86-.14,1.29-.18Zm28.68,5h0Zm-26.38-29.21a.32.32,0,0,1,0,.09A.29.29,0,0,0,142.12,123.61Z" fill="#093f68"></path><path d="M152.73,129.12s8.9-1.19,8.73,0A20.38,20.38,0,0,1,160,133" fill="#ffc9b0"></path><path d="M160,134a.87.87,0,0,1-.44-.11,1,1,0,0,1-.45-1.34,25.28,25.28,0,0,0,1.24-2.93,43.67,43.67,0,0,0-7.45.47,1,1,0,0,1-.27-2c8.3-1.11,9.2-.19,9.5.11a1.25,1.25,0,0,1,.36,1,19.55,19.55,0,0,1-1.59,4.17A1,1,0,0,1,160,134Z" fill="#093f68"></path><path d="M143,148.43s-4.67,3.06-1.81,6.89,10.22,4.24,11.19-3.56" fill="#ffc9b0"></path><path d="M146.48,159a7.74,7.74,0,0,1-6.11-3.06,5,5,0,0,1-1.06-3.95,7.53,7.53,0,0,1,3.12-4.37,1,1,0,0,1,1.38.28,1,1,0,0,1-.28,1.39,5.57,5.57,0,0,0-2.25,3.06,3,3,0,0,0,.69,2.39,5.66,5.66,0,0,0,5.74,2.1c2-.53,3.31-2.37,3.66-5.18a1,1,0,1,1,2,.24c-.45,3.63-2.32,6.13-5.13,6.88A6.8,6.8,0,0,1,146.48,159Z" fill="#093f68"></path><path d="M144,136.75a1,1,0,0,1-.27-2c3.33-.95,2.87-3.56,2.81-3.85a1,1,0,0,1,.75-1.19,1,1,0,0,1,1.19.74c.39,1.63,0,5-4.21,6.22A.84.84,0,0,1,144,136.75Z" fill="#093f68"></path><path d="M163.08,143.67a1,1,0,0,1-.14-2,3.53,3.53,0,0,0,3.14-3.26,1,1,0,0,1,1.06-.94,1,1,0,0,1,.94,1.06,5.55,5.55,0,0,1-4.86,5.12Z" fill="#093f68"></path><rect x="117.93" y="160.93" width="43.53" height="14.94" rx="7.01" fill="#fff"></rect><path d="M154.45,176.87H124.94a8,8,0,0,1-8-8V168a8,8,0,0,1,8-8h29.51a8,8,0,0,1,8,8v.91A8,8,0,0,1,154.45,176.87Zm-29.51-14.94a6,6,0,0,0-6,6v.91a6,6,0,0,0,6,6h29.51a6,6,0,0,0,6-6V168a6,6,0,0,0-6-6Z" fill="#093f68"></path><path d="M225.17,143.28c-1.52-.52-5.39,4.22-5.39,4.22s1-3.33-.69-3.71-5,9.06-5,9.06-15,10.41-18.74,9.9-17.33-4-23-5.34-9.62,7.64-6.87,11.2,25,7.08,31,7.26c5.24.17,17.35-9.74,24.51-18,0,0,6.49-7.52,6.62-9.51S226.69,143.79,225.17,143.28Z" fill="#ffc9b0"></path><path d="M196.62,176.88h-.15c-5.31-.16-28.57-3.47-31.79-7.65-1.9-2.46-1.12-6.52.64-9.24s4.55-4.18,7.26-3.55c1.66.39,4,1,6.59,1.61,6.09,1.49,13.67,3.36,16.27,3.71,2.44.34,12.06-5.59,17.77-9.54,3.58-10,5.47-9.53,6.1-9.39a2.06,2.06,0,0,1,1.37,1,2.7,2.7,0,0,1,.31.85c1.5-1.49,3.23-2.77,4.5-2.34h0c2,.69,3.29,3.77,3.14,6.1-.14,2.08-5.54,8.67-6.89,10.07l0,0C215.05,166.27,202.65,176.88,196.62,176.88Zm-25.4-18.6c-2.17,0-3.64,1.88-4.22,2.78-1.55,2.41-1.87,5.46-.73,6.94,2.3,3,23.68,6.67,30.26,6.87,4.7.13,16.39-9.2,23.72-17.65,3-3.42,6.32-7.92,6.38-8.92.11-1.63-.78-3.69-1.74-4.06-.66.06-2.7,1.89-4.33,3.89a1,1,0,0,1-1.73-.92,4.56,4.56,0,0,0,.14-2.34c-.85.78-2.6,4.41-4,8.32a1,1,0,0,1-.37.48c-2.56,1.78-15.5,10.61-19.45,10.07-2.7-.37-10.34-2.25-16.47-3.76-2.58-.64-4.92-1.21-6.58-1.6A4.07,4.07,0,0,0,171.22,158.28Zm53.63-14.06Z" fill="#093f68"></path><path d="M269.59,84.42a19.05,19.05,0,0,0-19-19,18.84,18.84,0,0,0-8.12,1.82,19.05,19.05,0,0,0-33.75,3.91,14.05,14.05,0,0,0-15.23,22.36c0,.46-.06.93-.06,1.4a19.05,19.05,0,0,0,19.05,19,19.38,19.38,0,0,0,4.14-.45,14.37,14.37,0,0,0,24.08.4c.44,0,.89,0,1.34,0a19,19,0,0,0,7.25-1.43,14.63,14.63,0,0,0,3.27.39,14.34,14.34,0,0,0,13.92-17.94A18.91,18.91,0,0,0,269.59,84.42Z" fill="#fff"></path><path d="M228.73,121.19a15.28,15.28,0,0,1-12.62-6.62,19.84,19.84,0,0,1-3.68.34,20.07,20.07,0,0,1-20.05-20c0-.36,0-.72,0-1.08a15,15,0,0,1,15.66-23.9,20.05,20.05,0,0,1,34.69-3.94,19.83,19.83,0,0,1,7.77-1.57,20,20,0,0,1,17,30.74,15.17,15.17,0,0,1,.39,3.37,15.41,15.41,0,0,1-15.38,15.39,15.18,15.18,0,0,1-3.18-.35,19.62,19.62,0,0,1-8.18,1.37A15.4,15.4,0,0,1,228.73,121.19Zm-12.16-8.73a1,1,0,0,1,.84.46,13.37,13.37,0,0,0,22.41.38,1,1,0,0,1,.9-.44,17.93,17.93,0,0,0,8.14-1.31,1.06,1.06,0,0,1,.61,0,14,14,0,0,0,3,.36,13.4,13.4,0,0,0,13.38-13.39,13.18,13.18,0,0,0-.43-3.3,1,1,0,0,1,.14-.8,18.05,18.05,0,0,0-22.75-26.29,1,1,0,0,1-1.26-.35,18.05,18.05,0,0,0-32,3.71,1,1,0,0,1-1.26.6,12.84,12.84,0,0,0-4.14-.69,13.05,13.05,0,0,0-10,21.45,1,1,0,0,1,.23.72c0,.44-.06.88-.06,1.33a18.05,18.05,0,0,0,22,17.62A.82.82,0,0,1,216.57,112.46Z" fill="#093f68"></path><path d="M180.06,98a5.58,5.58,0,0,0-3.59,1.3,4.76,4.76,0,1,0-5.92,6.89,3.1,3.1,0,0,0-.11.81,3.38,3.38,0,0,0,6.5,1.3,5.55,5.55,0,0,0,3.12,1,5.63,5.63,0,0,0,0-11.25Z" fill="#fff"></path><path d="M173.82,111.4a4.38,4.38,0,0,1-4.38-4.38,2.09,2.09,0,0,1,0-.25A5.76,5.76,0,1,1,176.68,98a6.63,6.63,0,1,1,.63,11.72A4.37,4.37,0,0,1,173.82,111.4Zm-1.39-13.33a3.76,3.76,0,0,0-1.49,7.22,1,1,0,0,1,.58,1.16,2.1,2.1,0,0,0-.08.57,2.38,2.38,0,0,0,4.57.92,1,1,0,0,1,.64-.58,1,1,0,0,1,.84.13,4.63,4.63,0,1,0-.38-7.4,1,1,0,0,1-.8.22,1,1,0,0,1-.69-.46A3.74,3.74,0,0,0,172.43,98.07Z" fill="#093f68"></path><path d="M156.3,113a3.8,3.8,0,0,1,.55-1.56,3.86,3.86,0,1,1,1.2,5.33h0s0,0,0,0A2.49,2.49,0,1,1,156.3,113Z" fill="#fff"></path><path d="M155.93,119a3.5,3.5,0,0,1-1.85-.54,3.49,3.49,0,0,1-1.09-4.81,3.49,3.49,0,0,1,2.51-1.6,4.85,4.85,0,0,1,9.35.43,4.85,4.85,0,0,1-3.67,5.81,4.85,4.85,0,0,1-2.87-.22,3.55,3.55,0,0,1-2.38.93Zm0-5a1.48,1.48,0,0,0-1.26.68,1.51,1.51,0,0,0,.46,2.06,1.48,1.48,0,0,0,1.12.19,1.53,1.53,0,0,0,.92-.63l0,0a1,1,0,0,1,1.13-.43.85.85,0,0,1,.3.15,2.9,2.9,0,0,0,2.11.34,2.86,2.86,0,0,0,1.79-1.26,2.86,2.86,0,0,0-.89-3.94,2.88,2.88,0,0,0-2.16-.38A2.82,2.82,0,0,0,157.7,112a2.69,2.69,0,0,0-.41,1.15,1,1,0,0,1-.39.67,1,1,0,0,1-.75.19Z" fill="#093f68"></path></g></svg>