<svg xmlns="http://www.w3.org/2000/svg" xmlns:xlink="http://www.w3.org/1999/xlink" viewBox="0 0 400 300" width="406" height="306" class="illustration styles_illustrationTablet__1DWOa"><defs><linearGradient id="linear-gradient" x1="205.54" y1="105.05" x2="194.47" y2="115.25" gradientTransform="matrix(-1, 0, 0, 1, 395.21, 0)" gradientUnits="userSpaceOnUse"><stop offset="0" stop-color="#d4a397"></stop><stop offset="1" stop-color="#fff"></stop></linearGradient><linearGradient id="linear-gradient-2" x1="84.23" y1="179.06" x2="75.65" y2="186.96" xlink:href="#linear-gradient"></linearGradient><linearGradient id="linear-gradient-3" x1="154.16" y1="132" x2="143.09" y2="142.19" xlink:href="#linear-gradient"></linearGradient><linearGradient id="linear-gradient-4" x1="247.93" y1="190.28" x2="267.53" y2="215.74" gradientTransform="matrix(1, 0, 0, 1, 0, 0)" xlink:href="#linear-gradient"></linearGradient><linearGradient id="linear-gradient-5" x1="175.07" y1="148.36" x2="197.01" y2="173.23" gradientTransform="matrix(1, 0, 0, 1, 0, 0)" xlink:href="#linear-gradient"></linearGradient><linearGradient id="linear-gradient-6" x1="124.26" y1="189.29" x2="150.85" y2="164.28" gradientTransform="matrix(-1, 0, 0, 1, 210.61, 0)" gradientUnits="userSpaceOnUse"><stop offset="0" stop-opacity="0"></stop><stop offset="0.99" stop-color="#552800"></stop></linearGradient></defs><title>PP</title><g style="isolation: isolate;"><g id="Layer_5" data-name="Layer 5"><path d="M194.29,279.72,14.75,173.61c-5.72-3.21-10.62-8.48-5-11.93L189.89,57.83c2.7-1.67,6.81-2.77,9.56-1.18L387.91,166c5.72,3.32,6.74,12.59,1,15.91L218,279.55A23.87,23.87,0,0,1,194.29,279.72Z" fill="#ffb769"></path><polygon points="367.17 186.28 245.84 256.49 55.42 146.33 175.43 75.58 367.17 186.28" fill="#af6137"></polygon><polygon points="175.91 63.05 55.42 133.35 55.42 146.33 175.43 75.58 175.91 63.05" fill="#964b2a"></polygon><polygon points="55.42 133.35 247.11 242.38 245.84 256.49 55.42 146.33 55.42 133.35" fill="#d67d56"></polygon><polygon points="335.52 181.72 246.29 233.36 86.04 140.65 172.5 87.61 335.52 181.72" fill="#ffdccc"></polygon><polygon points="175.43 75.58 175.91 63.05 370.12 175.28 367.17 186.28 175.43 75.58" fill="#964b2a"></polygon><polyline points="176.26 90.58 213.84 111.27 199.17 119.78 176.93 109.38" fill="url(#linear-gradient)" style="mix-blend-mode: multiply;"></polyline><polyline points="301.13 167.28 330.23 183.3 315.52 191.83 302.51 184.75" fill="url(#linear-gradient-2)" style="mix-blend-mode: multiply;"></polyline><path d="M276,158.84s-10.89-35.59-10.43-35.76l3.3-1.19,10.06,36.5Z" fill="#e29e14"></path><path d="M280.16,157s-9.52-26.91-9.32-27.33a18.51,18.51,0,0,1,3-2l9,28.75" fill="#e29e14"></path><path d="M277.42,159.85S266.53,124.26,267,124.1l3.3-1.19,10.06,36.5Z" fill="#fbc144"></path><path d="M282.79,157.6s-9.52-26.91-9.32-27.33a18.51,18.51,0,0,1,3-2l9,28.75" fill="#fbc144"></path><path d="M303.37,151.77s1.82-37.18,2.3-37.18h3.51l-2.91,37.75Z" fill="#e29e14"></path><path d="M307.88,151.47s.16-28.55.49-28.87a18.51,18.51,0,0,1,3.46-.88l-1.24,30.11" fill="#e29e14"></path><path d="M304.35,153.2s1.82-37.18,2.3-37.18h3.51l-2.91,37.75Z" fill="#fbc144"></path><path d="M310.16,152.9s.16-28.55.49-28.87a18.51,18.51,0,0,1,3.46-.88l-1.24,30.11" fill="#fbc144"></path><path d="M312.62,152.68c.54-2.95,6.92-35,6.92-35l4,.29-8.23,35.45Z" fill="#e29e14"></path><path d="M315,148.27s8.26-27.32,8.68-27.54a18.51,18.51,0,0,1,3.57.14l-9.75,28.52" fill="#e29e14"></path><path d="M311.56,151.27c.54-2.95,6.92-35,6.92-35l4,.29-8.23,35.45Z" fill="#fbc144"></path><path d="M316.76,150.29S325,123,325.44,122.75a18.51,18.51,0,0,1,3.57.14l-9.75,28.52" fill="#fbc144"></path><path d="M287.64,160c-.32-3-3.3-35.48-3.3-35.48l3.88-.85L290.39,160Z" fill="#e29e14"></path><path d="M297,157.48s1.82-37.18,2.3-37.18h3.51l-2.91,37.75Z" fill="#e29e14"></path><polyline points="312.62 157.68 313.34 124.62 317 123.05 315.28 157.68" fill="#e29e14"></polyline><path d="M280.45,159.27s-3.61-28.32-3.32-28.68a18.51,18.51,0,0,1,3.32-1.33l2.74,30" fill="#e29e14"></path><path d="M288.66,156.33s.16-28.55.49-28.87a18.51,18.51,0,0,1,3.46-.88l-1.24,30.11" fill="#e29e14"></path><path d="M301.52,157.17s.16-28.55.49-28.87a18.51,18.51,0,0,1,3.46-.88l-1.24,30.11" fill="#e29e14"></path><path d="M285.35,159.54c-.32-3-3.3-35.48-3.3-35.48l3.88-.85,2.18,36.33Z" fill="#fbc144"></path><path d="M298,158.91s1.82-37.18,2.3-37.18h3.51l-2.91,37.75Z" fill="#fbc144"></path><polyline points="309.73 154.79 310.46 121.73 314.12 120.16 312.4 154.79" fill="#fbc144"></polyline><path d="M281.9,156.85c-.39-.73-7.14-28.7-7.14-28.7l-2.45,2.18L279,156.85" fill="#fbc144"></path><path d="M282.73,160.71s-3.61-28.32-3.32-28.68a18.51,18.51,0,0,1,3.32-1.33l2.74,30" fill="#fbc144"></path><path d="M290.93,157.76s.16-28.55.49-28.87a18.51,18.51,0,0,1,3.46-.88l-1.24,30.11" fill="#fbc144"></path><path d="M303.8,158.6s.16-28.55.49-28.87a18.51,18.51,0,0,1,3.46-.88L306.51,159" fill="#fbc144"></path><path d="M292.61,155.79s1.82-37.18,2.3-37.18h3.51l-2.91,37.75Z" fill="#e29e14"></path><path d="M297.13,155.48s.16-28.55.49-28.87a18.51,18.51,0,0,1,3.46-.88l-1.24,30.11" fill="#e29e14"></path><path d="M293.59,157.22s1.82-37.18,2.3-37.18h3.51L296.5,157.8Z" fill="#fbc144"></path><path d="M299.4,156.92s.16-28.55.49-28.87a18.51,18.51,0,0,1,3.46-.88l-1.24,30.11" fill="#fbc144"></path><path d="M267.44,132.92a24.47,24.47,0,0,1,3,1.7s6.68,21,16.62,21.31,16.05-9.8,16.48-9.8,5.11,1.28,5.11,1.28l14.63-7-7.53,40.35-10.8,5.26s-25.86-10.66-27.28-11.79S267.44,132.92,267.44,132.92Z" fill="#68e1fd"></path><polygon points="308.64 147.41 304.94 186.05 315.74 180.79 323.27 140.45 308.64 147.41" opacity="0.33"></polygon><path d="M156.79,25.11s-1,.43-.57,2.16,1.37,1.65,2,1.52S158.41,25,156.79,25.11Z" fill="#968d7e"></path><path d="M206.29,59.79l-6.59,46.11a19,19,0,0,1-13.61,5.93c-8.56,0-12.52-4.83-12.73-6.81s-5.71-45.23-5.71-45.23Z" fill="#68e1fd"></path><path d="M197.37,59.81h8.93l-6.59,46.11a19.13,19.13,0,0,1-8.53,5.19C194.1,94.11,196.71,77.05,197.37,59.81Z" opacity="0.33"></path><polyline points="207.17 54.28 207.17 57.65 166.77 58.23 166.77 54.28" fill="#ebeae8"></polyline><ellipse cx="186.97" cy="57.65" rx="20.2" ry="13.41" fill="#ebeae8"></ellipse><ellipse cx="186.97" cy="54.28" rx="20.2" ry="13.41" fill="#fffff2"></ellipse><ellipse cx="186.97" cy="53.58" rx="15.71" ry="9.34" fill="#ebeae8"></ellipse><ellipse cx="186.97" cy="53.58" rx="12.47" ry="7.42" fill="#fffff2"></ellipse><path d="M183.42,54.05l2.52-1-2-1c-.3-.15-.1-.64.21-.49.81.41,1.62.83,2.42,1.25q1.54-.62,3.06-1.28a.27.27,0,0,1,.2.49c-.88.38-1.76.74-2.65,1.1q1.5.79,3,1.61c.3.16.09.65-.21.49q-1.7-.94-3.42-1.84-1.47.59-2.94,1.16A.27.27,0,0,1,183.42,54.05Z" fill="#606060"></path><path d="M156.79,25.1l19.11-3.82c5.2.2,6.73,5.41,6.73,5.41l5.51,25.47c.62.32-3.59,1.43-3.59,1.43S180.19,30.15,179,27.81a5.06,5.06,0,0,0-3.53-2.65s-12.52,2.54-17.24,3.62A3.92,3.92,0,0,0,156.79,25.1Z" fill="#ddd3c3"></path><polygon points="370.12 175.28 247.11 242.38 245.84 256.49 367.17 186.28 370.12 175.28" fill="#d67d56"></polygon><polyline points="227.65 117.53 265.23 138.21 250.55 146.72 228.32 136.32" fill="url(#linear-gradient-3)" style="mix-blend-mode: multiply;"></polyline><path d="M208.18,52s-1,.43-.57,2.16,1.37,1.65,2,1.52S209.79,51.94,208.18,52Z" fill="#968d7e"></path><path d="M257.68,86.73l-6.59,46.11a19,19,0,0,1-13.61,5.93c-8.56,0-12.52-4.83-12.73-6.81S219,86.73,219,86.73Z" fill="#68e1fd"></path><path d="M248.75,86.75h8.93l-6.59,46.11a19.13,19.13,0,0,1-8.53,5.19C245.49,121.05,248.1,104,248.75,86.75Z" opacity="0.33"></path><polyline points="258.56 81.22 258.56 84.59 218.16 85.17 218.16 81.22" fill="#ebeae8"></polyline><ellipse cx="238.36" cy="84.59" rx="20.2" ry="13.41" fill="#ebeae8"></ellipse><ellipse cx="238.36" cy="81.22" rx="20.2" ry="13.41" fill="#fffff2"></ellipse><ellipse cx="238.36" cy="80.52" rx="15.71" ry="9.34" fill="#ebeae8"></ellipse><ellipse cx="238.36" cy="80.52" rx="12.47" ry="7.42" fill="#fffff2"></ellipse><path d="M234.81,81l2.52-1-2-1c-.3-.15-.1-.64.21-.49.81.41,1.62.83,2.42,1.25q1.54-.62,3.06-1.28a.27.27,0,0,1,.2.49c-.88.38-1.76.74-2.65,1.1q1.5.79,3,1.61c.3.16.09.65-.21.49q-1.7-.94-3.42-1.84-1.47.59-2.94,1.16A.27.27,0,0,1,234.81,81Z" fill="#606060"></path><path d="M208.18,52l19.11-3.82c5.2.2,6.73,5.41,6.73,5.41l5.51,25.47c.62.32-3.59,1.43-3.59,1.43s-4.37-23.42-5.59-25.77a5.06,5.06,0,0,0-3.53-2.65s-12.52,2.54-17.24,3.62A3.92,3.92,0,0,0,208.18,52Z" fill="#ddd3c3"></path><polyline points="248.26 174.15 296.5 201.36 257.74 224.56 217.78 203.12" fill="url(#linear-gradient-4)" style="mix-blend-mode: multiply;"></polyline><ellipse cx="238.17" cy="188.22" rx="32.11" ry="18.91" fill="#f48f3b"></ellipse><path d="M268.68,187.46c-.26.35-5.86,13.85-29.74,13.9-28.1.05-30.47-10.7-31-12.69a17.64,17.64,0,0,1,0-6.22c.17.09,59.18.43,60,1.3S268.68,187.46,268.68,187.46Z" fill="#67352a"></path><path d="M227.24,167l.64-1.73-3.84-.18a34.51,34.51,0,0,1-3.36,6.72A80.15,80.15,0,0,1,211.86,186a31.16,31.16,0,0,1-2.24,2.9c-1.89,4.15-7.18,7.32-1.44,7.46,3.76.09,6-1.51,7.44-2.22q2.77-5.77,5.32-11.63C222.89,177.31,225,172.14,227.24,167Z" fill="#99ce45"></path><path d="M231.3,165.42l-1.77-.08-.78,1.82-10.54,29c.4,3.4-1.11,9,2.53,6.56,3.08-2.06,3.25-6.09,4.45-7q1.19-4.08,2.13-8.23C228.2,180.12,229.72,172.76,231.3,165.42Z" fill="#99ce45"></path><path d="M234.38,166.76c0-.4,0-.8.05-1.2l-1.62-.07a.66.66,0,0,1,.27.66l-4.64,31.63c2,2.8,1.57,5.74,3.27,1.33,1.18-3.08,1.47-5.17,2.34-6q0-12.88.05-25.76A.73.73,0,0,1,234.38,166.76Z" fill="#99ce45"></path><path d="M222,165l-.67,0a.62.62,0,0,1-.19.94c-4.91,2.9-9.11,7-14.34,9.27a4.93,4.93,0,0,1-.58,1.21c-2.6,4.14-4.64,5.22-2,7.61,1.77,1.59,4.29.61,5.41,1.18a118.58,118.58,0,0,0,11.88-18.95C221.73,165.82,221.88,165.41,222,165Z" fill="#99ce45"></path><path d="M217.61,164.8s-11.78-1.21-13.21,4.15c-.7,2.61.35,3.46,1.3,4.12,4.8-2.68,9.56-5.43,14.33-8.17Z" fill="#99ce45"></path><path d="M237.1,166.06l-.15-.38h-.29l.25.54A.76.76,0,0,1,237.1,166.06Z" fill="#99ce45"></path><path d="M235.78,167.23c0,.55-.06,1.1-.11,1.65A101.43,101.43,0,0,0,241,194.46c.95-.06,1.27-.88,1.33-2.82.09-3.49-3.69-8.3-.87-9-1.21-2.61-1.81-5.49-2.76-8.2C237.82,172,236.84,169.58,235.78,167.23Z" fill="#99ce45"></path><path d="M238.44,193.27a.69.69,0,0,1-.11.48l.58.23c-.18-.41-.36-.82-.53-1.24Z" fill="#99ce45"></path><path d="M221.19,165.91a.62.62,0,0,0,.19-.94l-1.34-.06c-4.77,2.74-9.53,5.49-14.33,8.17.77.54,1.48,1,1.15,2.1C212.08,172.92,216.28,168.81,221.19,165.91Z" fill="#88b72c"></path><path d="M220.68,171.81a34.51,34.51,0,0,0,3.36-6.72l-2-.09c-.16.41-.31.82-.48,1.22a118.58,118.58,0,0,1-11.88,18.95c.56.29.77,1,.37,2.53a7.34,7.34,0,0,1-.44,1.23,31.16,31.16,0,0,0,2.24-2.9A80.15,80.15,0,0,0,220.68,171.81Z" fill="#88b72c"></path><path d="M229.53,165.34l-1.65-.08-.64,1.73c-2.2,5.15-4.35,10.31-6.3,15.55q-2.55,5.86-5.32,11.63c1-.48,1.64-.55,2.21.58a4.43,4.43,0,0,1,.38,1.44l10.54-29Z" fill="#88b72c"></path><path d="M232.81,165.49l-1.51-.07c-1.58,7.34-3.1,14.7-4,22.13q-.95,4.14-2.13,8.23c.45-.33,1-.23,2,.57a7.66,7.66,0,0,1,1.28,1.43l4.64-31.63A.66.66,0,0,0,232.81,165.49Z" fill="#88b72c"></path><path d="M237.41,165.7l-.46,0,.15.38a.76.76,0,0,0-.19.15l-.25-.54-2.23-.1c0,.4,0,.8-.05,1.2a.73.73,0,0,0-.28.59q0,12.88-.05,25.76c.6-.57,1.48-.56,3.12.15l1.16.49a.69.69,0,0,0,.11-.48l-.06-.53c.17.42.35.83.53,1.24a5.46,5.46,0,0,0,2.07.48,101.43,101.43,0,0,1-5.31-25.58c0-.55.07-1.1.11-1.65,1.06,2.35,2,4.74,2.9,7.18,1,2.71,1.55,5.59,2.76,8.2l.13,0C244.63,182,237.41,165.7,237.41,165.7Z" fill="#88b72c"></path><path d="M265.7,180.52s2.17,8.07,3,12.42a23.13,23.13,0,0,0-8.69-3.28c-5-.76-34.82,1.56-34.82,1.56s-7.45,2.24-9,3.19a56.47,56.47,0,0,0-5.77,4.53S209,191.21,209,188.37c.05-2.27.6-8.07.6-8.07" fill="#ffc31a"></path><path d="M244,167.18l-1-1.52,3.69-1.09a34.51,34.51,0,0,0,4.86,5.72,80.15,80.15,0,0,0,12,11.71,31.16,31.16,0,0,0,2.87,2.28c2.83,3.57,8.72,5.4,3.18,6.91-3.63,1-6.16,0-7.75-.38q-4.07-4.94-7.94-10C250.66,176.16,247.34,171.66,244,167.18Z" fill="#99ce45"></path><path d="M239.66,166.63l1.7-.5,1.19,1.58,17.16,25.69c.42,3.4,3.22,8.47-.89,7-3.48-1.27-4.61-5.14-6-5.72q-2.13-3.68-4-7.48C246.18,180.16,242.95,173.38,239.66,166.63Z" fill="#99ce45"></path><path d="M237,168.66c-.12-.38-.22-.77-.33-1.15l1.56-.46a.66.66,0,0,0-.11.7l12.05,29.61c-1.24,3.19-.16,5.95-2.86,2.07-1.88-2.71-2.66-4.67-3.71-5.27l-6.19-25A.73.73,0,0,0,237,168.66Z" fill="#99ce45"></path><path d="M248.55,164l.64-.19a.62.62,0,0,0,.41.87c5.46,1.65,10.52,4.64,16.14,5.58a4.93,4.93,0,0,0,.85,1c3.51,3.4,5.75,4,3.75,6.91-1.34,2-4,1.61-5,2.44a118.58,118.58,0,0,1-16.05-15.57Z" fill="#99ce45"></path><path d="M252.81,162.75s11.15-4,13.82.88c1.3,2.37.49,3.44-.28,4.31-5.3-1.46-10.58-3-15.87-4.51Z" fill="#99ce45"></path><path d="M234.18,168.63l.05-.4.28-.08c0,.19-.08.39-.12.58A.76.76,0,0,0,234.18,168.63Z" fill="#99ce45"></path><path d="M235.74,169.45c.17.53.32,1.05.5,1.58a101.43,101.43,0,0,1,.94,26.11c-.94.17-1.45-.55-2-2.43-.92-3.37,1.61-8.94-1.31-9,.56-2.82.45-5.76.73-8.62C234.89,174.54,235.27,172,235.74,169.45Z" fill="#99ce45"></path><path d="M239.37,195.37a.69.69,0,0,0,.22.44l-.51.36c.07-.44.15-.88.22-1.33Z" fill="#99ce45"></path><path d="M249.6,164.69a.62.62,0,0,1-.41-.87l1.29-.38c5.28,1.52,10.56,3.05,15.87,4.51-.62.71-1.21,1.28-.61,2.31C260.11,169.33,255.06,166.33,249.6,164.69Z" fill="#88b72c"></path><path d="M251.49,170.3a34.51,34.51,0,0,1-4.86-5.72l1.92-.56.75,1.07a118.58,118.58,0,0,0,16.05,15.57c-.47.41-.52,1.11.24,2.55a7.34,7.34,0,0,0,.73,1.09,31.16,31.16,0,0,1-2.87-2.28A80.15,80.15,0,0,1,251.49,170.3Z" fill="#88b72c"></path><path d="M241.36,166.13l1.58-.47,1,1.52c3.37,4.47,6.69,9,9.83,13.6q3.87,5.09,7.94,10c-1.07-.23-1.73-.14-2,1.09a4.43,4.43,0,0,0,0,1.49L242.55,167.7Z" fill="#88b72c"></path><path d="M238.21,167.05l1.45-.43c3.28,6.75,6.51,13.54,9.15,20.55q1.91,3.8,4,7.48c-.51-.22-1.06,0-1.78,1a7.66,7.66,0,0,0-.9,1.69l-12.05-29.61A.66.66,0,0,1,238.21,167.05Z" fill="#88b72c"></path><path d="M233.79,168.36l.44-.13-.05.4a.76.76,0,0,1,.22.1c0-.19.08-.39.12-.58l2.14-.63c.11.38.22.77.33,1.15a.73.73,0,0,1,.41.5l6.19,25c-.72-.41-1.57-.19-3,.89l-1,.75a.69.69,0,0,1-.22-.44l-.07-.53c-.07.44-.15.89-.22,1.33a5.46,5.46,0,0,1-1.89,1,101.43,101.43,0,0,0-.94-26.11c-.18-.52-.33-1.05-.5-1.58-.47,2.54-.85,5.09-1.1,7.66-.28,2.86-.17,5.8-.73,8.62h-.13C230.65,185.86,233.79,168.36,233.79,168.36Z" fill="#88b72c"></path><path d="M260,186.21v3.46s-3.75,6.87-16.17,2.07l.35-1.59" fill="#217738"></path><path d="M260,186.21s0,3.59-6,5.2-9.77-1.27-9.77-1.27Z" fill="#e0ffb2"></path><path d="M271.81,180.29v2.88s0,5.19-12.22,5v-1.81s5.59-.47,8.05-1.62C270.51,183.45,271.67,181.64,271.81,180.29Z" fill="#c61424"></path><ellipse cx="261.69" cy="180.47" rx="10.12" ry="5.97" fill="#ff2624"></ellipse><path d="M268.81,177.24a3.79,3.79,0,0,1,1.73,2.87c0,1.82-.81,2.67-1.73,2.67s-3.39-3.21-4.24-2.49,2.77,3.23,2.05,4.15-7.13,1.66-8.31.75-2.54-5.15.88-6.32A50.21,50.21,0,0,1,268.81,177.24Z" fill="#c61424"></path><path d="M206,181.1V184s.92,5.95,15.24,4l-.77-1.3s-7.84.08-10.31-1.07C207.34,184.26,206.19,182.44,206,181.1Z" fill="#c61424"></path><ellipse cx="216.17" cy="181.28" rx="10.12" ry="5.97" fill="#ff2624"></ellipse><path d="M209.05,178a3.79,3.79,0,0,0-1.73,2.87c0,1.82.81,2.67,1.73,2.67s3.39-3.21,4.24-2.49-2.77,3.23-2.05,4.15,7.13,1.66,8.31.75,2.54-5.15-.88-6.32A50.21,50.21,0,0,0,209.05,178Z" fill="#c61424"></path><path d="M214.77,186.21v3.46s3.75,6.87,16.17,2.07l-.35-1.59" fill="#217738"></path><path d="M214.77,186.21s0,3.59,6,5.2,9.77-1.27,9.77-1.27Z" fill="#e0ffb2"></path><path d="M249.85,190.9V194s-2.29,3.9-11.53,3.9-11.33-4-11.33-4.15V190.9" fill="#c61424"></path><ellipse cx="238.43" cy="191.22" rx="11.43" ry="5.34" fill="#ff2624"></ellipse><path d="M248.51,190.9s-2.3,3.39-5.15,3.51-3.5-3.43-4.59-2.51-.75,3.31-3,3.06-7.16-2.21-7.28-3.75" fill="#c61424"></path><ellipse cx="237.67" cy="171.74" rx="32.62" ry="21.09" fill="#f48f3b"></ellipse><path d="M215.26,186.91c11.22,4.9,26.67,4.73,37.6-.83,5.75-2.92,11.24-7.51,13.67-13.49a13.94,13.94,0,0,0,0-10.61,15.44,15.44,0,0,1,3.71,9.76c0,11.65-14.6,21.09-32.62,21.09-9.13,0-17.37-2.43-23.29-6.33Z" fill="#e27a2d"></path><ellipse cx="240.7" cy="160.31" rx="1.63" ry="0.58" fill="#ffe5d2"></ellipse><ellipse cx="234.04" cy="165.67" rx="1.63" ry="0.58" fill="#ffe5d2"></ellipse><ellipse cx="251.92" cy="161.22" rx="1.63" ry="0.58" fill="#ffe5d2"></ellipse><ellipse cx="245.45" cy="167.23" rx="1.63" ry="0.58" fill="#ffe5d2"></ellipse><ellipse cx="224.04" cy="158.86" rx="1.63" ry="0.58" fill="#ffe5d2"></ellipse><ellipse cx="220.03" cy="168.88" rx="1.63" ry="0.58" fill="#ffe5d2"></ellipse><ellipse cx="231.3" cy="175.17" rx="1.63" ry="0.58" fill="#ffe5d2"></ellipse><ellipse cx="246.63" cy="174.15" rx="1.63" ry="0.58" fill="#ffe5d2"></ellipse><polyline points="180.93 130.69 233.09 156.85 182.14 189.78 142.18 168.34" fill="url(#linear-gradient-5)" style="mix-blend-mode: multiply;"></polyline><ellipse cx="162.25" cy="151.16" rx="37.16" ry="21.89" fill="#f48f3b"></ellipse><path d="M197.55,150.28c-.3.4-6.78,16-34.42,16.08-32.52.06-35.26-12.39-35.86-14.68s-.2-7.3,0-7.2,68.48.5,69.38,1.5S197.55,150.28,197.55,150.28Z" fill="#67352a"></path><path d="M149.59,126.59l.74-2-4.45-.2a39.94,39.94,0,0,1-3.89,7.78,92.76,92.76,0,0,1-10.21,16.46,36.07,36.07,0,0,1-2.6,3.35c-2.19,4.8-8.31,8.47-1.66,8.64,4.36.11,6.91-1.75,8.61-2.57q3.21-6.67,6.16-13.46C144.56,138.53,147,132.55,149.59,126.59Z" fill="#99ce45"></path><path d="M154.29,124.78l-2-.09-.91,2.1-12.2,33.61c.47,3.94-1.28,10.41,2.93,7.59,3.56-2.39,3.76-7,5.15-8.08q1.37-4.73,2.46-9.52C150.7,141.79,152.46,133.27,154.29,124.78Z" fill="#99ce45"></path><path d="M157.85,126.33c0-.46,0-.92.06-1.39l-1.88-.09a.77.77,0,0,1,.31.76L151,162.22c2.27,3.24,1.82,6.64,3.78,1.54,1.37-3.57,1.7-6,2.71-6.94q0-14.9.06-29.81A.85.85,0,0,1,157.85,126.33Z" fill="#99ce45"></path><path d="M143.58,124.29l-.77,0a.71.71,0,0,1-.22,1.09c-5.68,3.36-10.54,8.12-16.6,10.72a5.7,5.7,0,0,1-.67,1.4c-3,4.79-5.37,6-2.3,8.8,2,1.84,5,.7,6.26,1.36,5.42-6.74,9.68-14.28,13.75-21.93C143.22,125.23,143.4,124.76,143.58,124.29Z" fill="#99ce45"></path><path d="M138.45,124.05s-13.63-1.4-15.29,4.81c-.81,3,.4,4,1.5,4.77,5.56-3.1,11.07-6.28,16.59-9.45Z" fill="#99ce45"></path><path d="M161,125.51l-.17-.44-.34,0,.29.62A.88.88,0,0,1,161,125.51Z" fill="#99ce45"></path><path d="M159.48,126.86c0,.64-.07,1.27-.13,1.91a117.38,117.38,0,0,0,6.14,29.6c1.1-.07,1.48-1,1.53-3.27.11-4-4.27-9.61-1-10.45-1.41-3-2.09-6.35-3.2-9.49C161.84,132.35,160.71,129.59,159.48,126.86Z" fill="#99ce45"></path><path d="M162.56,157a.8.8,0,0,1-.12.55l.67.26c-.21-.48-.42-1-.61-1.43Z" fill="#99ce45"></path><path d="M142.59,125.34a.71.71,0,0,0,.22-1.09l-1.56-.07c-5.52,3.17-11,6.35-16.59,9.45.9.62,1.72,1.11,1.33,2.43C132.05,133.46,136.91,128.69,142.59,125.34Z" fill="#88b72c"></path><path d="M142,132.17a39.94,39.94,0,0,0,3.89-7.78l-2.31-.11c-.18.47-.36.95-.55,1.42-4.06,7.65-8.33,15.18-13.75,21.93.65.33.9,1.11.43,2.93a8.49,8.49,0,0,1-.51,1.43,36.07,36.07,0,0,0,2.6-3.35A92.76,92.76,0,0,0,142,132.17Z" fill="#88b72c"></path><path d="M152.24,124.68l-1.91-.09-.74,2c-2.55,6-5,11.94-7.3,18q-3,6.78-6.16,13.46c1.14-.55,1.9-.63,2.56.67a5.13,5.13,0,0,1,.44,1.67l12.2-33.61Z" fill="#88b72c"></path><path d="M156,124.86l-1.75-.08c-1.83,8.5-3.59,17-4.61,25.62q-1.1,4.79-2.46,9.52c.52-.39,1.2-.27,2.28.66a8.86,8.86,0,0,1,1.48,1.65l5.37-36.61A.77.77,0,0,0,156,124.86Z" fill="#88b72c"></path><path d="M161.37,125.1l-.54,0,.17.44a.88.88,0,0,0-.22.17l-.29-.62-2.58-.12c0,.46,0,.92-.06,1.39a.85.85,0,0,0-.33.68q0,14.9-.06,29.81c.69-.66,1.71-.64,3.61.18l1.35.56a.8.8,0,0,0,.12-.55l-.07-.62c.2.48.41,1,.61,1.43a6.31,6.31,0,0,0,2.39.56,117.38,117.38,0,0,1-6.14-29.6c.05-.64.08-1.27.13-1.91,1.23,2.72,2.36,5.48,3.35,8.3,1.1,3.14,1.79,6.47,3.2,9.49l.15,0C169.72,143.91,161.37,125.1,161.37,125.1Z" fill="#88b72c"></path><path d="M194.11,142.25s2.51,9.34,3.47,14.37a26.77,26.77,0,0,0-10.06-3.79c-5.81-.88-40.3,1.8-40.3,1.8s-8.62,2.6-10.43,3.69a65.35,65.35,0,0,0-6.68,5.24s-1.65-8.93-1.58-12.23c.06-2.63.69-9.34.69-9.34" fill="#ffc31a"></path><path d="M169,126.82l-1.2-1.76,4.27-1.26a39.94,39.94,0,0,0,5.63,6.62A92.76,92.76,0,0,0,191.51,144a36.07,36.07,0,0,0,3.32,2.64c3.27,4.14,10.09,6.25,3.68,8-4.2,1.14-7.13-.05-9-.45q-4.71-5.71-9.19-11.6C176.7,137.21,172.86,132,169,126.82Z" fill="#99ce45"></path><path d="M164,126.17l2-.58,1.38,1.83,19.86,29.73c.48,3.94,3.73,9.81-1,8.07-4-1.47-5.33-5.94-6.93-6.62q-2.46-4.26-4.66-8.66C171.51,141.84,167.77,134,164,126.17Z" fill="#99ce45"></path><path d="M160.88,128.53c-.14-.44-.26-.89-.39-1.33l1.8-.53a.77.77,0,0,0-.12.81l13.95,34.27c-1.43,3.69-.18,6.89-3.31,2.39-2.18-3.14-3.07-5.4-4.29-6.1l-7.17-28.93A.85.85,0,0,0,160.88,128.53Z" fill="#99ce45"></path><path d="M174.26,123.14l.74-.22a.71.71,0,0,0,.47,1c6.32,1.91,12.17,5.37,18.67,6.46a5.7,5.7,0,0,0,1,1.2c4.06,3.93,6.66,4.59,4.34,8-1.55,2.28-4.65,1.86-5.76,2.82-6.87-5.26-12.81-11.55-18.58-18C174.83,124,174.55,123.56,174.26,123.14Z" fill="#99ce45"></path><path d="M179.18,121.69s12.91-4.61,16,1c1.5,2.75.57,4-.32,5-6.14-1.69-12.25-3.46-18.36-5.22Z" fill="#99ce45"></path><path d="M157.63,128.48c0-.16,0-.31.06-.46l.33-.1c0,.23-.09.45-.14.68A.88.88,0,0,0,157.63,128.48Z" fill="#99ce45"></path><path d="M159.43,129.44c.19.61.37,1.22.58,1.82a117.38,117.38,0,0,1,1.09,30.21c-1.08.19-1.68-.64-2.27-2.81-1.06-3.9,1.86-10.35-1.52-10.39.65-3.26.52-6.67.84-10C158.45,135.32,158.89,132.37,159.43,129.44Z" fill="#99ce45"></path><path d="M163.63,159.44a.8.8,0,0,0,.25.51l-.59.41c.09-.51.18-1,.26-1.54Z" fill="#99ce45"></path><path d="M175.47,123.93a.71.71,0,0,1-.47-1l1.49-.44c6.11,1.76,12.23,3.54,18.36,5.22-.72.82-1.4,1.49-.71,2.68C187.64,129.3,181.79,125.83,175.47,123.93Z" fill="#88b72c"></path><path d="M177.67,130.42a39.94,39.94,0,0,1-5.63-6.62l2.22-.65c.29.42.58.83.87,1.24,5.77,6.46,11.71,12.76,18.58,18-.55.48-.61,1.29.28,2.95a8.49,8.49,0,0,0,.84,1.26,36.07,36.07,0,0,1-3.32-2.64A92.76,92.76,0,0,1,177.67,130.42Z" fill="#88b72c"></path><path d="M165.94,125.59l1.83-.54,1.2,1.76c3.9,5.18,7.74,10.39,11.38,15.74q4.48,5.89,9.19,11.6c-1.24-.26-2-.16-2.32,1.26a5.13,5.13,0,0,0,0,1.73l-19.86-29.73Z" fill="#88b72c"></path><path d="M162.29,126.66l1.68-.49c3.8,7.82,7.54,15.67,10.59,23.78q2.21,4.39,4.66,8.66c-.59-.25-1.23,0-2.06,1.18a8.86,8.86,0,0,0-1,2l-13.95-34.27A.77.77,0,0,1,162.29,126.66Z" fill="#88b72c"></path><path d="M157.18,128.17l.51-.15c0,.16,0,.31-.06.46a.88.88,0,0,1,.25.12c0-.23.09-.45.14-.68l2.48-.73c.13.44.25.89.39,1.33a.85.85,0,0,1,.48.58L168.52,158c-.83-.47-1.81-.22-3.47,1l-1.17.87a.8.8,0,0,1-.25-.51l-.08-.62c-.08.51-.17,1-.26,1.54a6.31,6.31,0,0,1-2.19,1.11A117.38,117.38,0,0,0,160,131.26c-.2-.6-.39-1.22-.58-1.82-.54,2.94-1,5.89-1.28,8.86-.32,3.31-.2,6.71-.84,10h-.15C153.55,148.43,157.18,128.17,157.18,128.17Z" fill="#88b72c"></path><path d="M187.51,148.83v4s-4.34,7.95-18.72,2.4l.41-1.84" fill="#217738"></path><path d="M187.51,148.83s0,4.15-7,6-11.31-1.46-11.31-1.46Z" fill="#e0ffb2"></path><path d="M201.18,142v3.33s-.05,6-14.14,5.84v-2.09s6.46-.54,9.32-1.87C199.68,145.64,201,143.54,201.18,142Z" fill="#c61424"></path><ellipse cx="189.46" cy="142.19" rx="11.72" ry="6.91" fill="#ff2624"></ellipse><path d="M197.7,138.45a4.39,4.39,0,0,1,2,3.32c0,2.11-.94,3.09-2,3.09s-3.92-3.72-4.9-2.88,3.2,3.74,2.38,4.8-8.26,1.92-9.61.87-2.94-6,1-7.31S197.7,138.45,197.7,138.45Z" fill="#c61424"></path><path d="M125.07,142.92v3.33s1.06,6.88,17.64,4.62l-.89-1.5s-9.07.09-11.93-1.24C126.57,146.57,125.23,144.48,125.07,142.92Z" fill="#c61424"></path><ellipse cx="136.79" cy="143.12" rx="11.72" ry="6.91" fill="#ff2624"></ellipse><path d="M128.55,139.39a4.39,4.39,0,0,0-2,3.32c0,2.11.94,3.09,2,3.09s3.92-3.72,4.9-2.88-3.2,3.74-2.38,4.8,8.26,1.92,9.61.87,2.94-6-1-7.31S128.55,139.39,128.55,139.39Z" fill="#c61424"></path><path d="M135.16,148.83v4s4.34,7.95,18.72,2.4l-.41-1.84" fill="#217738"></path><path d="M135.16,148.83s0,4.15,7,6,11.31-1.46,11.31-1.46Z" fill="#e0ffb2"></path><path d="M175.77,154.26v3.61s-2.65,4.52-13.34,4.52-13.11-4.66-13.11-4.8v-3.33" fill="#c61424"></path><ellipse cx="162.54" cy="154.63" rx="13.22" ry="6.18" fill="#ff2624"></ellipse><path d="M174.22,154.26s-2.66,3.92-6,4.06-4-4-5.32-2.9-.86,3.83-3.52,3.55-8.29-2.56-8.42-4.33" fill="#c61424"></path><ellipse cx="161.66" cy="132.08" rx="37.75" ry="24.4" fill="#f48f3b"></ellipse><path d="M135.73,149.64c13,5.67,30.87,5.47,43.52-1,6.65-3.38,13-8.69,15.82-15.61a16.13,16.13,0,0,0,0-12.28,17.87,17.87,0,0,1,4.29,11.3c0,13.48-16.9,24.4-37.75,24.4-10.56,0-20.1-2.81-27-7.33Z" fill="#e27a2d"></path><ellipse cx="165.18" cy="118.86" rx="1.88" ry="0.67" fill="#ffe5d2"></ellipse><ellipse cx="157.47" cy="125.06" rx="1.88" ry="0.67" fill="#ffe5d2"></ellipse><ellipse cx="178.15" cy="119.91" rx="1.88" ry="0.67" fill="#ffe5d2"></ellipse><ellipse cx="170.66" cy="126.86" rx="1.88" ry="0.67" fill="#ffe5d2"></ellipse><ellipse cx="145.89" cy="117.18" rx="1.88" ry="0.67" fill="#ffe5d2"></ellipse><ellipse cx="141.25" cy="128.77" rx="1.88" ry="0.67" fill="#ffe5d2"></ellipse><ellipse cx="154.29" cy="136.06" rx="1.88" ry="0.67" fill="#ffe5d2"></ellipse><ellipse cx="172.04" cy="134.88" rx="1.88" ry="0.67" fill="#ffe5d2"></ellipse><path d="M91.67,194.83c-3.78,1.16-7.57,2.3-11.46,3.08a58.65,58.65,0,0,1-7.17.83L69,196l-27.9-20.74,21.34-7.09,50.47,17.59C106.69,190.33,99,192.59,91.67,194.83Z" opacity="0.32" fill="url(#linear-gradient-6)"></path><path d="M52.26,153.77c5-.44,10.34-2,14.06-5.4v14.93a15.49,15.49,0,0,1-15.49,15.49h0a15.49,15.49,0,0,1-15.49-15.49V148.11C40.62,150.27,46.62,154.26,52.26,153.77Z" fill="#68e1fd"></path><ellipse cx="50.83" cy="148.27" rx="15.49" ry="8.21" fill="#5ed18d"></ellipse><path d="M50.83,149.66s10.53-1.55,13.32-18.59C64.15,131.07,55.16,136,50.83,149.66Z" fill="#5ed18d"></path><path d="M49.28,147.49s12.08-21.68,0-36.24A60.75,60.75,0,0,0,49.28,147.49Z" fill="#5ed18d"></path><path d="M50.83,133.86s10.53-1.55,13.32-18.59C64.15,115.28,55.16,120.23,50.83,133.86Z" fill="#5ed18d"></path><path d="M49.55,140.81s2.64-10.31-12-19.46C37.55,121.34,38.65,131.54,49.55,140.81Z" fill="#5ed18d"></path><ellipse cx="50.83" cy="148.27" rx="15.49" ry="8.21" fill="#146666"></ellipse><path d="M50.83,149.66s10.53-1.55,13.32-18.59C64.15,131.07,55.16,136,50.83,149.66Z" fill="#5ed18d"></path><path d="M49.28,147.49s12.08-21.68,0-36.24A60.75,60.75,0,0,0,49.28,147.49Z" fill="#5ed18d"></path><path d="M50.83,133.86s10.53-1.55,13.32-18.59C64.15,115.28,55.16,120.23,50.83,133.86Z" fill="#5ed18d"></path><path d="M49.55,140.81s2.64-10.31-12-19.46C37.55,121.34,38.65,131.54,49.55,140.81Z" fill="#5ed18d"></path></g></g></svg>