<svg id="Layer_2" data-name="Layer 2" xmlns="http://www.w3.org/2000/svg" xmlns:xlink="http://www.w3.org/1999/xlink" viewBox="0 0 400 300" width="406" height="306" class="illustration styles_illustrationTablet__1DWOa"><defs><linearGradient id="linear-gradient" x1="295.72" y1="208.47" x2="313.01" y2="190.09" gradientUnits="userSpaceOnUse"><stop offset="0" stop-color="#ff734d" stop-opacity="0"></stop><stop offset="1" stop-color="#42210b"></stop></linearGradient><linearGradient id="linear-gradient-2" x1="125.63" y1="227.89" x2="148.72" y2="196.69" xlink:href="#linear-gradient"></linearGradient><linearGradient id="linear-gradient-3" x1="230.23" y1="120.17" x2="236.24" y2="113.77" xlink:href="#linear-gradient"></linearGradient><linearGradient id="linear-gradient-4" x1="55.37" y1="173.8" x2="60.04" y2="168.83" xlink:href="#linear-gradient"></linearGradient><linearGradient id="linear-gradient-5" x1="198.79" y1="261.1" x2="206.54" y2="252.86" xlink:href="#linear-gradient"></linearGradient></defs><title>PP</title><path d="M194.51,276,22,174c-5.49-3.08-10.2-8.15-4.85-11.46L190.29,62.78c2.6-1.61,6.54-2.66,9.18-1.13L380.54,166.74c5.49,3.19,6.48,12.1,1,15.29L217.25,275.8A22.94,22.94,0,0,1,194.51,276Z" fill="#16a79e"></path><path d="M278.91,203.17c2.11-.35,10.16,3.77,11,4.73-1.48,14.59,9,7.46,13.61,11.14l4-1.65q12-12,24.12-23.86c-2.77-2-9.74-4.12-12.42-6.22C305.84,192.81,295.41,196.24,278.91,203.17Z" opacity="0.41" fill="url(#linear-gradient)"></path><polyline points="274.94 185.75 157.59 254.14 39.66 184.44 119.99 141.4" opacity="0.41" fill="url(#linear-gradient-2)"></polyline><path d="M225.65,118.86c.73-.12,1.33-.11,1.61.23-.51,5.08,3.14,2.6,4.74,3.88l1.38-.58q4.17-4.18,8.39-8.3c-1-.7-1.9-1.43-2.83-2.16A88.88,88.88,0,0,0,225.65,118.86Z" opacity="0.41" fill="url(#linear-gradient-3)"></path><path d="M242.16,114.13v-25h-5.45v25.24A7.28,7.28,0,0,0,242.16,114.13Z" fill="#a83f1e"></path><path d="M240,89.18V114.8a5.48,5.48,0,0,0,2.17-.6v-25Z" fill="#7f2b14"></path><path d="M247,91.45c3.39-.16,7.72-1.38,6.45-5.15-.75-2.23-3.06-4.2-4.53-6s-1.15-3-2.8-4.68c1.4.06,3.44-.21,3.78-1.6.3-1.22-6.24-8.68-9.08-11.71a1.81,1.81,0,0,0-2.46-.18C235,64.84,226.4,72,227.6,74.05a4.29,4.29,0,0,0,3.51,1.79c-3.1,3.11-6.63,7-7,11.13-.31,3.59,3.36,4.07,6.78,3.88-2.36,2.87-8.78,11.06-7.31,13.54.77,1.31,3.26,1.74,4.73,2a47,47,0,0,0,9.7.94,29.89,29.89,0,0,0,9.65-1.45,13.51,13.51,0,0,0,4.71-2.59c1.51-1.42.66-2.92-.31-4.34C250.35,96.49,248.68,94,247,91.45Z" fill="#77c457"></path><path d="M246.14,75.65s-4.12-.27-7-.19l14.55,12s.39-1.39-2.18-4.24A58.53,58.53,0,0,1,246.14,75.65Z" fill="#0d5b23"></path><path d="M247,91.45h-8.46l13.82,11.87a2.1,2.1,0,0,0,.61-2.73C252.06,99,247,91.45,247,91.45Z" fill="#0d5b23"></path><path d="M283.7,168.57c-.74-2.23-63.43-97.83-67.33-101.73s-5.32-3.55-6.39-6-15.62-19.88-17.39-22-6.39-6-8.16-6.39S167,39.15,164.18,40.21,154.6,54.77,151.4,55.12s-17,2.13-18.1,3.55-22.72,44-22.72,44L91.77,162.33s-5.26,32.3-1.92,34.79,74.34,8.87,79.31,7.45,62.12-3.9,70.29-5,31.95-11.71,35.5-13.84S283.7,168.57,283.7,168.57Z" fill="#68e1fd"></path><path d="M210,60.8l-2,11.83,66.91,113.12s3.81-2.72,8.76-17.19l-37.84-58.35-25.18-37.5A39.45,39.45,0,0,0,210,60.8Z" fill="#351b0c" opacity="0.24"></path><path d="M145.14,94.92l36.36,10.36L191.87,151,215,201.26l-45.89,3.31s-61.88-1.21-79.31-7.45Z" fill="#351b0c" opacity="0.24"></path><path d="M133.3,58.67s11.84,30.94,11.84,36.25-11.84,43.69-11.84,43.69L89.85,197.11s-3.09-.07,1.92-34.79l6.83-24.07,12-35.56Z" fill="#351b0c" opacity="0.4"></path><polygon points="208.02 72.64 200.57 99.85 181.5 105.29 208.02 105.5 224.12 99.85 208.02 72.64" fill="#351b0c" opacity="0.4"></polygon><path d="M320,121.32s-1.28-.23-5.3,2.36c-2,1.32-5,4.3-6,4s-7.56-4.07-8.22-3.5-3.2,3.38-2.57,4.26,7.41,6.57,10.67,6.59,8.31-3.49,9.42-5.4S320,121.32,320,121.32Z" fill="#89b522"></path><path d="M295.65,117.85c.17-.56.49-1,1.21-.91a2,2,0,0,1,1.49,1.64c.65,6.12.81,12.33,1.3,18.48l1.61,20,1.55,19.25.89,11.09.05.64s-1,1.29-1.92.17l-.61-6.66-1.47-16.12L298,145.68c-.41-4.46-.79-9-1.22-13.55q-.33-3.47-.71-6.94c-.23-2.07-.83-4.35-.56-6.43A6,6,0,0,1,295.65,117.85Z" fill="#783b36"></path><path d="M300.44,124.18A10.55,10.55,0,0,0,299.2,122c-.58-.65-1-1.28-1.55-1.42s-1.87,1.68-1.39,2.12,1.55-.67,1.55-.67-.66,2.85,1.13,3.75Z" fill="#f0ad83"></path><path d="M295.51,122.33s-1,.42-.84,1.09.77.3.77.3-1.4.6-1,1.21,1.55.27,1.55.27-1.29.59-1,1.05,2.33.58,2.38,0-.59-1.06-.59-1.06.76-.62.42-1.18a.79.79,0,0,0-.78-.47S297.37,121.72,295.51,122.33Z" fill="#f0ad83"></path><path d="M342.51,123.16c-.2-2.44-5.17-8.47-10.58-8.49a22.65,22.65,0,0,0-10.58,2.45,41.56,41.56,0,0,0-.8,6l10.26,32.43a14.44,14.44,0,0,0,6.92.41,8.51,8.51,0,0,0,4.78-3.86S342.71,125.6,342.51,123.16Z" fill="#a05c2d"></path><path d="M328.34,188.08s.2,2.21-.25,2.71-3.77,2.76-4,4.12.15,1.81.5,2,1,.7,3.42-.4,4.17-3,4.27-3.62-.3-4.77-.3-4.77Z" fill="#606060"></path><path d="M316.24,184.45s-.3,2.31-1.1,2.61-3.37,1-3.87,2.11-.5,2.31-.05,2.51,3.06-.33,5.93-1.46a14.22,14.22,0,0,0,3.3-1.61,34.51,34.51,0,0,0,0-4.17" fill="#606060"></path><path d="M317.4,143.56S316.35,168,316.19,169s-.71,16.16-.71,16.16,2.26,2,6.55,0c0,0,.89-10.78,1.05-12.92s2.53-25.91,2.39-27.18S323.91,144.36,317.4,143.56Z" fill="#7c6e85"></path><path d="M320.52,144.57s2.9,26.75,3.82,29,3.39,15.86,3.39,15.86a7.39,7.39,0,0,0,5.33,0c.9-.44-.05-9.43-.14-10.3-.61-6.25-.45-12.09-1.1-19-.37-4.06,0-11.18-1.72-15C328,140.53,320.52,144.57,320.52,144.57Z" fill="#a198ad"></path><path d="M334.36,143.69V152a3.33,3.33,0,0,0,3.42,1c2.42-.42,6.79-2.9,6.85-3.63s0-6.4,0-6.4" fill="#eb8100"></path><path d="M334.36,143.69s2.69.36,3.3,2.12,2.85,1.21,5.21-.36,2.79-2.42,2.55-3.76a3.39,3.39,0,0,0-3.15-2.67C340.56,138.9,334.36,143.69,334.36,143.69Z" fill="#7f3c0e"></path><path d="M334.36,132v8.31a3.33,3.33,0,0,0,3.42,1c2.42-.42,6.79-2.9,6.85-3.63s0-6.4,0-6.4" fill="#eb8100"></path><path d="M334.36,132s2.69.36,3.3,2.12,2.85,1.21,5.21-.36,2.79-2.42,2.55-3.76a3.39,3.39,0,0,0-3.15-2.67C340.56,127.19,334.36,132,334.36,132Z" fill="#7f3c0e"></path><path d="M317.4,143.56s-.36-20.77,1.26-21.95,12.63,1.38,13.8,4.22-1.08,21.63-1.08,21.63S319.34,147.66,317.4,143.56Z" fill="#89b522"></path><path d="M326.66,123.6l.56-4.88-5.28,1.41v3.19A4.11,4.11,0,0,0,326.66,123.6Z" fill="#e09368"></path><path d="M321.82,111.57s2.28-3.25,5.4-1.3,1.92,5.61,1.92,5.61" fill="#7f3c0e"></path><path d="M320.39,115.13c-.47-.12-.88-.88-.86-2a1.9,1.9,0,0,1,2.3-1.56,15.55,15.55,0,0,1,7.32,4.32c.49.76-.93,3.29-1.93,2.84" fill="#5b98ff"></path><path d="M320.5,113.86s-.94,8.09,2.21,8.77,4.5-3.9,4.5-3.9a1.52,1.52,0,0,0,1.09-1.47c-.06-1.13-1.52-1-1.52-1A6.78,6.78,0,0,0,320.5,113.86Z" fill="#f0ad83"></path><path d="M328.62,146.56s-.92.93-1.38.89-2.25.36-2,.9,1.76.2,1.76.2a5.2,5.2,0,0,0,2.67,2l1.47-1.68" fill="#f0ad83"></path><path d="M331.73,124.79s6.63,5.74,7.46,11.27-7.58,12.83-8.36,13-2.73-1.66-2.52-3,5.47-7.81,4.92-9.17-6.38-4.66-6-8S331.73,124.79,331.73,124.79Z" fill="#89b522"></path><path d="M51.81,172.78c.57-.1,1-.08,1.25.18-.4,3.94,2.44,2,3.68,3l1.07-.45q3.24-3.24,6.52-6.45c-.75-.54-1.47-1.11-2.2-1.68A69,69,0,0,0,51.81,172.78Z" opacity="0.41" fill="url(#linear-gradient-4)"></path><path d="M64.62,169.11V149.69H60.4v19.59A5.65,5.65,0,0,0,64.62,169.11Z" fill="#a83f1e"></path><path d="M62.94,149.74v19.89a4.26,4.26,0,0,0,1.69-.47V149.74Z" fill="#7f2b14"></path><path d="M68.39,151.51c2.63-.13,6-1.07,5-4-.58-1.73-2.37-3.26-3.52-4.63s-.89-2.29-2.17-3.64c1.09,0,2.67-.16,2.94-1.24s-4.85-6.74-7-9.09a1.41,1.41,0,0,0-1.91-.14c-2.62,2.08-9.3,7.63-8.37,9.23A3.33,3.33,0,0,0,56,139.39c-2.41,2.41-5.15,5.43-5.42,8.64-.24,2.79,2.61,3.16,5.26,3-1.83,2.23-6.81,8.58-5.68,10.51.6,1,2.53,1.35,3.67,1.58a36.5,36.5,0,0,0,7.53.73,23.2,23.2,0,0,0,7.49-1.13,10.49,10.49,0,0,0,3.65-2c1.17-1.1.52-2.27-.24-3.37C71,155.42,69.69,153.46,68.39,151.51Z" fill="#77c457"></path><path d="M67.71,139.24s-3.2-.21-5.43-.15l11.29,9.28s.3-1.08-1.69-3.29A45.44,45.44,0,0,1,67.71,139.24Z" fill="#0d5b23"></path><path d="M68.39,151.51H61.82l10.73,9.21A1.63,1.63,0,0,0,73,158.6C72.31,157.35,68.39,151.51,68.39,151.51Z" fill="#0d5b23"></path><path d="M192.89,259.42c.94-.16,1.71-.14,2.08.29-.66,6.54,4,3.34,6.1,5l1.77-.74q5.37-5.38,10.81-10.7c-1.24-.9-2.44-1.85-3.65-2.79A114.5,114.5,0,0,0,192.89,259.42Z" opacity="0.41" fill="url(#linear-gradient-5)"></path><path d="M214.16,253.32V221.1h-7v32.51A9.38,9.38,0,0,0,214.16,253.32Z" fill="#a83f1e"></path><path d="M211.36,221.19v33a7.07,7.07,0,0,0,2.8-.78V221.19Z" fill="#7f2b14"></path><path d="M220.41,224.11c4.36-.21,10-1.78,8.32-6.64-1-2.88-3.94-5.41-5.84-7.69s-1.48-3.8-3.6-6c1.81.08,4.43-.27,4.88-2.06.39-1.57-8-11.19-11.69-15.09a2.34,2.34,0,0,0-3.16-.23c-4.35,3.46-15.44,12.67-13.9,15.32.93,1.6,2.82,2.15,4.52,2.3-4,4-8.54,9-9,14.33-.4,4.62,4.33,5.24,8.73,5-3,3.7-11.31,14.24-9.42,17.45,1,1.69,4.2,2.25,6.1,2.62a60.57,60.57,0,0,0,12.5,1.21,38.5,38.5,0,0,0,12.43-1.87,17.41,17.41,0,0,0,6.06-3.33c1.94-1.82.86-3.76-.4-5.6C224.71,230.6,222.56,227.35,220.41,224.11Z" fill="#77c457"></path><path d="M219.29,203.75s-5.31-.35-9-.25L229,218.91s.5-1.79-2.81-5.46A75.4,75.4,0,0,1,219.29,203.75Z" fill="#0d5b23"></path><path d="M220.41,224.11h-10.9l17.8,15.29a2.71,2.71,0,0,0,.78-3.52C226.91,233.81,220.41,224.11,220.41,224.11Z" fill="#0d5b23"></path><path d="M216.24,124.86h59.24l-14.2-4.57s1.09-14.27-7.64-14.81-10.1,7.1-10.1,7.1-3.55-2.73-7.64-1.37-4.1,6.83-4.1,6.83Z" fill="#dcfff3"></path><path d="M255.76,114.74a13.44,13.44,0,0,1-2.65,10.12h22.37l-14.2-4.57s1.09-14.27-7.64-14.81a11.75,11.75,0,0,0-3.4.26C253.29,107.46,255.17,110.92,255.76,114.74Z" fill="#a7e8cf"></path><path d="M52.84,162.73h59.24l-14.2-4.57s1.09-14.27-7.64-14.81-10.1,7.1-10.1,7.1-3.55-2.73-7.64-1.37-4.1,6.83-4.1,6.83Z" fill="#dcfff3"></path><path d="M92.36,152.61a13.44,13.44,0,0,1-2.65,10.12h22.37l-14.2-4.57s1.09-14.27-7.64-14.81a11.75,11.75,0,0,0-3.4.26C89.9,145.32,91.78,148.79,92.36,152.61Z" fill="#a7e8cf"></path></svg>