<svg xmlns="http://www.w3.org/2000/svg" xmlns:xlink="http://www.w3.org/1999/xlink" viewBox="0 0 400 300" width="406" height="306" class="illustration styles_illustrationTablet__1DWOa"><defs><linearGradient id="linear-gradient" x1="173.65" y1="97.18" x2="147.34" y2="122.2" gradientUnits="userSpaceOnUse"><stop offset="0" stop-color="#00a99d"></stop><stop offset="1" stop-color="#fff"></stop></linearGradient><linearGradient id="linear-gradient-2" x1="324.13" y1="178.09" x2="297.31" y2="203.59" xlink:href="#linear-gradient"></linearGradient><linearGradient id="linear-gradient-3" x1="225.58" y1="192.13" x2="193.57" y2="222.56" xlink:href="#linear-gradient"></linearGradient><linearGradient id="linear-gradient-4" x1="55.3" y1="162.08" x2="34.86" y2="181.51" xlink:href="#linear-gradient"></linearGradient></defs><title>PP</title><g style="isolation: isolate;"><g id="Layer_2" data-name="Layer 2"><path d="M322.36,222.62q-.32-.77-.63-1.54-.62-1.55-1.19-3.11a112.18,112.18,0,0,1-3.46-11.34A71.88,71.88,0,0,1,314.83,195c0,.23.22,1.72.1.7l-.1-.83q-.08-.62-.14-1.24-.16-1.45-.29-2.9-.25-2.9-.35-5.81a115.2,115.2,0,0,1,.19-11.85q.2-2.9.54-5.8c0-.41.1-.81.15-1.21l.05-.35q.22-1.44.47-2.87.93-5.24,2.35-10.38l51.84,29.31a9.28,9.28,0,0,1,0,16.25l-46.52,26.26-.62-1.33Z" fill="#96cf40"></path><path d="M209.43,139l-8.68,4.86c-1.55.87-3.08,1.75-4.64,2.6l-.5.26h-.05l-1.74-.95-4.09-2.28q-4.19-2.35-8.37-4.73Q172.88,134,164.48,129q-26.84-15.77-52.95-32.7l44.27-24.88a19.13,19.13,0,0,1,18.74,0l77.39,43.76-24.92,14Z" fill="#96cf40"></path><path d="M192.43,239.49a6.48,6.48,0,0,0,2.52-.27q12.17-3.87,24.3-7.86,41.16-13.53,81.84-28.4a116.39,116.39,0,0,0,9,28.64l-77.29,43.62a20.48,20.48,0,0,1-20.13,0l-23.51-13.36q1.49-9.66,2.83-19.35Q192.23,241,192.43,239.49Z" fill="#96cf40"></path><path d="M299.34,188.1q-11.31,4.14-22.66,8.19-40.88,14.55-82.23,27.77,4-31.76,6.39-63.67.76-.3,1.51-.65c3-1.42,5.86-3.22,8.75-4.84l9.15-5.12,17.83-10,28.8-16.13,37.62,21.27q-.86,2.73-1.58,5.5A121.26,121.26,0,0,0,299.34,188.1Z" fill="#96cf40"></path><path d="M18.67,148.5l78.45-44.08q15.66,10.28,31.59,20.15,7.7,4.77,15.47,9.44-7.93,4.76-15.83,9.56Q92.94,165.07,58,187.33L18.63,165A9.4,9.4,0,0,1,18.67,148.5Z" fill="#96cf40"></path><path d="M158.5,142.51l4.05,2.38q8.54,5,17.14,9.81c2.12,1.19,4.22,2.44,6.36,3.61q-.8,10.91-1.79,21.81-1.9,21-4.5,42-.64,5.21-1.33,10.41-.36,2.73-.73,5.46l0,.19-.14,1-.36,2.6q-.86,6.14-1.79,12.27l-103-58.48,3-1.92Q116.65,167.55,158.5,142.51Z" fill="#96cf40"></path><path d="M144.17,134q-7.76-4.67-15.47-9.44-15.93-9.87-31.59-20.15l14.42-8.1q26.1,16.92,52.95,32.7,8.4,4.94,16.87,9.76,4.18,2.38,8.37,4.73l4.09,2.28,1.74.95h.05l.5-.26c1.56-.85,3.1-1.73,4.64-2.6l8.68-4.86L227,129.18l24.92-14,14.93,8.44-28.8,16.13-17.83,10-9.15,5.12c-2.89,1.62-5.75,3.42-8.75,4.84q-.75.36-1.51.65-2.41,31.91-6.39,63.67,41.35-13.23,82.23-27.77,11.35-4,22.66-8.19a121.26,121.26,0,0,1,3.57-37.66q.72-2.77,1.58-5.5l13.31,7.53q-1.43,5.13-2.35,10.38-.25,1.43-.47,2.87l-.05.35c-.05.4-.11.81-.15,1.21q-.34,2.89-.54,5.8a115.2,115.2,0,0,0-.19,11.85q.1,2.91.35,5.81.12,1.45.29,2.9.07.62.14,1.24l.1.83c.12,1-.08-.47-.1-.7a71.88,71.88,0,0,0,2.25,11.64A112.18,112.18,0,0,0,320.54,218q.57,1.56,1.19,3.11.31.77.63,1.54l.14.33.62,1.33-13,7.33a116.39,116.39,0,0,1-9-28.64q-40.68,14.85-81.84,28.4-12.13,4-24.3,7.86a6.48,6.48,0,0,1-2.52.27q-.2,1.5-.41,3-1.34,9.68-2.83,19.35L175.4,254q.92-6.13,1.79-12.27l.36-2.6.14-1,0-.19q.37-2.73.73-5.46.69-5.2,1.33-10.41,2.59-21,4.5-42,1-10.9,1.79-21.81c-2.14-1.16-4.25-2.41-6.36-3.61q-8.61-4.85-17.14-9.81l-4.05-2.38q-41.84,25-83,51.1l-3,1.92L58,187.33q34.92-22.25,70.33-43.76Q136.24,138.76,144.17,134Z" fill="#96cf40"></path><polygon points="271.28 253.53 53.67 127.74 111.43 95.28 331.57 219.5 271.28 253.53" fill="#fafae2"></polygon><path d="M178.42,110.33l-8.6-8.11-39.91,18.85c4.09,2.09,10,5.7,15.79,9.06A291.25,291.25,0,0,0,178.42,110.33Z" opacity="0.68" fill="url(#linear-gradient)" style="mix-blend-mode: multiply;"></path><rect x="169.85" y="29.35" width="3.28" height="78.62" fill="#404048"></rect><circle cx="171.23" cy="27.43" r="9.75" fill="#68e1fd"></circle><circle cx="166.83" cy="23.71" r="2.02" fill="#fff"></circle><path d="M178.63,21.09a9.66,9.66,0,0,1-4.93,12.09A9.1,9.1,0,0,1,162.16,31a9.75,9.75,0,1,0,16.48-9.88Z" fill="#3e3e4a" opacity="0.4"></path><path d="M175.45,87.92,179,109.3s-2.11,1.38-8.71,1.61-6.27-2-6.27-2l3.51-21Z" fill="#3e3e4a"></path><ellipse cx="171.49" cy="87.92" rx="3.96" ry="1.99" fill="#55555f"></ellipse><ellipse cx="171.49" cy="109.45" rx="7.52" ry="3.78" fill="#3e3e4a"></ellipse><path d="M327.66,191.39l-5.5-7.08-41.92,18.85c4.09,2.09,10,5.7,15.79,9.06C307.39,206.4,317.16,198.65,327.66,191.39Z" opacity="0.68" fill="url(#linear-gradient-2)" style="mix-blend-mode: multiply;"></path><rect x="317.72" y="123.73" width="10.33" height="68.49" rx="2.01" ry="2.01" fill="#bc532a"></rect><path d="M348.4,137.74c-2.38-10.34-13-55.88-31.72-42.49-9.61,6.86-12.32,17.58-16.17,28.06-3.18,8.68-5.83,17.82-6,27.13-.3,19,19,21.27,33.72,21.2,8.51,0,20.64-5.06,22.62-14.29,1.2-5.57-.84-12.14-2-17.59Q348.63,138.74,348.4,137.74Z" fill="#2c9135"></path><path d="M349.3,139.75q-.22-1-.45-2c-2.11-9.14-10.63-45.81-25.54-44.91,4.43,19.33,11,39.75,7.48,59.53a45.24,45.24,0,0,1-7.89,19.15c2,.1,3.94.13,5.82.12,8.51,0,20.64-5.06,22.62-14.29C352.53,151.77,350.49,145.2,349.3,139.75Z" fill="#156819"></path><path d="M183.46,146.44c-1-.1-10.39-4.31-23.77-5.69,0,0-4.29,2.48-2.43,5.13s16.69,10.49,30.27,10.58" fill="#ffb288"></path><path d="M162.39,140.82a.58.58,0,0,1,.19,0,23.13,23.13,0,0,0-1.11-2.1c-1-1.57-3.45-3.13-4.77-1.46s-4.59,4.95-7.13,7.48-3.65,9-1.59,9.65,5.56-1.89,7.19-3.36c1.21-1.1,2.95-2.88,3.75-3.71A5.72,5.72,0,0,1,162.39,140.82Z" fill="#29333f"></path><path d="M223.29,154.66s-.64,40.57-2.18,41.23-5.46.6-6.91-1.34-3.3-19.49-3-24.37,2.24-15.83,2.24-15.83" fill="#ffb288"></path><path d="M223.84,198.13a12.57,12.57,0,0,1-1.82-4.74c-3.2.8-5.7,1.28-8.4-.36-.53,2.3-2.38,5.19-2.25,7,.21,2.81,2.59,1.9,5,2.63,1.67.51,2.87,2.24,3.89,3.83a11,11,0,0,0,12.84,2.41,6.63,6.63,0,0,0,.53-2.12C233.93,203.5,225.55,200.59,223.84,198.13Z" fill="#29333f"></path><path d="M190.56,115.72c-1.73.82-4,8.86-6.33,17.78s-3.75,18.37-3.75,18.37,3.38,4.62,8.83,4.72,12.15-22.7,12.15-22.7,7.47,24.27,10.05,24.94,11.78-4.17,11.78-4.17-2.56-36.41-15.7-42.3" fill="#68e1fd"></path><path d="M190.56,115.72c-1.73.82-4,8.86-6.33,17.78s-3.75,18.37-3.75,18.37,3.38,4.62,8.83,4.72,12.15-22.7,12.15-22.7,7.47,24.27,10.05,24.94,11.78-4.17,11.78-4.17-2.56-36.41-15.7-42.3" fill="#29333f" opacity="0.31"></path><path d="M214,92.21s2.38,2.51,3.81,2.77,4.17-.72,5.31.53a4.93,4.93,0,0,1,1.46,4.3c-.39,1.35-1.88,5-3.24,4.72s-4.22-.8-4.25-2.31S214.38,98,214.38,98" fill="#ffb288"></path><path d="M187.63,87.63s4.28-5,7-6.18c4.57-2.08,10.7-3.13,11.93-3s5.84,1.11,6.69,4.18,2.84,11.12,1.47,18.42a125.69,125.69,0,0,0-1.63,16.37s-4.87,5-12,4.32a15,15,0,0,1-10.55-6l-1.18-21.33" fill="#68e1fd"></path><path d="M176.48,113a4.87,4.87,0,0,1-.35-4.41c2.43-5.88,9.64-22.42,13.72-22a6.87,6.87,0,0,1,5.67,10.13c-2.31,4.93-12,11.1-10.56,14s8,11.88,9.67,11.74,4.8-.11,6.35.64,2,2.62,1.91,4.13-3.79,5.24-5.64,5.51-5.07-4-5.29-4.78S180.78,120.06,176.48,113Z" fill="#ffb288"></path><path d="M211.78,73.86a11.13,11.13,0,0,0,5.3-5.82c1.58-4.16-2.52-7-4.9-7.49,0,0,1.2,1.24,1.25,1.86,0,0-1.34-2.8-6.27-2.79s-.79,1.64-.79,1.64-4.65-1.63-7.45-1.37-4.37,1.25-4,1.78,1.48.34,1.85.72-2.83,1.53-3.24,2.73,1.69,2.45,1.47,2.71-2.36-1.3-2.57-.86,2.42,11,9.94,12" fill="#a0421d"></path><path d="M213.24,69.41a.55.55,0,0,0-.24,0,19.62,19.62,0,0,1-4.31-.32c-1.39-.35-2.72-.9-4.11-1.25-.92-.23-2.13,1.76-2.89,4.4-.47-.52-1.14-.89-1.81-.36a1.83,1.83,0,0,0-.17,2.4,3.55,3.55,0,0,0,1.35,1.25,6.74,6.74,0,0,0,3.7,7c2.37,1.08,4.28.07,5.57-1.84a22.69,22.69,0,0,0,3.18-8.4l.33-1.44a1.53,1.53,0,0,0-.43-1.24A.53.53,0,0,0,213.24,69.41Z" fill="#ffb288"></path><path d="M213,68.23s-7.18,5.86-10.85,4.15,2.25-6.16,2.25-6.16" fill="#a0421d"></path><path d="M231.39,208.13l-10.46-9.86L172.37,221.2c5,2.55,12.22,6.93,19.21,11A354.34,354.34,0,0,0,231.39,208.13Z" opacity="0.68" fill="url(#linear-gradient-3)" style="mix-blend-mode: multiply;"></path><path d="M44.36,179.57c5.32-3.14,6.26-3.94,11.35-7.45l-4.41-7.94-18.21,8.6C36.21,175.44,41.14,177,44.36,179.57Z" opacity="0.68" fill="url(#linear-gradient-4)" style="mix-blend-mode: multiply;"></path><rect x="48.17" y="123.91" width="7.54" height="49.95" rx="1.74" ry="1.74" fill="#bc532a"></rect><path d="M70.54,134.13c-1.74-7.54-9.45-40.76-23.14-31-7,5-9,12.82-11.79,20.47-2.32,6.33-4.25,13-4.36,19.79-.22,13.82,13.84,15.51,24.6,15.46,6.2,0,15.05-3.69,16.5-10.42.87-4.06-.61-8.85-1.48-12.83Q70.71,134.86,70.54,134.13Z" fill="#2c9135"></path><path d="M71.2,135.59q-.16-.73-.33-1.47c-1.54-6.67-7.75-33.41-18.63-32.75,3.23,14.1,8,29,5.45,43.42a33,33,0,0,1-5.75,14c1.44.07,2.87.09,4.24.09,6.2,0,15.05-3.69,16.5-10.42C73.55,144.36,72.06,139.57,71.2,135.59Z" fill="#156819"></path></g></g></svg>