<svg xmlns="http://www.w3.org/2000/svg" xmlns:xlink="http://www.w3.org/1999/xlink" viewBox="0 0 400 300" width="406" height="306" class="illustration styles_illustrationTablet__1DWOa"><defs><linearGradient id="linear-gradient" x1="277.17" y1="190.37" x2="234.44" y2="231.29" gradientUnits="userSpaceOnUse"><stop offset="0" stop-color="#d4a397"></stop><stop offset="1" stop-color="#fff"></stop></linearGradient><linearGradient id="linear-gradient-2" x1="157.37" y1="191.35" x2="119.47" y2="227.64" xlink:href="#linear-gradient"></linearGradient><linearGradient id="linear-gradient-3" x1="164.74" y1="211.59" x2="252.67" y2="107.33" gradientUnits="userSpaceOnUse"><stop offset="0" stop-opacity="0"></stop><stop offset="1" stop-color="#935a24"></stop></linearGradient><linearGradient id="linear-gradient-4" x1="350.54" y1="176.11" x2="339.68" y2="189.68" xlink:href="#linear-gradient"></linearGradient><linearGradient id="linear-gradient-5" x1="184.01" y1="71.48" x2="177.63" y2="79.46" xlink:href="#linear-gradient"></linearGradient><linearGradient id="linear-gradient-6" x1="221.02" y1="74.29" x2="214.64" y2="82.27" xlink:href="#linear-gradient"></linearGradient></defs><title>PP</title><g style="isolation: isolate;"><g id="Layer_2" data-name="Layer 2"><path d="M191.68,281.24,14.88,176.75c-5.63-3.16-10.46-8.35-5-11.75L187.35,62.74c2.66-1.65,6.7-2.73,9.41-1.16L382.34,169.29c5.63,3.27,6.64,12.4,1,15.67L215,281.07A23.51,23.51,0,0,1,191.68,281.24Z" fill="#928ee8"></path><path d="M220.6,231.5q3.72,1.6,7.35,3.33c3.47,1.52-5.63,11.47-2.15,13,15.81-9.53,55.12-26,71.32-34.82-12.21-5.88-33.22-12.76-38.78-17.64-19.07,7.76-37.84,16.24-56.35,25.29A109.36,109.36,0,0,0,220.6,231.5Z" fill="url(#linear-gradient)" style="mix-blend-mode: multiply;"></path><path d="M108.71,230.62q3.72,1.6,7.35,3.33c3.47,1.52,7,3,10.46,4.5q23.71-14.29,48-27.56C162.35,205,152,199.35,146.44,194.48c-19.07,7.76-37.84,16.24-56.35,25.29A109.36,109.36,0,0,0,108.71,230.62Z" fill="url(#linear-gradient-2)" style="mix-blend-mode: multiply;"></path><path d="M211.43,166c-21-4.5-44.08-5-63.84,4.31L97.31,201.1c7,5.73,58.27,32.29,66,37l99-51.73A157.62,157.62,0,0,0,211.43,166Z" fill="url(#linear-gradient-3)"></path><rect x="141.6" y="86.31" width="8.7" height="100.97" rx="2.26" ry="2.26" transform="translate(38.49 -31.93) rotate(14.36)" fill="#d37e6a"></rect><rect x="191.51" y="114.49" width="8.7" height="100.97" rx="2.26" ry="2.26" fill="#d37e6a"></rect><rect x="244.54" y="86.72" width="8.7" height="100.97" rx="2.26" ry="2.26" transform="translate(-24.21 58.56) rotate(-12.8)" fill="#d37e6a"></rect><ellipse cx="196.7" cy="98.94" rx="62.18" ry="35.09" fill="#ce4823"></ellipse><ellipse cx="196.7" cy="92.91" rx="62.18" ry="35.09" fill="#d66449"></ellipse><path d="M347.13,174.33l-20.54,11.25s.68,10.33,13.15,8.73L362.2,182" fill="url(#linear-gradient-4)" style="mix-blend-mode: multiply;"></path><path d="M355,140.31c-.65,0-8.45.22-9.54-5s-.63-8.07-4.33-8.24c-4.59-.2-4.33,7.25-3.68,10.78s5.06,8.29,12.61,8.94,9.92,0,9.92,0" fill="#244b0c"></path><path d="M338.25,158.58s-.91,25.84,16.77,25.83c14.7,0,15.41-25.83,15.41-25.83" fill="#e2cfc9"></path><path d="M343.89,158.58h-5.63s-.91,25.84,16.77,25.83c.37,0,.73,0,1.09-.05C347,179.82,342.59,168.72,343.89,158.58Z" fill="#af9891"></path><ellipse cx="354.35" cy="158.16" rx="16.09" ry="6.06" fill="#093e3e"></ellipse><path d="M349.6,156.65V127.4s0-8.45,4.74-9.54,4.79,10.62,4.79,10.62v28.17S355.87,159.78,349.6,156.65Z" fill="#55823d"></path><path d="M356.31,158.08v-15.8s0-4.56,3.6-5.15,3.64,5.73,3.64,5.73v15.21S361.08,159.77,356.31,158.08Z" fill="#4c6338"></path><ellipse cx="165.93" cy="93.66" rx="26.48" ry="14.65" fill="#68e1fd"></ellipse><ellipse cx="165.93" cy="93.66" rx="26.48" ry="14.65" fill="#093e3e" opacity="0.29"></ellipse><ellipse cx="165.93" cy="92.07" rx="26.48" ry="14.65" fill="#68e1fd"></ellipse><ellipse cx="165.93" cy="91.94" rx="18.4" ry="9.41" fill="#093e3e" opacity="0.29"></ellipse><path d="M159.6,97.68l.59.11L160,96.56a11.2,11.2,0,0,1-2.33-.71,26,26,0,0,1-5-2,10.12,10.12,0,0,1-1-.56c-1.43-.38-2.73-1.9-2.47-.05a4.5,4.5,0,0,0,1.12,2.26q2,.57,4,1.07C156.07,96.86,157.84,97.26,159.6,97.68Z" fill="#99ce45"></path><path d="M160.33,98.9l-.07-.57-.62-.15-9.87-1.78c-1.07.32-2.94.14-2,1.17.83.87,2.12.71,2.48,1q1.37.16,2.75.23C155.46,98.71,157.89,98.79,160.33,98.9Z" fill="#99ce45"></path><path d="M160.07,100l.39,0-.06-.52a.22.22,0,0,1-.19.12l-10.37.24c-.79.78-1.75.82-.25,1.12a7.91,7.91,0,0,1,2,.42l8.24-1.39A.24.24,0,0,1,160.07,100Z" fill="#99ce45"></path><path d="M160,95.91l0-.21a.2.2,0,0,1-.31,0c-1.2-1.41-2.74-2.53-3.75-4.08a1.6,1.6,0,0,1-.42-.12c-1.47-.6-1.92-1.2-2.54-.22-.41.65,0,1.41-.08,1.8a38.49,38.49,0,0,0,6.71,2.76Z" fill="#99ce45"></path><path d="M159.78,94.48s-.26-3.83-2.05-4c-.87-.08-1.09.3-1.25.64,1.12,1.39,2.26,2.76,3.4,4.14Z" fill="#99ce45"></path><path d="M160.44,100.79l.11-.07v-.09l-.16.11Z" fill="#99ce45"></path><path d="M160,100.43l-.53.06a32.92,32.92,0,0,0-7.89,3.1c.07.3.35.36,1,.27,1.12-.16,2.45-1.63,2.84-.77.77-.53,1.66-.88,2.47-1.33S159.3,100.9,160,100.43Z" fill="#99ce45"></path><path d="M151.81,102.7a.22.22,0,0,1-.16,0l0,.2.37-.24Z" fill="#99ce45"></path><path d="M159.62,95.69a.2.2,0,0,0,.31,0l-.05-.43c-1.14-1.38-2.28-2.75-3.4-4.14-.13.28-.23.53-.61.48C156.88,93.16,158.42,94.28,159.62,95.69Z" fill="#88b72c"></path><path d="M157.7,95.85a11.2,11.2,0,0,0,2.33.71l-.08-.64-.42-.09a38.49,38.49,0,0,1-6.71-2.76c-.06.19-.26.3-.79.26a2.38,2.38,0,0,1-.42-.07,10.12,10.12,0,0,0,1,.56A26,26,0,0,0,157.7,95.85Z" fill="#88b72c"></path><path d="M160.26,98.33l-.07-.53-.59-.11c-1.77-.42-3.54-.83-5.32-1.17q-2-.49-4-1.07c.21.29.26.5-.07.74a1.44,1.44,0,0,1-.44.2l9.87,1.78Z" fill="#88b72c"></path><path d="M160.39,99.38l-.06-.49c-2.44-.1-4.87-.19-7.3-.06q-1.38-.08-2.75-.23c.13.12.13.32-.07.66a2.49,2.49,0,0,1-.39.49l10.37-.24A.22.22,0,0,0,160.39,99.38Z" fill="#88b72c"></path><path d="M160.57,100.87l0-.15-.11.07-.06-.05.16-.11-.09-.72-.39,0a.24.24,0,0,0-.2-.06l-8.24,1.39c.22.16.26.44.12,1l-.09.4a.22.22,0,0,0,.16,0l.17,0-.37.24a1.77,1.77,0,0,0,0,.69,32.92,32.92,0,0,1,7.89-3.1l.53-.06c-.69.47-1.4.91-2.14,1.32s-1.7.8-2.47,1.33l0,0C155.77,104.07,160.57,100.87,160.57,100.87Z" fill="#88b72c"></path><ellipse cx="152.88" cy="96.14" rx="4.34" ry="2" fill="#d84027"></ellipse><ellipse cx="152.88" cy="95.57" rx="4.34" ry="2" fill="#ea6453"></ellipse><path d="M149.88,95.73a4.82,4.82,0,0,0,3.46,1.12,3.13,3.13,0,0,0,3-1.73Z" fill="#d84027"></path><path d="M149.59,95.41,156,94.7a15.48,15.48,0,0,0-3.82-.55A4.08,4.08,0,0,0,149.59,95.41Z" fill="#d84027"></path><path d="M150.17,95.7a.12.12,0,0,0,0,.24A.12.12,0,0,0,150.17,95.7Z" fill="#f9b2ac"></path><path d="M151.87,96.5a.12.12,0,0,0,0,.24A.12.12,0,0,0,151.87,96.5Z" fill="#f9b2ac"></path><path d="M153.09,96.45a.12.12,0,0,0,0,.24A.12.12,0,0,0,153.09,96.45Z" fill="#f9b2ac"></path><path d="M152.07,95.63a.12.12,0,0,0,0,.24A.12.12,0,0,0,152.07,95.63Z" fill="#f9b2ac"></path><path d="M150.9,94.88a.12.12,0,0,0,0,.24A.12.12,0,0,0,150.9,94.88Z" fill="#f9b2ac"></path><path d="M152.31,94.19a.12.12,0,0,0,0,.24A.12.12,0,0,0,152.31,94.19Z" fill="#f9b2ac"></path><path d="M152.14,94.51a.12.12,0,0,0,0,.24A.12.12,0,0,0,152.14,94.51Z" fill="#f9b2ac"></path><path d="M150.83,94.32a.12.12,0,0,0,0,.24A.12.12,0,0,0,150.83,94.32Z" fill="#f9b2ac"></path><path d="M149.54,95.22a.12.12,0,0,0,0,.24A.12.12,0,0,0,149.54,95.22Z" fill="#f9b2ac"></path><path d="M154.21,96.46a.12.12,0,0,0,0,.24A.12.12,0,0,0,154.21,96.46Z" fill="#f9b2ac"></path><path d="M155.23,95.56a.12.12,0,0,0,0,.24A.12.12,0,0,0,155.23,95.56Z" fill="#f9b2ac"></path><path d="M153.51,95.82a.12.12,0,0,0,0,.24A.12.12,0,0,0,153.51,95.82Z" fill="#f9b2ac"></path><path d="M153.94,94.44a.12.12,0,0,0,0,.24A.12.12,0,0,0,153.94,94.44Z" fill="#f9b2ac"></path><path d="M155.21,94.73a.12.12,0,0,0,0,.24A.12.12,0,0,0,155.21,94.73Z" fill="#f9b2ac"></path><path d="M146.4,96.68v.92l2.15-.92v-.81s-.81-3,1.25-3.74,4.8,1.33,4.8,1.33l2.2-.78.09-.88a21.57,21.57,0,0,0-4.62-.73,16.57,16.57,0,0,0-3.43.8" fill="#a5d139"></path><path d="M146.4,96.68l2.15-.81s-.81-3,1.59-3.9,4.57.22,4.66.7l2.1-.88a6.84,6.84,0,0,0-7.09-1.25A5.15,5.15,0,0,0,146.4,96.68Z" fill="#c7ff5a"></path><path d="M146.72,94.26v.92l2.15-.92v-.81s-.81-3,1.25-3.74,4.8,1.33,4.8,1.33l2.2-.78.09-.88a21.57,21.57,0,0,0-4.62-.73,16.57,16.57,0,0,0-3.43.8" fill="#a5d139"></path><path d="M146.72,94.26l2.15-.81s-.81-3,1.59-3.9,4.57.22,4.66.7l2.1-.88a6.84,6.84,0,0,0-7.09-1.25A5.15,5.15,0,0,0,146.72,94.26Z" fill="#c7ff5a"></path><path d="M147.25,90.95l-.14.91,2.26-.59.12-.81s-.36-3.07,1.8-3.52,4.55,2,4.55,2l2.3-.45.22-.85a21.57,21.57,0,0,0-4.46-1.41,16.57,16.57,0,0,0-3.51.28" fill="#a5d139"></path><path d="M147.25,90.95l2.25-.48s-.36-3.06,2.15-3.62,4.48.9,4.5,1.39l2.2-.55a6.84,6.84,0,0,0-6.82-2.3A5.15,5.15,0,0,0,147.25,90.95Z" fill="#c7ff5a"></path><path d="M147.94,87.7l-.22.9,2.31-.39.19-.79s-.08-3.09,2.1-3.34,4.35,2.42,4.35,2.42l2.33-.24.29-.83a21.57,21.57,0,0,0-4.32-1.8,16.57,16.57,0,0,0-3.52,0" fill="#a5d139"></path><path d="M147.94,87.7l2.28-.28s-.09-3.08,2.47-3.42,4.38,1.29,4.36,1.78l2.24-.36a6.84,6.84,0,0,0-6.59-2.89A5.15,5.15,0,0,0,147.94,87.7Z" fill="#c7ff5a"></path><ellipse cx="150.71" cy="92.55" rx="4.34" ry="2" fill="#d84027"></ellipse><ellipse cx="150.71" cy="91.97" rx="4.34" ry="2" fill="#ea6453"></ellipse><path d="M147.7,92.14a4.82,4.82,0,0,0,3.46,1.12,3.13,3.13,0,0,0,3-1.73Z" fill="#d84027"></path><path d="M147.42,91.81l6.44-.71a15.48,15.48,0,0,0-3.82-.55A4.08,4.08,0,0,0,147.42,91.81Z" fill="#d84027"></path><path d="M148,92.11a.12.12,0,0,0,0,.24A.12.12,0,0,0,148,92.11Z" fill="#f9b2ac"></path><path d="M149.7,92.91a.12.12,0,0,0,0,.24A.12.12,0,0,0,149.7,92.91Z" fill="#f9b2ac"></path><path d="M150.91,92.86a.12.12,0,0,0,0,.24A.12.12,0,0,0,150.91,92.86Z" fill="#f9b2ac"></path><path d="M149.89,92a.12.12,0,0,0,0,.24A.12.12,0,0,0,149.89,92Z" fill="#f9b2ac"></path><path d="M148.72,91.28a.12.12,0,0,0,0,.24A.12.12,0,0,0,148.72,91.28Z" fill="#f9b2ac"></path><path d="M150.13,90.6a.12.12,0,0,0,0,.24A.12.12,0,0,0,150.13,90.6Z" fill="#f9b2ac"></path><path d="M150,90.91a.12.12,0,0,0,0,.24A.12.12,0,0,0,150,90.91Z" fill="#f9b2ac"></path><path d="M148.65,90.72a.12.12,0,0,0,0,.24A.12.12,0,0,0,148.65,90.72Z" fill="#f9b2ac"></path><path d="M147.36,91.62a.12.12,0,0,0,0,.24A.12.12,0,0,0,147.36,91.62Z" fill="#f9b2ac"></path><path d="M152,92.86a.12.12,0,0,0,0,.24A.12.12,0,0,0,152,92.86Z" fill="#f9b2ac"></path><path d="M153.06,92a.12.12,0,0,0,0,.24A.12.12,0,0,0,153.06,92Z" fill="#f9b2ac"></path><path d="M151.33,92.23a.12.12,0,0,0,0,.24A.12.12,0,0,0,151.33,92.23Z" fill="#f9b2ac"></path><path d="M151.77,90.84a.12.12,0,0,0,0,.24A.12.12,0,0,0,151.77,90.84Z" fill="#f9b2ac"></path><path d="M153,91.13a.12.12,0,0,0,0,.24A.12.12,0,0,0,153,91.13Z" fill="#f9b2ac"></path><ellipse cx="150.1" cy="89.47" rx="1.68" ry="3.66" transform="translate(41.5 226.37) rotate(-82.38)" fill="#d84027"></ellipse><ellipse cx="150.16" cy="88.99" rx="1.68" ry="3.66" transform="translate(42.04 226.02) rotate(-82.38)" fill="#ea6453"></ellipse><path d="M147.63,88.8a4.06,4.06,0,0,0,2.76,1.32A2.64,2.64,0,0,0,153.08,89Z" fill="#d84027"></path><path d="M147.43,88.49l5.45.13a13,13,0,0,0-3.12-.89A3.44,3.44,0,0,0,147.43,88.49Z" fill="#d84027"></path><path d="M147.88,88.8a.1.1,0,0,0,0,.2A.1.1,0,0,0,147.88,88.8Z" fill="#f9b2ac"></path><path d="M149.21,89.66a.1.1,0,0,0,0,.2A.1.1,0,0,0,149.21,89.66Z" fill="#f9b2ac"></path><path d="M150.23,89.76a.1.1,0,0,0,0,.2A.1.1,0,0,0,150.23,89.76Z" fill="#f9b2ac"></path><path d="M149.47,89a.1.1,0,0,0,0,.2A.1.1,0,0,0,149.47,89Z" fill="#f9b2ac"></path><path d="M148.58,88.19a.1.1,0,0,0,0,.2A.1.1,0,0,0,148.58,88.19Z" fill="#f9b2ac"></path><path d="M149.83,87.78a.1.1,0,0,0,0,.2A.1.1,0,0,0,149.83,87.78Z" fill="#f9b2ac"></path><path d="M149.66,88a.1.1,0,0,0,0,.2A.1.1,0,0,0,149.66,88Z" fill="#f9b2ac"></path><path d="M148.58,87.72a.1.1,0,0,0,0,.2A.1.1,0,0,0,148.58,87.72Z" fill="#f9b2ac"></path><path d="M147.41,88.33a.1.1,0,0,0,0,.2A.1.1,0,0,0,147.41,88.33Z" fill="#f9b2ac"></path><path d="M151.17,89.88a.1.1,0,0,0,0,.2A.1.1,0,0,0,151.17,89.88Z" fill="#f9b2ac"></path><path d="M152.12,89.25a.1.1,0,0,0,0,.2A.1.1,0,0,0,152.12,89.25Z" fill="#f9b2ac"></path><path d="M150.65,89.28a.1.1,0,0,0,0,.2A.1.1,0,0,0,150.65,89.28Z" fill="#f9b2ac"></path><path d="M151.17,88.17a.1.1,0,0,0,0,.2A.1.1,0,0,0,151.17,88.17Z" fill="#f9b2ac"></path><path d="M152.19,88.55a.1.1,0,0,0,0,.2A.1.1,0,0,0,152.19,88.55Z" fill="#f9b2ac"></path><ellipse cx="180.75" cy="92.29" rx="3.81" ry="3.15" transform="translate(-14.62 37.34) rotate(-11.34)" fill="#7ea83b"></ellipse><polyline points="177.08 93.28 176.82 92.06 184.25 90.43 184.53 91.81" fill="#7ea83b"></polyline><ellipse cx="180.58" cy="91.43" rx="3.81" ry="3.15" transform="translate(-14.45 37.29) rotate(-11.34)" fill="#a2cb6b"></ellipse><ellipse cx="180.58" cy="91.43" rx="3.33" ry="2.75" transform="translate(-14.45 37.29) rotate(-11.34)" fill="#ecffcf"></ellipse><path d="M178.25,91.51l-.33.06a.24.24,0,0,0-.15.3.24.24,0,0,0,.3.15l.33-.06a.24.24,0,0,0,.15-.3A.24.24,0,0,0,178.25,91.51Z" fill="#b5e47c"></path><path d="M179,92.52a.24.24,0,0,1-.11.11.24.24,0,0,0-.15.3.24.24,0,0,0,.3.15.76.76,0,0,0,.38-.34A.24.24,0,0,0,179,92.52Z" fill="#b5e47c"></path><path d="M179.83,93.06a.54.54,0,0,0,0,.22c0,.3.5.28.47,0a.16.16,0,0,1,0-.09.24.24,0,0,0-.18-.28A.24.24,0,0,0,179.83,93.06Z" fill="#b5e47c"></path><path d="M181.5,92.79a.24.24,0,0,0-.23.25.54.54,0,0,0,.17.34c.23.2.55-.14.32-.34l0,0h0A.24.24,0,0,0,181.5,92.79Z" fill="#b5e47c"></path><path d="M182,92.57a1.59,1.59,0,0,0,.33.22c.27.13.5-.28.22-.41a1.07,1.07,0,0,1-.23-.15C182.07,92,181.74,92.37,182,92.57Z" fill="#b5e47c"></path><path d="M183,91.36a.48.48,0,0,1-.21,0c-.29-.09-.39.37-.11.46a.84.84,0,0,0,.34,0,.24.24,0,0,0,.23-.25A.24.24,0,0,0,183,91.36Z" fill="#b5e47c"></path><path d="M183,90.27l-.19,0a.24.24,0,0,0,0,.47,1.29,1.29,0,0,0,.31,0C183.43,90.64,183.29,90.19,183,90.27Z" fill="#b5e47c"></path><path d="M182.22,89.36a.24.24,0,0,0-.23.25.18.18,0,0,1,0,.06c-.16.26.26.48.41.22a.65.65,0,0,0,.09-.31A.24.24,0,0,0,182.22,89.36Z" fill="#b5e47c"></path><path d="M180.7,89l0,.35a.24.24,0,0,0,.18.28.24.24,0,0,0,.28-.18l0-.35a.24.24,0,0,0-.18-.28A.24.24,0,0,0,180.7,89Z" fill="#b5e47c"></path><path d="M179.55,89.26a.24.24,0,0,0-.15.3l.09.22a.24.24,0,0,0,.3.15.24.24,0,0,0,.15-.3l-.09-.22A.24.24,0,0,0,179.55,89.26Z" fill="#b5e47c"></path><path d="M178.48,90.29l.19.16c.23.2.55-.15.32-.34l-.19-.16C178.57,89.75,178.25,90.1,178.48,90.29Z" fill="#b5e47c"></path><path d="M180,90.5c-.32.05-.71.18-.81.53a.51.51,0,0,0,.09.46v0a.49.49,0,0,0,.12.19,1.15,1.15,0,0,0,.91.51,1.08,1.08,0,0,0,1-.47.46.46,0,0,0,0-.15l.05-.11C181.75,90.61,180.58,90.4,180,90.5Z" fill="#fefffd"></path><ellipse cx="180.46" cy="87.73" rx="3.81" ry="3.15" transform="translate(-13.73 37.19) rotate(-11.34)" fill="#7ea83b"></ellipse><polyline points="176.79 88.72 176.54 87.5 183.97 85.88 184.24 87.25" fill="#7ea83b"></polyline><ellipse cx="180.29" cy="86.87" rx="3.81" ry="3.15" transform="translate(-13.56 37.14) rotate(-11.34)" fill="#a2cb6b"></ellipse><ellipse cx="180.29" cy="86.87" rx="3.33" ry="2.75" transform="translate(-13.56 37.14) rotate(-11.34)" fill="#ecffcf"></ellipse><path d="M178,87l-.33.06a.24.24,0,0,0-.15.3.24.24,0,0,0,.3.15l.33-.06a.24.24,0,0,0,.15-.3A.24.24,0,0,0,178,87Z" fill="#b5e47c"></path><path d="M178.69,88a.24.24,0,0,1-.11.11.24.24,0,0,0-.15.3.24.24,0,0,0,.3.15.76.76,0,0,0,.38-.34A.24.24,0,0,0,178.69,88Z" fill="#b5e47c"></path><path d="M179.54,88.51a.54.54,0,0,0,0,.22c0,.3.5.28.47,0a.16.16,0,0,1,0-.09.24.24,0,0,0-.18-.28A.24.24,0,0,0,179.54,88.51Z" fill="#b5e47c"></path><path d="M181.21,88.24a.24.24,0,0,0-.23.25.54.54,0,0,0,.17.34c.23.2.55-.14.32-.34l0,0h0A.24.24,0,0,0,181.21,88.24Z" fill="#b5e47c"></path><path d="M181.69,88a1.59,1.59,0,0,0,.33.22c.27.13.5-.28.22-.41a1.07,1.07,0,0,1-.23-.15C181.78,87.47,181.46,87.81,181.69,88Z" fill="#b5e47c"></path><path d="M182.7,86.8a.48.48,0,0,1-.21,0c-.29-.09-.39.37-.11.46a.84.84,0,0,0,.34,0,.24.24,0,0,0,.23-.25A.24.24,0,0,0,182.7,86.8Z" fill="#b5e47c"></path><path d="M182.72,85.72l-.19,0a.24.24,0,0,0,0,.47,1.29,1.29,0,0,0,.31,0C183.15,86.09,183,85.64,182.72,85.72Z" fill="#b5e47c"></path><path d="M181.93,84.81a.24.24,0,0,0-.23.25.18.18,0,0,1,0,.06c-.16.26.26.48.41.22a.65.65,0,0,0,.09-.31A.24.24,0,0,0,181.93,84.81Z" fill="#b5e47c"></path><path d="M180.41,84.46l0,.35a.24.24,0,0,0,.18.28.24.24,0,0,0,.28-.18l0-.35a.24.24,0,0,0-.18-.28A.24.24,0,0,0,180.41,84.46Z" fill="#b5e47c"></path><path d="M179.27,84.71a.24.24,0,0,0-.15.3l.09.22a.24.24,0,0,0,.3.15.24.24,0,0,0,.15-.3l-.09-.22A.24.24,0,0,0,179.27,84.71Z" fill="#b5e47c"></path><path d="M178.2,85.74l.19.16c.23.2.55-.15.32-.34l-.19-.16C178.29,85.2,178,85.54,178.2,85.74Z" fill="#b5e47c"></path><path d="M179.69,85.95c-.32.05-.71.18-.81.53a.51.51,0,0,0,.09.46v0a.49.49,0,0,0,.12.19,1.15,1.15,0,0,0,.91.51,1.08,1.08,0,0,0,1-.47.46.46,0,0,0,0-.15l.05-.11C181.47,86.06,180.29,85.85,179.69,85.95Z" fill="#fefffd"></path><ellipse cx="176.98" cy="84.43" rx="3.81" ry="3.15" transform="translate(-13.14 36.44) rotate(-11.34)" fill="#7ea83b"></ellipse><polyline points="173.3 85.42 173.05 84.2 180.48 82.58 180.75 83.95" fill="#7ea83b"></polyline><ellipse cx="176.81" cy="83.57" rx="3.81" ry="3.15" transform="translate(-12.98 36.39) rotate(-11.34)" fill="#a2cb6b"></ellipse><ellipse cx="176.81" cy="83.57" rx="3.33" ry="2.75" transform="translate(-12.98 36.39) rotate(-11.34)" fill="#ecffcf"></ellipse><path d="M174.47,83.65l-.33.06a.24.24,0,0,0-.15.3.24.24,0,0,0,.3.15l.33-.06a.24.24,0,0,0,.15-.3A.24.24,0,0,0,174.47,83.65Z" fill="#b5e47c"></path><path d="M175.21,84.67a.24.24,0,0,1-.11.11.24.24,0,0,0-.15.3.24.24,0,0,0,.3.15.76.76,0,0,0,.38-.34A.24.24,0,0,0,175.21,84.67Z" fill="#b5e47c"></path><path d="M176.05,85.2a.54.54,0,0,0,0,.22c0,.3.5.28.47,0a.16.16,0,0,1,0-.09.24.24,0,0,0-.18-.28A.24.24,0,0,0,176.05,85.2Z" fill="#b5e47c"></path><path d="M177.73,84.94a.24.24,0,0,0-.23.25.54.54,0,0,0,.17.34c.23.2.55-.14.32-.34l0,0h0A.24.24,0,0,0,177.73,84.94Z" fill="#b5e47c"></path><path d="M178.2,84.71a1.59,1.59,0,0,0,.33.22c.27.13.5-.28.22-.41a1.07,1.07,0,0,1-.23-.15C178.29,84.17,178,84.51,178.2,84.71Z" fill="#b5e47c"></path><path d="M179.21,83.5a.48.48,0,0,1-.21,0c-.29-.09-.39.37-.11.46a.84.84,0,0,0,.34,0,.24.24,0,0,0,.23-.25A.24.24,0,0,0,179.21,83.5Z" fill="#b5e47c"></path><path d="M179.23,82.42l-.19,0a.24.24,0,0,0,0,.47,1.29,1.29,0,0,0,.31,0C179.66,82.79,179.52,82.34,179.23,82.42Z" fill="#b5e47c"></path><path d="M178.44,81.51a.24.24,0,0,0-.23.25.18.18,0,0,1,0,.06c-.16.26.26.48.41.22a.65.65,0,0,0,.09-.31A.24.24,0,0,0,178.44,81.51Z" fill="#b5e47c"></path><path d="M176.92,81.15l0,.35a.24.24,0,0,0,.18.28.24.24,0,0,0,.28-.18l0-.35a.24.24,0,0,0-.18-.28A.24.24,0,0,0,176.92,81.15Z" fill="#b5e47c"></path><path d="M175.78,81.41a.24.24,0,0,0-.15.3l.09.22a.24.24,0,0,0,.3.15.24.24,0,0,0,.15-.3l-.09-.22A.24.24,0,0,0,175.78,81.41Z" fill="#b5e47c"></path><path d="M174.71,82.44l.19.16c.23.2.55-.15.32-.34l-.19-.16C174.8,81.9,174.48,82.24,174.71,82.44Z" fill="#b5e47c"></path><path d="M176.2,82.65c-.32.05-.71.18-.81.53a.51.51,0,0,0,.09.46v0a.49.49,0,0,0,.12.19,1.15,1.15,0,0,0,.91.51,1.08,1.08,0,0,0,1-.47.46.46,0,0,0,0-.15l.05-.11C178,82.76,176.81,82.55,176.2,82.65Z" fill="#fefffd"></path><path d="M156.6,91.51a1.27,1.27,0,0,1-.52-1.42c.6-2.34,1.25-8.25,8.14-8.83,8.6-.72,10.68,1.91,12.2,7.52a1.33,1.33,0,0,1-.36,1.34c-1,.84-3.48,2.37-9,2.93C161.37,93.63,158,92.26,156.6,91.51Z" fill="#ede6ca"></path><path d="M162.53,84a.6.6,0,0,1-.41-.31c-.15-.27-.55,0-.41.24a1.06,1.06,0,0,0,.69.52C162.7,84.5,162.83,84,162.53,84Z" fill="#dba88d"></path><path d="M161,86.39a.24.24,0,0,0-.29.16l-.12.66a.24.24,0,0,0,.16.29.24.24,0,0,0,.29-.16l.12-.66A.24.24,0,0,0,161,86.39Z" fill="#dba88d"></path><path d="M159.16,87.68l-.18-.12c-.25-.17-.49.24-.24.41l.18.12C159.18,88.25,159.41,87.84,159.16,87.68Z" fill="#dba88d"></path><path d="M164.41,88.62l-.06.06a.24.24,0,0,0,.33.33l.06-.06A.24.24,0,0,0,164.41,88.62Z" fill="#dba88d"></path><path d="M169.92,86.62a4.19,4.19,0,0,0-.34.89.24.24,0,0,0,.45.13,3.64,3.64,0,0,1,.29-.78C170.46,86.59,170.05,86.35,169.92,86.62Z" fill="#dba88d"></path><path d="M169.51,89h-.36a.24.24,0,0,0,0,.47h.36A.24.24,0,0,0,169.51,89Z" fill="#dba88d"></path><path d="M173.2,86.32l-.11.36a.24.24,0,0,0,.45.13l.11-.36A.24.24,0,0,0,173.2,86.32Z" fill="#dba88d"></path><path d="M166.92,85.72h-.06a.24.24,0,0,0,0,.47h.06A.24.24,0,0,0,166.92,85.72Z" fill="#dba88d"></path><path d="M167.29,83.08,167,83a.24.24,0,0,0-.29.16.24.24,0,0,0,.16.29l.3.12a.24.24,0,0,0,.29-.16A.24.24,0,0,0,167.29,83.08Z" fill="#dba88d"></path><path d="M164.75,86.37c-.09-.29-.54-.17-.45.13a.5.5,0,0,1,0,.42.24.24,0,0,0,.41.24A1,1,0,0,0,164.75,86.37Z" fill="#dba88d"></path><path d="M161.39,90.15a1.39,1.39,0,0,1-.49-.39.24.24,0,0,0-.33,0,.24.24,0,0,0,0,.33,1.71,1.71,0,0,0,.59.46.24.24,0,0,0,.32-.08A.24.24,0,0,0,161.39,90.15Z" fill="#dba88d"></path><path d="M167.64,90.3l-.36.12c-.29.1-.16.55.13.45l.36-.12C168.06,90.66,167.93,90.21,167.64,90.3Z" fill="#dba88d"></path><path d="M173.55,89.06l-.42.25a.24.24,0,0,0,.24.41l.42-.25A.24.24,0,0,0,173.55,89.06Z" fill="#dba88d"></path><path d="M170.48,83.74l-.3-.12a.24.24,0,0,0-.29.16.24.24,0,0,0,.16.29l.3.12a.24.24,0,0,0,.29-.16A.24.24,0,0,0,170.48,83.74Z" fill="#dba88d"></path><path d="M164.35,81.47c.14-.07,2.29-.42,2.29-.42s.89-1.86,1.18-1.48-1.45,2-.63,1.63,1.47-1.62,1.5-.68-1.17.76-1.17,1.27,1.3.27.7.86-1-1.12-1.49-.63-.51,2.23-.82,1.33.5-1.84.11-1.77A9.72,9.72,0,0,1,164.35,81.47Z" fill="#88b72c"></path><path d="M166.67,82c-.16,0-2.32-.24-2.32-.24s-1.37,1.54-1.54,1.09,1.95-1.47,1.06-1.38-1.86,1.15-1.63.23,1.34-.4,1.48-.9-1.18-.63-.43-1,.68,1.36,1.25,1,1.12-2,1.16-1-1,1.62-.6,1.67A9.72,9.72,0,0,1,166.67,82Z" fill="#88b72c"></path><path d="M171.84,97.16h-.62l.42-1.22a11.59,11.59,0,0,0,2.51-.23,26.92,26.92,0,0,0,5.53-1,10.47,10.47,0,0,0,1.18-.35c1.53-.08,3.17-1.35,2.51.46a4.65,4.65,0,0,1-1.61,2.05q-2.14.16-4.29.24C175.6,97.06,173.72,97.1,171.84,97.16Z" fill="#99ce45"></path><path d="M170.85,98.23l.19-.56.66,0,10.38.26c1,.54,2.95.76,1.74,1.59-1,.71-2.3.27-2.73.54q-1.42-.13-2.83-.34C175.83,99.06,173.34,98.64,170.85,98.23Z" fill="#99ce45"></path><path d="M170.89,99.36l-.38-.13.18-.52a.22.22,0,0,0,.17.16l10.46,2.42c.64,1,1.6,1.19,0,1.18a8.19,8.19,0,0,0-2.16,0l-8.06-3.14A.25.25,0,0,0,170.89,99.36Z" fill="#99ce45"></path><path d="M171.85,95.29l.07-.21a.21.21,0,0,0,.32.06c1.51-1.18,3.31-2,4.65-3.35a1.66,1.66,0,0,0,.45,0c1.61-.31,2.2-.81,2.62.31.28.75-.34,1.42-.29,1.84a39.83,39.83,0,0,1-7.38,1.4Z" fill="#99ce45"></path><path d="M172.33,93.87s1.06-3.83,2.92-3.62c.9.1,1,.53,1.13.91-1.43,1.17-2.87,2.33-4.31,3.48Z" fill="#99ce45"></path><path d="M170.34,100.13l-.1-.09,0-.09.14.15Z" fill="#99ce45"></path><path d="M170.86,99.86l.53.17a34.07,34.07,0,0,1,7.35,4.79c-.14.29-.43.29-1,.07-1.1-.4-2.14-2.17-2.72-1.38-.67-.7-1.5-1.24-2.23-1.87S171.47,100.48,170.86,99.86Z" fill="#99ce45"></path><path d="M178.68,103.88a.23.23,0,0,0,.16,0c0,.07,0,.14,0,.21l-.32-.32Z" fill="#99ce45"></path><path d="M172.24,95.13a.21.21,0,0,1-.32-.06l.15-.43c1.44-1.16,2.88-2.31,4.31-3.48.07.31.12.58.52.62C175.55,93.14,173.75,93.95,172.24,95.13Z" fill="#88b72c"></path><path d="M174.15,95.69a11.59,11.59,0,0,1-2.51.23l.22-.64h.44a39.83,39.83,0,0,0,7.38-1.4c0,.21.2.36.75.43a2.46,2.46,0,0,0,.44,0,10.47,10.47,0,0,1-1.18.35A26.92,26.92,0,0,1,174.15,95.69Z" fill="#88b72c"></path><path d="M171,97.67l.18-.53h.62c1.88-.06,3.76-.1,5.64-.07q2.15-.08,4.29-.24c-.27.25-.37.45-.09.76a1.49,1.49,0,0,0,.41.3l-10.38-.26Z" fill="#88b72c"></path><path d="M170.69,98.71l.16-.48c2.49.4,5,.83,7.41,1.46q1.41.21,2.83.34c-.16.1-.2.29-.06.69a2.57,2.57,0,0,0,.29.57l-10.46-2.42A.22.22,0,0,1,170.69,98.71Z" fill="#88b72c"></path><path d="M170.19,100.18l.05-.15.1.09.07,0-.14-.15.24-.71.38.13a.25.25,0,0,1,.22,0l8.06,3.14c-.25.12-.35.39-.33,1,0,.15,0,.29,0,.42a.23.23,0,0,1-.16,0l-.16-.08.32.32a1.83,1.83,0,0,1-.1.71,34.07,34.07,0,0,0-7.35-4.79l-.53-.17c.61.62,1.23,1.22,1.89,1.78s1.56,1.17,2.23,1.87l0,0C174.39,104.43,170.19,100.18,170.19,100.18Z" fill="#88b72c"></path><path d="M175.09,97.7a4,4,0,0,0,.33-.28,1.74,1.74,0,0,0-.09-2.6,4.07,4.07,0,0,0-2.67-.75h-.11c-.06-.21-.06-.51-.13-.67a2.44,2.44,0,0,0-.95-1.05,4.21,4.21,0,0,0-3.16-.43c-.39.08-1.13.51-1.51.37s-.86-1-1.25-1.23a4,4,0,0,0-5.4,1.09,4.21,4.21,0,0,0-.52,1.51c-.15.7-.41.74-1.15,1A2.68,2.68,0,0,0,156.55,97a2.84,2.84,0,0,0,2,2.71l.33.17a5.91,5.91,0,0,0,1.53,1.56,9.61,9.61,0,0,0,4.66,1.28c2.64.26,6.84.82,8.74-1.2,1.74-.66,3-2.39,1.32-3.79Z" fill="#f8f5e6"></path><ellipse cx="166.55" cy="96.25" rx="4.85" ry="2.54" fill="#f19e16"></ellipse><path d="M168.08,94.4a.75.75,0,0,0,0,1.5A.75.75,0,0,0,168.08,94.4Z" fill="#f9f6bf"></path><path d="M166.36,98.09c-1.73-.14-4.17-1-4.36-2.72a1.51,1.51,0,0,0-.3.88c0,1.4,2.17,2.54,4.85,2.54,2.18,0,4-.75,4.64-1.79A7,7,0,0,1,166.36,98.09Z" fill="#db8303"></path><ellipse cx="225.08" cy="99.15" rx="27.63" ry="14.22" fill="#68e1fd"></ellipse><ellipse cx="225.08" cy="99.15" rx="27.63" ry="14.22" fill="#093e3e" opacity="0.29"></ellipse><ellipse cx="225.08" cy="97.5" rx="27.63" ry="14.22" fill="#68e1fd"></ellipse><ellipse cx="225.52" cy="97.5" rx="18.69" ry="8.81" fill="#093e3e" opacity="0.29"></ellipse><path d="M218.51,95.64l.87.16L219.16,94a16.65,16.65,0,0,1-3.47-1.05,38.66,38.66,0,0,1-7.48-3,15,15,0,0,1-1.56-.83c-2.12-.56-4.06-2.82-3.67-.08a6.68,6.68,0,0,0,1.66,3.36q3,.85,6,1.58C213.25,94.41,215.89,95,218.51,95.64Z" fill="#99ce45"></path><path d="M219.59,97.44l-.11-.85-.93-.22-14.67-2.65c-1.58.47-4.37.21-2.91,1.74,1.23,1.3,3.16,1.05,3.68,1.55q2,.23,4.08.34C212.35,97.16,216,97.28,219.59,97.44Z" fill="#99ce45"></path><path d="M219.2,99l.57-.07-.1-.78a.32.32,0,0,1-.29.18L204,98.71c-1.17,1.16-2.6,1.21-.37,1.66,1.56.31,2.58.28,3,.63l12.25-2.07A.35.35,0,0,1,219.2,99Z" fill="#99ce45"></path><path d="M219,93l0-.32a.3.3,0,0,1-.46,0c-1.78-2.1-4.08-3.76-5.57-6.07a2.38,2.38,0,0,1-.62-.18c-2.18-.9-2.86-1.78-3.78-.33-.61,1,.06,2.09-.12,2.67a57.2,57.2,0,0,0,10,4.11Z" fill="#99ce45"></path><path d="M218.77,90.88s-.38-5.7-3-5.94c-1.3-.12-1.62.45-1.86,1,1.66,2.06,3.36,4.11,5,6.15Z" fill="#99ce45"></path><path d="M219.76,100.25l.17-.1,0-.14-.24.16Z" fill="#99ce45"></path><path d="M219.09,99.72l-.79.08a48.92,48.92,0,0,0-11.73,4.6c.11.45.52.53,1.45.4,1.67-.24,3.65-2.43,4.22-1.15,1.14-.79,2.46-1.31,3.67-2S218.06,100.41,219.09,99.72Z" fill="#99ce45"></path><path d="M206.93,103.1a.33.33,0,0,1-.24,0l-.06.29.55-.35Z" fill="#99ce45"></path><path d="M218.54,92.67a.3.3,0,0,0,.46,0l-.08-.64c-1.69-2-3.38-4.09-5-6.15-.19.41-.33.78-.91.72C214.46,88.91,216.76,90.57,218.54,92.67Z" fill="#88b72c"></path><path d="M215.69,92.91A16.65,16.65,0,0,0,219.16,94L219,93l-.62-.13a57.2,57.2,0,0,1-10-4.11c-.09.29-.39.45-1.17.38a3.54,3.54,0,0,1-.62-.11,15,15,0,0,0,1.56.83A38.66,38.66,0,0,0,215.69,92.91Z" fill="#88b72c"></path><path d="M219.48,96.59l-.1-.79-.87-.16c-2.63-.63-5.26-1.23-7.91-1.73q-3-.74-6-1.58c.31.43.39.74-.1,1.1a2.14,2.14,0,0,1-.66.3l14.67,2.65Z" fill="#88b72c"></path><path d="M219.68,98.16l-.09-.72c-3.62-.15-7.24-.28-10.85-.1q-2-.11-4.08-.34c.2.19.2.47-.11,1a3.69,3.69,0,0,1-.57.72l15.42-.36A.32.32,0,0,0,219.68,98.16Z" fill="#88b72c"></path><path d="M220,100.37l0-.22-.17.1-.09-.08.24-.16-.13-1.07-.57.07a.35.35,0,0,0-.3-.09L206.65,101c.32.24.38.66.18,1.5l-.14.59a.33.33,0,0,0,.24,0l.25-.07-.55.35a2.63,2.63,0,0,0-.06,1,48.92,48.92,0,0,1,11.73-4.6l.79-.08c-1,.7-2.09,1.36-3.18,2s-2.53,1.19-3.67,2l0,.06C212.81,105.12,220,100.37,220,100.37Z" fill="#88b72c"></path><path d="M242.91,96a5.86,5.86,0,0,0,.5-.42,2.59,2.59,0,0,0-.14-3.87c-1.14-1-2.45-1-4-1.11h-.16c-.08-.31-.09-.76-.19-1A3.62,3.62,0,0,0,237.55,88a6.26,6.26,0,0,0-4.7-.64c-.58.12-1.67.75-2.25.55s-1.27-1.43-1.86-1.82a6,6,0,0,0-8,1.61,6.25,6.25,0,0,0-.77,2.25c-.22,1-.61,1.09-1.7,1.54-1.65.68-2.85,1.83-2.88,3.47,0,2,1.26,3.29,3,4l.48.26a8.78,8.78,0,0,0,2.28,2.32c2,1.38,4.45,1.65,6.92,1.9,3.92.39,10.17,1.22,13-1.79,2.59-1,4.48-3.55,2-5.64Z" fill="#f8f5e6"></path><ellipse cx="230.22" cy="93.83" rx="7.21" ry="3.77" fill="#f19e16"></ellipse><path d="M232.49,91.08a1.11,1.11,0,0,0,0,2.23A1.11,1.11,0,0,0,232.49,91.08Z" fill="#f9f6bf"></path><path d="M229.94,96.57c-2.57-.21-6.19-1.47-6.48-4a2.25,2.25,0,0,0-.45,1.3c0,2.08,3.23,3.77,7.21,3.77,3.24,0,6-1.12,6.89-2.66C235.21,96.43,232.49,96.77,229.94,96.57Z" fill="#db8303"></path><ellipse cx="220.69" cy="102.06" rx="6.45" ry="2.97" fill="#d84027"></ellipse><ellipse cx="220.69" cy="101.21" rx="6.45" ry="2.97" fill="#ea6453"></ellipse><path d="M216.23,101.46a7.16,7.16,0,0,0,5.14,1.66,4.65,4.65,0,0,0,4.43-2.57Z" fill="#d84027"></path><path d="M215.8,101l9.57-1.06a23,23,0,0,0-5.67-.82A6.06,6.06,0,0,0,215.8,101Z" fill="#d84027"></path><path d="M216.66,101.41a.18.18,0,0,0,0,.35A.18.18,0,0,0,216.66,101.41Z" fill="#f9b2ac"></path><path d="M219.19,102.6a.18.18,0,0,0,0,.35A.18.18,0,0,0,219.19,102.6Z" fill="#f9b2ac"></path><path d="M221,102.53a.18.18,0,0,0,0,.35A.18.18,0,0,0,221,102.53Z" fill="#f9b2ac"></path><path d="M219.48,101.3a.18.18,0,0,0,0,.35A.18.18,0,0,0,219.48,101.3Z" fill="#f9b2ac"></path><path d="M217.74,100.18a.18.18,0,0,0,0,.35A.18.18,0,0,0,217.74,100.18Z" fill="#f9b2ac"></path><path d="M219.84,99.17a.18.18,0,0,0,0,.35A.18.18,0,0,0,219.84,99.17Z" fill="#f9b2ac"></path><path d="M219.58,99.64a.18.18,0,0,0,0,.35A.18.18,0,0,0,219.58,99.64Z" fill="#f9b2ac"></path><path d="M217.63,99.35a.18.18,0,0,0,0,.35A.18.18,0,0,0,217.63,99.35Z" fill="#f9b2ac"></path><path d="M215.72,100.69a.18.18,0,0,0,0,.35A.18.18,0,0,0,215.72,100.69Z" fill="#f9b2ac"></path><path d="M222.66,102.53a.18.18,0,0,0,0,.35A.18.18,0,0,0,222.66,102.53Z" fill="#f9b2ac"></path><path d="M224.18,101.19a.18.18,0,0,0,0,.35A.18.18,0,0,0,224.18,101.19Z" fill="#f9b2ac"></path><path d="M221.62,101.59a.18.18,0,0,0,0,.35A.18.18,0,0,0,221.62,101.59Z" fill="#f9b2ac"></path><path d="M222.27,99.53a.18.18,0,0,0,0,.35A.18.18,0,0,0,222.27,99.53Z" fill="#f9b2ac"></path><path d="M224.14,100a.18.18,0,0,0,0,.35A.18.18,0,0,0,224.14,100Z" fill="#f9b2ac"></path><path d="M177.08,72.89l-7.16,4.16s.4,6.08,7.73,5.14L190.87,75" fill="url(#linear-gradient-5)" style="mix-blend-mode: multiply;"></path><ellipse cx="185.05" cy="72.26" rx="7.97" ry="3.94" fill="#68e1fd"></ellipse><path d="M193,61.77V72.49s-5.93,5.49-15.93.09V61.77" fill="#68e1fd"></path><path d="M178.27,65.6s-1.32-2-2.56-.85-.16,5.2,3.49,5.59V72s-4.58-.62-5.2-4.74,2.33-4.75,3.81-3.62" fill="#68e1fd"></path><ellipse cx="185.05" cy="61.82" rx="7.97" ry="3.94" fill="#68e1fd"></ellipse><path d="M185,59.93c3.68,0,6.78,1.23,7.69,2.91a2.13,2.13,0,0,0,.28-1c0-2.18-3.57-3.94-8-3.94s-8,1.76-8,3.94a2.13,2.13,0,0,0,.28,1C178.27,61.17,181.37,59.93,185,59.93Z" fill="#093e3e" opacity="0.29"></path><path d="M185,65.76c3.68,0,6.78-1.23,7.69-2.91-.91-1.68-4-2.91-7.69-2.91s-6.78,1.23-7.69,2.91C178.27,64.52,181.37,65.76,185,65.76Z" fill="#913b24"></path><path d="M214.09,75.69l-7.16,4.16s.4,6.08,7.73,5.14l13.22-7.24" fill="url(#linear-gradient-6)" style="mix-blend-mode: multiply;"></path><ellipse cx="222.06" cy="75.07" rx="7.97" ry="3.94" fill="#68e1fd"></ellipse><path d="M230,64.58V75.29s-5.93,5.49-15.93.09V64.58" fill="#68e1fd"></path><path d="M215.28,68.4s-1.32-2-2.56-.85-.16,5.2,3.49,5.59v1.63s-4.58-.62-5.2-4.74,2.33-4.75,3.81-3.62" fill="#68e1fd"></path><ellipse cx="222.06" cy="64.62" rx="7.97" ry="3.94" fill="#68e1fd"></ellipse><path d="M222.06,62.74c3.68,0,6.78,1.23,7.69,2.91a2.13,2.13,0,0,0,.28-1c0-2.18-3.57-3.94-8-3.94s-8,1.76-8,3.94a2.13,2.13,0,0,0,.28,1C215.28,64,218.38,62.74,222.06,62.74Z" fill="#093e3e" opacity="0.29"></path><path d="M222.06,68.56c3.68,0,6.78-1.23,7.69-2.91-.91-1.68-4-2.91-7.69-2.91s-6.78,1.23-7.69,2.91C215.28,67.33,218.38,68.56,222.06,68.56Z" fill="#913b24"></path><path d="M164.83,84.33s-4.13-3.43-4-4.19.53-1.21,1.19-1.26,6.24,5.65,6.24,5.65L176,92.35s7.16.93,7.31,3.76-2.32,3.14-4.12,2.6C176.65,98,175.28,94,175.28,94Z" fill="#545454"></path><path d="M160.45,94.81s2.32-5.56,2.72-6.78,3.43-2.74,5-3a33.84,33.84,0,0,0,3.68-.87s2.41-1.26,3.54-1,1.11,2.23,1.11,2.23,1.91.73,1.75,1.71a7.47,7.47,0,0,1-.89,2.17,1.16,1.16,0,0,1,.71,1.47c-.32,1.12-2.79,3.08-2.79,3.08l-8.22,5.33" fill="#ffc585"></path><path d="M150.19,187.21l-2.12,9.85s6.4-1.19,8.61-.89,5,4.22,2.27,6.88-7.46,2.41-12.16,3.5-5.43,1.33-8.44.48-3.46-4.94-3.46-4.94l2.36-17.17" fill="#492d12"></path><path d="M134.62,177.6l-2.7,14.74s4.23,4.35,18.5,3.84,0-26,0-26" fill="#edbab9"></path><path d="M119.52,204.53V178.21h-6.84l.68,26.29c-9.92.5-17.57,3.64-17.57,7.46,0,4.16,9.09,7.54,20.31,7.54s20.31-3.37,20.31-7.54C136.42,208.23,129.11,205.14,119.52,204.53Z" fill="#ffc585"></path><path d="M119.52,204.53V178.21h-6.84l.68,26.29c-9.92.5-17.57,3.64-17.57,7.46,0,4.16,9.09,7.54,20.31,7.54s20.31-3.37,20.31-7.54C136.42,208.23,129.11,205.14,119.52,204.53Z" fill="#68e1fd"></path><path d="M119.52,204.53V178.21h-6.84l.68,26.29c-9.92.5-17.57,3.64-17.57,7.46,0,4.16,9.09,7.54,20.31,7.54s20.31-3.37,20.31-7.54C136.42,208.23,129.11,205.14,119.52,204.53Z" fill="#093e3e" opacity="0.29"></path><path d="M166.77,195.29l-2.12,9.85s6.4-1.19,8.61-.89,5,4.22,2.27,6.88-7.46,2.41-12.16,3.5-5.43,1.33-8.44.48-3.46-4.94-3.46-4.94L153.82,193" fill="#492d12"></path><path d="M157,110.2c-1.76,5.83-4.4,12.06-9.91,15.26-5.89,3.42-13.2,2.48-19.54,1.1-1.25-.27-1.79,1.65-.53,1.93,6.89,1.5,14.7,2.4,21.08-1.3,6-3.46,8.92-10.12,10.83-16.46A1,1,0,0,0,157,110.2Z" fill="#008074"></path><path d="M155.16,134.37q-9.12,2-18.4,3.09a1,1,0,0,0-.7.38q-1.07-3.21-1.82-6.52c-.28-1.25-2.21-.72-1.93.53a69.63,69.63,0,0,0,5,14.54c.55,1.16,2.28.15,1.73-1-.92-1.94-1.73-3.91-2.46-5.92h.14q9.54-1.12,18.93-3.16C156.95,136,156.42,134.1,155.16,134.37Z" fill="#008074"></path><path d="M138.73,148.46a26.85,26.85,0,0,1-6.16,7.07c-1,.81.42,2.22,1.41,1.41a28.4,28.4,0,0,0,6.47-7.48A1,1,0,0,0,138.73,148.46Z" fill="#008074"></path><path d="M126.28,142s15.92-12.78,26.49-14.28,16.08,10,15.33,17.63S142,157.19,142,157.19" fill="#edbab9"></path><path d="M134.77,146.21c2.06-1.92,29.08-14.52,38.6-8.76s8.92,10,7.71,17-10.4,44.8-10.4,44.8-9.09,4.26-21.61,1l2.67-28.07-36-19.66" fill="#ffe0de"></path><path d="M115.07,101.07c1.43,1.06,13.77,2.54,16.34,8.23s6.5,35,6.5,35-7.4,11-20.23,7.11c-3.81-1.17-23.53-37.22-24.06-41C92.25,100.7,115.07,101.07,115.07,101.07Z" fill="#ff5331"></path><path d="M90.74,164.41a32.28,32.28,0,0,1-1.53-4.57c-3-11.86-5-56.37,15-54.56,22,2,14.53,57,36.8,55.28s31.36,4.1,22.27,12.72C145.08,190.51,101.9,190.9,90.74,164.41Z" fill="#68e1fd"></path><path d="M119.78,82.1c.17,1.06,2,16-2.4,19.42S103,96.92,102.74,93s-3.61-12.2.62-14.27S118.6,74.7,119.78,82.1Z" fill="#ffc585"></path><path d="M119.78,82.1s3.72-2.87,4.38-5.48-2.55-4.48-5.69-4.48-5.79.8-8.49-.8-7-1.74-9.49,0-3,5.91-4.68,8.05-5,2.38-4.9,6.39,6,4.41,6.37,7.09,1.85,6.59,5.46,7.27,8.56.76,9,.22-2.27-9.49.21-10.09S120,88.45,119.78,82.1Z" fill="#ff9c1a"></path><path d="M126.49,104.94s12.15,4.44,15.31,4.16,16.43-17.2,16.43-17.2,9.19,2.54,12.19,10.73c0,0-17.14,24.53-24.63,26s-16.64-2.21-16.64-2.21" fill="#ff5331"></path><path d="M246.48,184c.06.68.54,8.85-.37,9.8s-3.3,5.57-6.26,5.77-5.71-.39-6.27,2.78,16.8,4.24,16.8,4.24,1.83-7.27,2.61-7.05.75,8,.75,8l3.22.69,3.22-2.15-1.3-13.92-2.1-11.83" fill="#492d12"></path><path d="M233.47,195.71c.43,4.93.18,11.52-4.46,14.51-2.53,1.64-7.89.12-8.55,3.75-.57,3.17,16.77,4.35,16.77,4.35s1.87-7.25,2.65-7,.7,8,.7,8l3.22.71L247,217.9,245.82,204l-2-11.84" fill="#492d12"></path><path d="M241.11,106.23l-2.27-3a1.79,1.79,0,0,1,1.67-2.81,11,11,0,0,1-1.07-2.66,1.71,1.71,0,0,1,3-1.39l3.81,5.08-1.93-3.35c-1.1-1.9,2-3.34,3.08-1.45l3.27,5.67.07-1.64c.07-1.5.29-3.39,2.2-3.48a1.76,1.76,0,0,1,2,1.39,8,8,0,0,1-.08,3.81c-.31,1.35-1.18,3.23-.39,4.54l3.86,6a1.7,1.7,0,0,1-1.12,2.73,1.76,1.76,0,0,1-2.33,1.47,1.63,1.63,0,0,1-1.17.24,1.58,1.58,0,0,1-2,.47,1.69,1.69,0,0,1-2.86.5c-2.75-3.3-6.38-5.75-8.86-9.27A1.84,1.84,0,0,1,241.11,106.23Z" fill="#f4a556"></path><path d="M278,128.88a9.83,9.83,0,0,1-8.77,6.76c-6.93.4-20.08-14.24-20.08-14.24s-.36-13,5.39-15.3c0,0,9.52,8.21,10.84,8.31s9-7.17,9-7.17" fill="#ff9283"></path><path d="M238,107.42,236.27,104a1.79,1.79,0,0,1,2.13-2.48,11,11,0,0,1-.6-2.8A1.71,1.71,0,0,1,241,97.9l2.88,5.66-1.33-3.63c-.75-2.06,2.53-2.95,3.28-.9l2.25,6.15.35-1.6c.32-1.47.87-3.29,2.76-3a1.76,1.76,0,0,1,1.7,1.7,8,8,0,0,1-.73,3.74c-.54,1.28-1.71,3-1.16,4.41l2.78,6.57a1.7,1.7,0,0,1-1.57,2.5,1.76,1.76,0,0,1-2.54,1.05,1.63,1.63,0,0,1-1.19,0,1.58,1.58,0,0,1-2,.13,1.69,1.69,0,0,1-2.9,0c-2.14-3.72-5.3-6.75-7.15-10.65A1.84,1.84,0,0,1,238,107.42Z" fill="#ffc585"></path><path d="M261.89,177.73l2.55,13.94s-4,4.12-17.5,3.63,0-24.64,0-24.64" fill="#edbab9"></path><ellipse cx="279.41" cy="210.22" rx="19.21" ry="7.13" fill="#68e1fd"></ellipse><polyline points="282.64 178.3 281.9 207.02 276.18 207.02 276.18 178.3" fill="#68e1fd"></polyline><ellipse cx="279.41" cy="210.22" rx="19.21" ry="7.13" fill="#093e3e" opacity="0.29"></ellipse><path d="M282,203.26l.65-25h-6.47v24.79A29.19,29.19,0,0,1,282,203.26Z" fill="#093e3e" opacity="0.29"></path><path d="M242.47,136.84q8.63,1.88,17.4,2.92a1,1,0,0,1,.66.36q1-3,1.72-6.17c.27-1.19,2.09-.68,1.82.5a65.85,65.85,0,0,1-4.76,13.75c-.52,1.1-2.15.14-1.63-1,.87-1.83,1.64-3.7,2.32-5.6h-.13q-9-1.06-17.91-3C240.78,138.41,241.28,136.58,242.47,136.84Z" fill="#008074"></path><path d="M258,150.17a25.39,25.39,0,0,0,5.83,6.69c.95.77-.4,2.1-1.34,1.34a26.86,26.86,0,0,1-6.12-7.07A1,1,0,0,1,258,150.17Z" fill="#008074"></path><path d="M269.78,144s-15.05-12.08-25.05-13.51-15.21,9.42-14.5,16.68,24.64,11.23,24.64,11.23" fill="#89c14d"></path><path d="M261.76,148c-2-1.81-27.5-13.74-36.51-8.29s-8.43,9.48-7.3,16.11,9.84,42.37,9.84,42.37,8.59,4,20.44,1l-2.52-26.55,34-18.59" fill="#abe276"></path><path d="M280.39,105.35c-1.35,1-13,2.4-15.45,7.78s-6.15,33.11-6.15,33.11,7,10.43,19.13,6.72c3.6-1.1,22.25-35.2,22.75-38.74C302,105,280.39,105.35,280.39,105.35Z" fill="#ffb1a4"></path><path d="M303.4,165.25a30.53,30.53,0,0,0,1.45-4.32c2.86-11.21,4.74-53.31-14.19-51.6-20.77,1.88-13.74,53.88-34.8,52.28s-29.66,3.88-21.06,12C252,189.94,292.84,190.31,303.4,165.25Z" fill="#68e1fd"></path><path d="M272.93,90.84c-.14.85-1.64,12.91,1.93,15.63s11.58-3.7,11.78-6.89,2.91-9.82-.5-11.48S273.89,84.89,272.93,90.84Z" fill="#ffc585"></path><path d="M269.78,136.72a9.83,9.83,0,0,1-9.91,4.93c-6.87-.95-17-17.85-17-17.85s2.17-12.87,8.24-14c0,0,7.75,9.9,9,10.25s4.74-7,4.74-7" fill="#ffb1a4"></path><path d="M273.7,110.83c1.53-1,3.66-1.86,3.18-4-.4-1.78-2.24-3.1-2.29-5a6.92,6.92,0,0,1,2-5c.8-.82,1.8-1.29,1.26-2.59a5.1,5.1,0,0,0-2-2l-3.91.24s-2.72-6.72,4.43-10.91c4.57-2.69,12.11-2,15.9,1.84a18.91,18.91,0,0,1,2.63,3.65,14.5,14.5,0,0,0,3.41,4.43c1.55,1.16,2.65,2.28,2.91,4.35s-.47,3.27-1.32,4.91c-1,1.92.59,3.17,1.86,4.51s2.5,2.92,2.59,4.83c.18,4-3.72,5.9-7.1,6.52-3.15.58-6.32,1.06-9.48,1.6-4,.68-8,2.14-12.07,1a6.71,6.71,0,0,1-2.9-1.5,4.39,4.39,0,0,1,.36-6.49A6.27,6.27,0,0,1,273.7,110.83Z" fill="#ff9c1a"></path></g></g></svg>