<svg xmlns="http://www.w3.org/2000/svg" xmlns:xlink="http://www.w3.org/1999/xlink" viewBox="0 0 400 300" width="406" height="306" class="illustration styles_illustrationTablet__1DWOa"><defs><linearGradient id="linear-gradient" x1="148.9" y1="139.68" x2="108.53" y2="175.56" gradientUnits="userSpaceOnUse"><stop offset="0" stop-color="gray"></stop><stop offset="1" stop-color="#fff"></stop></linearGradient><linearGradient id="linear-gradient-2" x1="292.2" y1="191.38" x2="236.92" y2="240.52" xlink:href="#linear-gradient"></linearGradient><linearGradient id="linear-gradient-3" x1="359.86" y1="172.78" x2="342.29" y2="190.65" xlink:href="#linear-gradient"></linearGradient></defs><title>PP</title><g style="isolation: isolate;"><g id="Layer_2" data-name="Layer 2"><path d="M194.28,287.67,14.56,181.45C8.84,178.24,3.93,173,9.51,169.5l180.37-104c2.71-1.68,6.82-2.78,9.57-1.18L388.11,173.86c5.72,3.32,6.75,12.6,1,15.93L218,287.5A23.9,23.9,0,0,1,194.28,287.67Z" fill="#ff9f9f"></path><polygon points="41.36 175.78 203.91 269.8 361.8 178.32 199.24 84.52 41.36 175.78" fill="#68e1fd"></polygon><path d="M106.75,187.54c5-2.68,45.38-27.4,45.38-27.4-.69-2.06-21.79-8.77-23.83-10.13L85.6,172.61Z" fill="url(#linear-gradient)" style="mix-blend-mode: multiply;"></path><path d="M144.6,125.74s-1.8,8.55-2.45,11.56-.65,8.47-1.52,10.51-3.1,3.49-2.29,5.93,3,1.64,4.11,3.39,1.73,3,5.11,4.33,5.16.68,4.57-.93-6.41-7.72-6-9.73,9.11-21,9.17-30.9S145.79,120.1,144.6,125.74Z" fill="#f7931e"></path><path d="M130.5,125.42s-2.31,8.43-3.14,11.4-1.16,8.42-2.15,10.4-3.3,3.3-2.64,5.78,2.86,1.82,3.9,3.63,1.54,3.14,4.85,4.62,5.11,1,4.62-.66-5.94-8.09-5.45-10.07,11.33-21.84,12-31.75S132,119.87,130.5,125.42Z" fill="#f7931e"></path><path d="M162.71,41.06c.18.1.45.17.58.34,1.24.82,4.54,3.16,5.77,1.46,1-1.32,2-2.67,2.79-4.09.2-.34.78-1.12.61-1.55a3,3,0,0,0-1.18-1.3l-.39-1c-.39-1-1.79-.29-1.79-.29a1.54,1.54,0,0,0-.56-1.67c-.9-.73-1.66.72-1.66.72s-1.15-1.08-2-.34-2,5.32-2,5.32l-1.19-1.42c-.25-.21-.45-.12-.65.22-.56.94.36,2.2.93,2.91A2.75,2.75,0,0,0,162.71,41.06Z" fill="#f7931e"></path><path d="M158.78,45c.72-1.11,3.72-3.77,4.46-4.87,1.3,1.5,3.79,2,5.52,3a53,53,0,0,0-5.31,5.45,29.37,29.37,0,0,0-2.56,4.34,45.11,45.11,0,0,0-3.26,9.53c-.51,2.22-1.14,4.66-.75,6.95.5,2.9-1.09,10-5.31,8.48s-2.3-7.91-2.3-7.91.54-8.19,2.27-12.35a64.34,64.34,0,0,1,4.67-8.52Q157.46,47,158.78,45Z" fill="#f7931e"></path><path d="M164.33,38.58a34.84,34.84,0,0,0,2.38-5.07c.07-.18.34,0,.27.13a34.84,34.84,0,0,1-2.38,5.07C164.51,38.88,164.24,38.75,164.33,38.58Z" fill="#42210b"></path><path d="M166,39.7a26.51,26.51,0,0,0,3.29-5.25.15.15,0,0,1,.27.13,26.86,26.86,0,0,1-3.33,5.32C166.11,40.05,165.89,39.85,166,39.7Z" fill="#42210b"></path><path d="M168,40.36a30.79,30.79,0,0,0,3.22-4.51.15.15,0,0,1,.27.13,31.12,31.12,0,0,1-3.26,4.57C168.13,40.71,167.9,40.51,168,40.36Z" fill="#42210b"></path><path d="M130.7,122.84a16.49,16.49,0,0,0,4.46,1.76,16.11,16.11,0,0,0,5.1.65,13.43,13.43,0,0,0,2.62-.42c.85-.22,1.66-.71,2.5-.91s.9.13,1.62.46a14.29,14.29,0,0,0,3.38,1c1.79.32,5,0,6.07-2.75a105.08,105.08,0,0,0-3-31.35l-19.26-2.07c-2.78,9.25-4.62,20.72-5.83,32C129.16,121.76,129.9,122.34,130.7,122.84Z" fill="#311e69"></path><path d="M156.82,70.78a14.22,14.22,0,0,0-2.56-7.06q-.7-.2-1.4-.45c-2.19-.23-4.43-.63-6.63-.71a9.86,9.86,0,0,0-3.27.46c-2.49,2.29-6.28,1.15-7.6,4.25-1.25,6.82-.76,17.63-1.73,24.5a7.72,7.72,0,0,0,2.9,1.52c5.21,1.33,11.62,2.46,16.45-.1a12.64,12.64,0,0,0,1-1C154.91,86.3,157.6,77.83,156.82,70.78Z" fill="#c3ea75"></path><path d="M157,57.14s-1.37,8.84-5.71,9-5.68-3.56-5.71-6.39,2.86-8.16,7.7-6.66C157.54,54.37,157,57.14,157,57.14Z" fill="#f7931e"></path><path d="M158.39,56c.81-.79,1.73-2.44.84-3.48a2.69,2.69,0,0,0-2.74-.67,3.84,3.84,0,0,0-1.08-1.26,6.08,6.08,0,0,0-5.71-1.21.86.86,0,0,1-.28.05,1,1,0,0,1-.35-.11c-2.82-1.21-4.84,1.69-5.33,4.06a11.84,11.84,0,0,0,.78,7.31,7.35,7.35,0,0,0,2,2.43.23.23,0,0,0,.37-.1.29.29,0,0,0,.25-.33,2.76,2.76,0,0,1,.44-1.64.25.25,0,0,0,0-.24.28.28,0,0,0,0-.51A2.16,2.16,0,0,1,146.17,59c-.14-.39-.11-1,.46-.92a.67.67,0,0,1,.48.4,2.21,2.21,0,0,0,.11.48.28.28,0,0,0,.11.14c.16.15.48.1.45-.17a2.26,2.26,0,0,0-.12-.55,1.58,1.58,0,0,1,1.08-1.69c.91-.29,1.38.3,2.12.67a1.05,1.05,0,0,0,1.36-.22c.21-.29.18-.66.31-1a1.25,1.25,0,0,1,1.2-.79c.94,0,1.15,1,1.55,1.62a2.26,2.26,0,0,0,1.56,1.11,1.55,1.55,0,0,0,1.77-1.91A.27.27,0,0,0,158.39,56ZM153,54.9a.87.87,0,0,1,.51-.15l.18,0h.05l.06.07A1.8,1.8,0,0,0,153,54.9Zm5.25.35,0,0,.21-.22Z" fill="#935542"></path><path d="M155.26,40.69l-1.86-.27s3.36-3.44,3.53-4.59-1.39-1.57-1.39-1.57.84-1.45-.27-1.83a1.56,1.56,0,0,0-1.74.41s-.14-1.59-1.21-1.39l-1.07.2a3.07,3.07,0,0,0-1.76-.32c-.47.08-.83,1-1,1.36-.47.9-.87,1.85-1.25,2.79-.3.74-.56,1.49-.87,2.23a42.12,42.12,0,0,1-2.45,4.09q-1.05,1.89-2,3.81a57.47,57.47,0,0,0-3.63,7.88C136.95,57.32,137,64.65,137,64.65s-1.31,5.83,2.54,6.91,4.83-5.34,4.21-7.89a16.05,16.05,0,0,1,.23-6.24,40.29,40.29,0,0,1,2.32-8.69,26.23,26.23,0,0,1,2-4c.6-1,1.2-2.68,2.31-3.18.29-.13.57.16.8.29a2.8,2.8,0,0,0,1,.3c.92.12,2.51.23,3-.76C155.61,41,155.58,40.79,155.26,40.69Z" fill="#f7931e"></path><path d="M152.67,39.09a35.47,35.47,0,0,1,3.11-4.78c.12-.16-.14-.32-.26-.16a35.47,35.47,0,0,0-3.11,4.78C152.32,39.1,152.58,39.26,152.67,39.09Z" fill="#42210b"></path><path d="M150.81,38.25a27,27,0,0,1,2.77-5.67.15.15,0,0,0-.26-.16,27.34,27.34,0,0,0-2.81,5.74C150.45,38.34,150.74,38.43,150.81,38.25Z" fill="#42210b"></path><path d="M149.16,36.86a31.35,31.35,0,0,1,2.17-5.2.15.15,0,0,0-.26-.16,31.69,31.69,0,0,0-2.2,5.28C148.8,37,149.09,37,149.16,36.86Z" fill="#42210b"></path><path d="M137.54,56.55s-4.65,18.64-2,20,9-.35,8.17-12.9" fill="#f7931e"></path><path d="M131.71,137.51v87.2c0,2.77,4.3,2.77,4.3,0v-87.2C136,134.74,131.71,134.73,131.71,137.51Z" fill="#053855"></path><path d="M272.6,56.36v87.2c0,2.77,4.3,2.77,4.3,0V56.36C276.9,53.59,272.6,53.59,272.6,56.36Z" fill="#053855"></path><polygon points="133.61 135.43 274.5 54.28 274.5 102.55 133.86 182.77 133.61 135.43" fill="none" stroke="#2e3192" stroke-miterlimit="10"></polygon><path d="M134.14,143.23c2.15-2.16,140.64-80.67,140.64-80.67" fill="none" stroke="#2e3192" stroke-miterlimit="10"></path><path d="M134.14,151.36c2.15-2.16,140.64-80.67,140.64-80.67" fill="none" stroke="#2e3192" stroke-miterlimit="10"></path><path d="M134.14,159.49c2.15-2.16,140.64-80.67,140.64-80.67" fill="none" stroke="#2e3192" stroke-miterlimit="10"></path><path d="M134.14,167.63C136.29,165.47,274.77,87,274.77,87" fill="none" stroke="#2e3192" stroke-miterlimit="10"></path><path d="M134.14,175.76c2.15-2.16,140.64-80.67,140.64-80.67" fill="none" stroke="#2e3192" stroke-miterlimit="10"></path><line x1="142.49" y1="130.31" x2="142.49" y2="177.83" fill="none" stroke="#2e3192" stroke-miterlimit="10"></line><line x1="150.65" y1="125.48" x2="150.65" y2="173" fill="none" stroke="#2e3192" stroke-miterlimit="10"></line><line x1="158.74" y1="121.27" x2="158.74" y2="168.79" fill="none" stroke="#2e3192" stroke-miterlimit="10"></line><line x1="166.9" y1="116.44" x2="166.9" y2="163.96" fill="none" stroke="#2e3192" stroke-miterlimit="10"></line><line x1="175.59" y1="111.45" x2="175.59" y2="158.96" fill="none" stroke="#2e3192" stroke-miterlimit="10"></line><line x1="183.75" y1="106.55" x2="183.75" y2="154.66" fill="none" stroke="#2e3192" stroke-miterlimit="10"></line><line x1="191.84" y1="102.2" x2="191.84" y2="149.46" fill="none" stroke="#2e3192" stroke-miterlimit="10"></line><line x1="200" y1="97.37" x2="200" y2="145.04" fill="none" stroke="#2e3192" stroke-miterlimit="10"></line><line x1="207.89" y1="92.31" x2="207.89" y2="140.54" fill="none" stroke="#2e3192" stroke-miterlimit="10"></line><line x1="216.05" y1="87.95" x2="216.05" y2="135.89" fill="none" stroke="#2e3192" stroke-miterlimit="10"></line><line x1="224.14" y1="83.27" x2="224.14" y2="131.39" fill="none" stroke="#2e3192" stroke-miterlimit="10"></line><line x1="232.29" y1="78.43" x2="232.29" y2="126.62" fill="none" stroke="#2e3192" stroke-miterlimit="10"></line><line x1="240.99" y1="73.58" x2="240.99" y2="121.49" fill="none" stroke="#2e3192" stroke-miterlimit="10"></line><line x1="249.15" y1="69.14" x2="249.15" y2="116.66" fill="none" stroke="#2e3192" stroke-miterlimit="10"></line><line x1="257.24" y1="64.54" x2="257.24" y2="112.45" fill="none" stroke="#2e3192" stroke-miterlimit="10"></line><line x1="265.51" y1="59.46" x2="265.4" y2="107.62" fill="none" stroke="#2e3192" stroke-miterlimit="10"></line><path d="M359.83,176s8.58-15.16,14.5-21.66c0,0,.78,9.65-12.5,23.33" fill="#8bbc5c"></path><circle cx="201.58" cy="46.61" r="12.58" fill="#68e1fd"></circle><path d="M192.56,47.66c.56-5.14,3.05-10.81,7.62-13.55a12.57,12.57,0,0,0-5.26,23.16A14.29,14.29,0,0,1,192.56,47.66Z" fill="#053855" opacity="0.58"></path><path d="M205.13,56.55a29.71,29.71,0,0,0,1-8.44A32.26,32.26,0,0,0,201.89,34c-2.74,2-3.74,6.4-4.36,9.46-1.14,5.61-.61,11,2.74,15.63a13,13,0,0,0,1.31.07,13.15,13.15,0,0,0,3-.35C204.79,58.08,205,57.3,205.13,56.55Z" fill="#053855" opacity="0.58"></path><path d="M208.65,38.16a18,18,0,0,1,3.9,8.47,14.17,14.17,0,0,1-1.3,8,12.54,12.54,0,0,0-6.62-20.22A13.52,13.52,0,0,1,208.65,38.16Z" fill="#053855" opacity="0.58"></path><path d="M271.77,209.62a14.15,14.15,0,0,0-.76,2,19.44,19.44,0,0,1-1.11,3.51,5.13,5.13,0,0,1-4,2.93c-3.93.5-7-2.86-8.73-6.13L207.72,239l21.15,14.93c5-2.68,65.56-37,65.56-37C293.95,215.43,280.3,212,271.77,209.62Z" fill="url(#linear-gradient-2)" style="mix-blend-mode: multiply;"></path><path d="M284.91,210.78c.65-6.44,1.19-13.12-1.2-19-6.11-4-15.63-9.81-19.08-9.43-5.24.57-5,13.91-1.82,23.71l3.19,9.8s-6.84-4.1-8.78-4.33-1.37,5.93,0,7.64,7.8,3,9.66,4.22,6,1,6.76-.8-4.45-26.1-4.45-26.1S275.76,205.53,284.91,210.78Z" fill="#ef8318"></path><path d="M262.46,163l-7.85-1.18-6.19-.91a19.17,19.17,0,0,0-4.61-.53,8.14,8.14,0,0,0-3.8,2.1c-1.58,1.38,1.64,3.24,2.75,3.55,1.79.51,4.21.13,6.07.12,3.07,0,18.52,7.74,21.29,8s3.57-7,3.57-7" fill="#ef8318"></path><path d="M263.77,171.21s-2.05,2.85-3.31,3.31-6.66.57-8.57.46-12.29-3.42-12.63-4.67-.57-6-1.71-7.3-2.39,4.26-3.19,6,1.25,4.22,2.28,6,13.79,7.48,16.76,8.62,8.89,0,10.37,1.25.11,3.76,7.64,7,7.3,7.52,7.3,7.52-19.26-13.68-24.51-13.11-5,13.91-1.82,23.71l3.19,9.8s-6.84-4.1-8.78-4.33-1.37,5.93,0,7.64,7.8,3,9.66,4.22,6,1,6.76-.8-4.45-26.1-4.45-26.1,12.31,16.87,26.67,17.9,15.5-12.51,11.51-22.84S284.47,173,279.76,169.72,263.77,171.21,263.77,171.21Z" fill="#f7931e"></path><path d="M279.72,169.72c-1.67-1.17-4.18-1.33-6.71-1a4.31,4.31,0,0,1-1.89,2.76c-1.81,1.09-3.81.17-5.29-1-1,.33-1.68.62-2,.73a18.06,18.06,0,0,1,0,12.32,8,8,0,0,1-.58,1.17,1.73,1.73,0,0,1,.44.25c1.48,1.25.11,3.76,7.64,7a14,14,0,0,1,6.07,4.36c1.75-.56,3.52-1,5.26-1.54,4.28-1.22,8.32-2.52,12.42-3.34C290.75,182.09,283.81,172.59,279.72,169.72Z" fill="#db3b3b"></path><path d="M298.51,201a20.54,20.54,0,0,1-8.41,1.69,18.32,18.32,0,0,1-11.4-3.55,1.86,1.86,0,0,1,0,.2s-6.83-4.85-13.47-8.66c-1.47,5.49-1.09,11.21-.09,16.8,5,4.74,12.3,10.21,20.29,10.78C297.3,219.14,300.14,210.05,298.51,201Z" fill="#db3b3b"></path><path d="M285.14,153.71a5,5,0,0,0-6.24,1.06,13.2,13.2,0,0,0-3.39-2.4c-8.27-4.25-11,.11-11.6,2.07a5.21,5.21,0,0,0,1.4,4.72l3.14,12.66c1.06.7,6.93-2.06,9.92-5.29a11.27,11.27,0,0,0,2-3.1C286.43,166.21,291.21,156.9,285.14,153.71Z" fill="#6b4723"></path><path d="M265.12,156.67a15.25,15.25,0,0,1-1.72,5.17c-1.22,1.75-.12,5.91,2.93,9s8.72-2.19,8.72-2.19-2.31,2.87-4.38,1.88-3.11-3.94-1.59-4.93,2.31.53,3.11-1.55-1.41-2.44-2.89-1.32C269.3,162.75,270,158.86,265.12,156.67Z" fill="#f7931e"></path><path d="M348.68,197c11.94-7.24,24.42-14.87,24.42-14.87-.69-2.06-21.79-8.77-23.83-10.13l-22.92,12.14C331.56,190.67,340.28,194.37,348.68,197Z" fill="url(#linear-gradient-3)" style="mix-blend-mode: multiply;"></path><path d="M355.79,179.21c5.14.06,9.87-.93,13.9-3.58q.07-.71.07-1.43a13.74,13.74,0,1,0-27.47,0,14.47,14.47,0,0,0,.18,2.14C346.41,178.61,351.48,179.16,355.79,179.21Z" fill="#a55942"></path><path d="M362.82,176.8s-8.18-15.38-10.48-23.86c0,0,8.56,4.52,13,23.07" fill="#6a9546"></path><path d="M361.88,175.37s.34-17.42,2.47-25.94c0,0,5.27,8.12.09,26.46" fill="#7faa55"></path><path d="M362.14,184.65a19,19,0,0,0,10.91-2.81q.05-.55.06-1.12a10.78,10.78,0,1,0-21.56,0,11.35,11.35,0,0,0,.14,1.68C354.78,184.18,358.76,184.61,362.14,184.65Z" fill="#7f3726"></path><path d="M62,51.42s-22.7,63.23-18.5,131.67c0,0-10.3,6.24-14.39-2.51C29.09,180.58,40.79,50.52,62,51.42Z" fill="#d8876a"></path><polyline points="58.55 56.52 76.05 31.71 63.41 55.79" fill="#6a9546"></polyline><path d="M65.2,33.28c7.09,11.05-6.87,29-10.81,33.64-.62.74-1,1.15-1,1.15" fill="#6a9546"></path><path d="M51.11,31.59l8.3,20.94,4.8-10.06s5.37-7.51-2.5-12.72S51.11,31.59,51.11,31.59Z" fill="#6a9546"></path><path d="M90.82,46.61c12.71,6,13.62,24,13.62,24L55.83,64.81l3.58-10.92" fill="#85b23b"></path><path d="M63.52,53.34s14.59-12.71,27.3-6.74" fill="#85b23b"></path><path d="M101,84.94q-2.2-1.12-4.41-2.19l.07-6.93-1.83,6.09c-4-1.94-8.11-3.81-12.19-5.66L79,74.6a17.89,17.89,0,0,0,.84-5.6c0-.32-1.3,2.37-2.44,4.9a131.64,131.64,0,0,0-22.3-7.77l1.79-1.74s9.21-11.23,33-5,26.24,34.12,26.24,34.12l-.44-.18C111.19,90,106.05,87.5,101,84.94Z" fill="#6a9546"></path><path d="M65.2,33.28c-8.21-12.79-19-1.2-19-1.2" fill="#6a9546"></path><path d="M55.83,64.81S64.19,55.93,55.4,38,25.81,21.1,25.81,21.1l5.72,13.07,8.76.86-6.76,3.14,5.44,10s7.31-.77,9.62-.84c.52,0-7.17,4.66-7.17,4.66l12,16.06Z" fill="#85b23b"></path><path d="M44.59,62.53l1.94-4.9-4,4.4c-4.71-1.11-9.46-2-14.27-2.81l1-4.67-2.72,4.38c-2.59-.44-5.18-.88-7.75-1.23l1.8-5.5-3.75,5.27a49,49,0,0,0-9.53-.24C12.15,46,29.93,38.9,42.8,43.6c13.06,4.78,13,21.2,13,21.2l-3.95-.21C49.46,63.82,47,63.14,44.59,62.53Z" fill="#6a9546"></path><path d="M76,83.07l2-2.18-2.32,1.8A102.43,102.43,0,0,0,68,75.13l1.8-3.07-2.61,2.37A129.9,129.9,0,0,0,55.07,65.1c1.57-.92,7.84-3.94,17.92-.77,11,3.47,13.44,19.59,9.95,26.74l-1.13-.83A87.35,87.35,0,0,0,76,83.07Z" fill="#85b23b"></path></g></g></svg>