<svg xmlns="http://www.w3.org/2000/svg" xmlns:xlink="http://www.w3.org/1999/xlink" viewBox="0 0 400 300" width="406" height="306" class="illustration styles_illustrationTablet__1DWOa"><defs><linearGradient id="linear-gradient" x1="155.45" y1="256.18" x2="186.44" y2="226.6" gradientUnits="userSpaceOnUse"><stop offset="0" stop-color="#fff" stop-opacity="0"></stop><stop offset="1" stop-color="#f15a24"></stop></linearGradient><linearGradient id="linear-gradient-2" x1="240.81" y1="236.61" x2="266.55" y2="218.39" xlink:href="#linear-gradient"></linearGradient><linearGradient id="linear-gradient-3" x1="70.49" y1="209.44" x2="109.25" y2="172.45" xlink:href="#linear-gradient"></linearGradient></defs><title>PP</title><g style="isolation: isolate;"><g id="Layer_2" data-name="Layer 2"><path d="M195.17,288.6,22.67,186.65c-5.49-3.08-10.2-8.15-4.85-11.46L190.94,75.41c2.6-1.61,6.54-2.66,9.18-1.13L381.2,179.37c5.49,3.19,6.48,12.1,1,15.29L217.91,288.44A22.94,22.94,0,0,1,195.17,288.6Z" fill="#ffb400"></path><path d="M198.77,239.32c-.64-.82-25.93-6.64-26.6-7.44l-35.82,15.93,4.57,2.82c4.54,3.22,20.4,11.73,25,14.84L185.65,254C185.42,252.85,196.49,242.27,198.77,239.32Z" opacity="0.63" fill="url(#linear-gradient)" style="mix-blend-mode: multiply;"></path><path d="M294.94,205.73l-32.68,1.17L226,225.75c5.68,4,22.4,16.47,28.17,20.36l34.19-21.77C287.94,222.51,295.15,207.6,294.94,205.73Z" opacity="0.63" fill="url(#linear-gradient-2)" style="mix-blend-mode: multiply;"></path><path d="M202.3,156.73a12,12,0,0,1,6.41,11.49c-.34,8.47-14.29.2-18-6.94s-4.29,3-4.29,3" fill="#297600"></path><path d="M189.75,153.77a25.26,25.26,0,0,1,7.74,1.08,18.79,18.79,0,0,1,4.82,1.88,15.54,15.54,0,0,1-2.79,1.48c-1.75.71-3.58,1.59-4.51,3.23a6.43,6.43,0,0,0-.54,1.27c-.85,2.79-.12,6.16-1.26,9s-3.49,5.27-6.78,5.47c-3.93.24-5.73-3.53-6.51-6.8s-1.84-7.73-.6-11.08C180.77,155.36,186,154,189.75,153.77Z" fill="#8fdb5e"></path><path d="M184.57,167c1.65-5.35,5.15-10.4,10.27-12.76H195l.24.08.93.24c-6,2.21-9.71,8.09-11.24,14.1-2,7.69-1.3,16-1.32,23.86a.41.41,0,0,1-.82,0C182.84,184.12,182.07,175.12,184.57,167Z" fill="#297600"></path><path d="M157.47,225.86c.67.13,12.66-3.2,12.66-3.2v-2.93l-12.66,1.33" fill="#9e624a"></path><path d="M170.12,224.45v6a1.47,1.47,0,1,0,2.93,0v-6.14Z" fill="#9e624a"></path><path d="M159,191.39v27.87s3.52,9.46,18.83,8.79,18.83-7.78,19.25-9,0-28.34,0-28.34" fill="#68e1fd"></path><ellipse cx="178.03" cy="190.75" rx="19.04" ry="11.11" fill="#68e1fd"></ellipse><ellipse cx="178.03" cy="190.75" rx="19.04" ry="11.11" fill="#fff" opacity="0.43"></ellipse><ellipse cx="178.03" cy="190.27" rx="16.77" ry="9.79" fill="#6d3623"></ellipse><rect x="181.32" y="210.98" width="3.84" height="43.43" rx="1.92" ry="1.92" fill="#9e624a"></rect><rect x="196.89" y="196.25" width="2.93" height="43.43" rx="1.47" ry="1.47" fill="#9e624a"></rect><rect x="156" y="202.68" width="2.93" height="43.43" rx="1.47" ry="1.47" fill="#9e624a"></rect><path d="M152.69,147.66a12,12,0,0,0-6.41,11.49c.34,8.47,14.29.2,18-6.94s4.29,3,4.29,3" fill="#297600"></path><path d="M165.25,144.71a25.26,25.26,0,0,0-7.74,1.08,18.79,18.79,0,0,0-4.82,1.88,15.54,15.54,0,0,0,2.79,1.48c1.75.71,3.58,1.59,4.51,3.23a6.43,6.43,0,0,1,.54,1.27c.85,2.79.12,6.16,1.26,9s3.49,5.27,6.78,5.47c3.93.24,5.73-3.53,6.51-6.8s1.84-7.73.6-11.08C174.23,146.3,169,144.89,165.25,144.71Z" fill="#8fdb5e"></path><path d="M170.42,157.92c-1.65-5.35-5.15-10.4-10.27-12.76H160l-.24.08-.93.24c6,2.21,9.71,8.09,11.24,14.1,2,7.69,1.3,16,1.32,23.86a.41.41,0,0,0,.82,0C172.15,175.06,172.93,166.05,170.42,157.92Z" fill="#297600"></path><path d="M191.61,173.33a7.85,7.85,0,0,1,4.2,7.53c-.22,5.55-9.36.13-11.79-4.55s-2.81,2-2.81,2" fill="#297600"></path><path d="M183.39,171.4a16.54,16.54,0,0,1,5.07.7,12.3,12.3,0,0,1,3.15,1.23,10.18,10.18,0,0,1-1.83,1,5.55,5.55,0,0,0-3,2.12,4.21,4.21,0,0,0-.35.83c-.56,1.82-.08,4-.82,5.87a5.24,5.24,0,0,1-4.44,3.59c-2.57.16-3.75-2.32-4.27-4.46s-1.21-5.06-.39-7.26C177.51,172.44,181,171.51,183.39,171.4Z" fill="#5fad00"></path><path d="M180,180.05c1.08-3.5,3.37-6.81,6.72-8.36h.13l.16.05.61.16c-3.9,1.45-6.36,5.3-7.36,9.23-1.28,5-.85,10.48-.86,15.63a.27.27,0,0,1-.54,0C178.87,191.27,178.36,185.38,180,180.05Z" fill="#297600"></path><path d="M167.9,178.15c1.09-.45,2.6-1.93,3.92-1.89a15.45,15.45,0,0,1,.8,3.92,35.6,35.6,0,0,1,.15,6.55q0,.73-.12,1.45a1.16,1.16,0,0,1-.11.41q0,2.53,0,5.06a.16.16,0,0,1-.32,0q0-2.43,0-4.87a7.17,7.17,0,0,1-1.48-.68,5,5,0,0,1-2.08-2.62c-.83-2.32-.31-4.92-1.1-7.22Z" fill="#297600"></path><path d="M170.14,174.34a4.05,4.05,0,0,1,1.48,1.51,2.53,2.53,0,0,1,.23.45l0,.1h0a6.76,6.76,0,0,1,.25.8,1,1,0,0,0-.55-.43,1.37,1.37,0,0,0-.86-.08,3.61,3.61,0,0,0-.79.42c-.37.22-.72.47-1.09.7-1.71,1.09-4,1.2-5.32-.39,0-.06,0-.13,0-.19C163.29,176.15,166.35,172.14,170.14,174.34Z" fill="#5fad00"></path><path d="M164.29,178.1l-.21-.14a.15.15,0,0,1,0-.12,10.05,10.05,0,0,1,3.56-2.63,6.1,6.1,0,0,1,3.18-.31c.11.13.22.27.32.42a5.53,5.53,0,0,0-3.66.3,10.23,10.23,0,0,0-3.18,2.45Z" fill="#297600"></path><path d="M249.74,109.95c-1.69-5.25-7.24-8.88-11.37-3.65-1.28,1.62,1,3.93,2.29,2.29,3.47-4.39,6.29,1.79,6.51,5,.18,2.6-.45,5.9-3.21,6.92-1.94.72-1.1,3.86.86,3.13C250.3,121.58,251.36,115,249.74,109.95Z" fill="#5d705d"></path><path d="M238.48,104.1S249.63,123.37,248,131s-12.79,11.86-20.58,10.58S220,116.4,220,116.4" fill="#408e46"></path><path d="M260.39,95.5s-8,7.37-10.41,7.37-7.76-5-9.13-3.14c-2.79,3.68,5.77,3.14,4.65,4.9s-5.13,3.14-4.17,6,5.77,7,8.17,5.56,2.88-5.45,5.77-6.89,22.6-13,22.6-13" fill="#ffc388"></path><path d="M208.28,88.44a34.85,34.85,0,0,1,3.78-4.22,31.17,31.17,0,0,0-4.09,4c-1.33,1.48-3.44-.79-2.11-2.26l.67-.72a1.61,1.61,0,0,1-.84-2.67,30.36,30.36,0,0,1,10.73-7.1,25.79,25.79,0,0,1-2.87-3.72,1.37,1.37,0,0,1-.22-.76c-.54-1.27,1.36-2.74,2.66-1.59,1.89,1.67,3.37,3.73,5.24,5.38a9.75,9.75,0,0,0,1.08.82c2.73.35,5.45.74,8.17,1.18,1.92.31,1.12,3.14-.73,3a1.83,1.83,0,0,1-.22,1.05l.37.09a1.38,1.38,0,0,1,1,1l.31,0c2,.2,1.92,3.3-.07,3.1l-.7-.08a1.24,1.24,0,0,1-1.73.74,14.59,14.59,0,0,0-6.74-.73l-.73.05a19.61,19.61,0,0,0-4.7,2.47c-.82,1.09-1.59,2.22-2.35,3.35-1.07,1.6-3.54.14-2.71-1.46-.18.22-.37.44-.54.67C209.73,91.64,207.08,90,208.28,88.44Z" fill="#ffc388"></path><path d="M206.08,85.09A34.26,34.26,0,0,1,210.71,81c.41-.3,1,.28.54.58a34.26,34.26,0,0,0-4.64,4.07C206.27,86,205.73,85.46,206.08,85.09Z" fill="#663a12"></path><path d="M207.81,87.72a42.44,42.44,0,0,1,4.83-4.46c.4-.31.94.26.54.58a42.44,42.44,0,0,0-4.83,4.46C208,88.67,207.47,88.09,207.81,87.72Z" fill="#663a12"></path><path d="M215.27,83.07c1.43-2.25,3.84-3.15,6.4-3.4.51,0,.48.74,0,.79a7.2,7.2,0,0,0-5.7,3A.4.4,0,0,1,215.27,83.07Z" fill="#663a12"></path><path d="M214.17,83.71c-.81-1.65-1.29-3.49-.35-5.19.24-.45.92,0,.67.41-.79,1.44-.3,3,.38,4.41C215.09,83.79,214.4,84.17,214.17,83.71Z" fill="#663a12"></path><path d="M210.48,89.26a16.75,16.75,0,0,1,3.1-4.24c.36-.36.9.22.54.58a16.06,16.06,0,0,0-3,4.07C210.93,90.13,210.25,89.71,210.48,89.26Z" fill="#663a12"></path><path d="M263.91,44s-11.26,21.1-14.86,23.64S222.76,75,222.76,75l1.11,13.46s23.83-1.23,33-6a81.19,81.19,0,0,0,16.9-12.14" fill="#68e1fd"></path><path d="M263.91,44s-11.26,21.1-14.86,23.64S222.76,75,222.76,75l1.11,13.46s23.83-1.23,33-6a81.19,81.19,0,0,0,16.9-12.14" fill="#606060" opacity="0.27"></path><path d="M285.25,195.77s1,10.12-.19,10.84-8,11.27-8.46,12.88c-1.37,5.33,8.41,6.88,11.72,4.86s8.34-12.22,8.56-14.72,1.89-17.87,1.89-17.87" fill="#5c2d1d"></path><path d="M270.16,188s1,10.12-.19,10.84-13.1,9.08-13.61,10.65c-1.63,5,8.25,6.07,11.56,4s13.66-9.19,13.87-11.68S283.68,184,283.68,184" fill="#5c2d1d"></path><path d="M301.61,87.45s7.22,4.05,7,14.34-3.28,99.09-9.91,98.77-10.48.91-14.58-7.42c0,0-10.84,3.35-15-5.14,0,0-.48-84.69,4.87-97.12S301.61,87.45,301.61,87.45Z" fill="#ffc8c5"></path><path d="M284.78,40c.84.14,6.62,3.88,11.28,8s12.84,43.9,8.27,46-21.55,7.39-29.46,1.73-13.59-48.32-11-51.76c6-7.89,12.83-5,12.83-5" fill="#68e1fd"></path><path d="M282.73,112.63c0-1.06,1.67-1.19,1.65-.13L283,193.13c0,1.06-1.67,1.19-1.65.13Z" fill="#663a12"></path><path d="M282.86,35.48v8.44s-1.42,3.14-7,3.14a3.44,3.44,0,0,1-3.41-2.95l-1-7.07" fill="#eaa15e"></path><path d="M266.11,28.34s.09,14.2,5.49,16.06,10.2-4.08,11.44-7.34,1-18.86-8.38-16.59S266.11,28.34,266.11,28.34Z" fill="#ffc388"></path><path d="M264.63,19.15c3.69-1.85,7.79-5.33,15.25-1.68s9.73,16.9,1.9,21l-.64-5.24a4.63,4.63,0,0,0,.54-3.35,2.68,2.68,0,0,0-3.51-2.07,7,7,0,0,1-2.35-2.15c-1.75-2.57-3.14-1-4.86,1.69s-6,4-8.32,2.74S259.95,21.5,264.63,19.15Z" fill="#663a12"></path><path d="M296.07,48s1.63,29.48-1.56,33.66S263.27,107,263.27,107s-7.32-7.37-7.08-10.07,25.16-22.85,25.16-22.85-3.7-22-1.09-26.05S291.24,42.59,296.07,48Z" fill="#68e1fd"></path><path d="M296.07,48s1.63,29.48-1.56,33.66S263.27,107,263.27,107s-7.32-7.37-7.08-10.07,25.16-22.85,25.16-22.85-3.7-22-1.09-26.05S291.24,42.59,296.07,48Z" fill="#606060" opacity="0.27"></path><ellipse cx="229.69" cy="111.8" rx="11.69" ry="6.34" transform="translate(-16.79 178.92) rotate(-41.19)" fill="#55be5f"></ellipse><path d="M228.23,133l-13.49,5.25-1.4-5.25,14.89-10S235.15,130.33,228.23,133Z" fill="#55be5f"></path><ellipse cx="212.07" cy="136.88" rx="4.19" ry="5.06" transform="translate(-38.46 106.14) rotate(-25.84)" fill="#5d705d"></ellipse><path d="M73.85,173.09c.83.17,15.73-4,15.73-4v-3.64l-15.73,1.66" fill="#9e624a"></path><path d="M89.58,171.34v7.42a1.82,1.82,0,1,0,3.64,0v-7.63C92,171.18,90.79,171.25,89.58,171.34Z" fill="#9e624a"></path><path d="M75.74,130.25v34.63s4.37,11.75,23.4,10.92,23.4-9.67,23.92-11.13,0-35.22,0-35.22" fill="#68e1fd"></path><ellipse cx="99.4" cy="129.46" rx="23.66" ry="13.81" fill="#68e1fd"></ellipse><ellipse cx="99.4" cy="129.46" rx="23.66" ry="13.81" fill="#fff" opacity="0.43"></ellipse><ellipse cx="99.4" cy="128.87" rx="20.85" ry="12.17" fill="#6d3623"></ellipse><rect x="103.49" y="154.6" width="4.77" height="53.97" rx="1.92" ry="1.92" fill="#9e624a"></rect><rect x="122.84" y="136.3" width="3.64" height="53.97" rx="1.47" ry="1.47" fill="#9e624a"></rect><rect x="72.03" y="144.29" width="3.64" height="53.97" rx="1.47" ry="1.47" fill="#9e624a"></rect><path d="M64.89,75.48a17.94,17.94,0,0,1,8.73,1.71c2.91,1.44,4.8,4.16,6.16,7s1.94,6.85,4.73,8.67a8.21,8.21,0,0,1,2.77,2.4c1.2,1.84,1.89,4.64.86,6.7-1.24,2.48-6.41,4-8.77,3.55" fill="#8fdb5e"></path><path d="M62.61,75.79a18.48,18.48,0,0,0-2.62.44C54.27,78,49.17,82.79,47.73,88.55a22.26,22.26,0,0,0-.11,10.51c.67,2.79,2.32,7.62,5.73,7.83,4.6.28,6.09-4,7.55-7.56,1.39-3.36,3-7.43,6.66-8.82a9.91,9.91,0,0,1,10.62,2.4Z" fill="#1e8c0e"></path><path d="M83.65,94.48c-2.78-3.6-5.09-7.52-7.77-11.19-1.55-2.12-3.21-4.78-5.4-6.53-6.4-3.1-14.45-.26-19.18,5.19.65.2,1.55.24,2,.42a18.22,18.22,0,0,1,7.33,5.18c2.83,3.13,5,7,7.54,10.3,4.07,5.4,9.46,9.85,16.43,6.62C89.1,102.4,85.61,97,83.65,94.48Z" fill="#8fdb5e"></path><path d="M106.22,48.2s14.41-1.13,14.14,21.67-21.81,7.8-17.08-5.94" fill="#1e8c0e"></path><path d="M104.15,70.64c-.16-6.93,7.64-12,14.22-12.89-1-4-5.09-10.39-13-10.19-9.87.25-17.27,10.29-18.93,22.1S93.66,89,93.66,89L98.42,93C107.19,89.59,103.93,77,104.15,70.64Z" fill="#8fdb5e"></path><path d="M143.41,87a30.11,30.11,0,0,0-3.34-12.39,13.64,13.64,0,0,0-9.38-7.26l-8.12,15.63s12.09-21.15,7.16-4.86,11.35,34.55,13.57,10.26C143.35,87.86,143.38,87.41,143.41,87Z" fill="#1e8c0e"></path><path d="M101.94,99.57C99.73,94.23,95.6,89.76,94.3,84a20.33,20.33,0,0,1,8.09-20.75c1.21-.88,0-2.91-1.18-2C91.1,68.61,89.14,81.16,95,91.84c1.83,3.31,4.22,6.49,5.33,10.14,1.45,4.77-.17,8.2-2.4,11.77,0-3.62-1.24-7.47-3.52-9.59-2.63-2.44-6.51-2.85-9.76-3.95-6.3-2.13-11.84-5.73-12.92-12.75-.23-1.48-2.48-.85-2.26.62.88,5.74,4.65,9.85,9.73,12.46,3,1.54,6.23,2.19,9.39,3.27a10.93,10.93,0,0,1,6.19,6.05c1.49,3.44.48,5.8-.36,9.14-1.09,4.33-2.82,8.06.16,12.16.88,1.21,2.91,0,2-1.18-4.74-6.54,2.83-12.76,5.39-18.38A14.46,14.46,0,0,0,101.94,99.57Z" fill="#1e8c0e"></path><path d="M131.13,85.23c-10-1.76-16.81,6-16.22,15.66a36.71,36.71,0,0,0,1.34,7.17c.45,1.7,1.61,4.55,1.32,6.22-.57,3.24-3,5.4-5.72,6.68-4.34,2.05-7.13,4.51-8.43,9.27a1.17,1.17,0,0,0,2.26.62c2.31-8.47,14.15-7.25,14.23-16.57,0-4.55-2.38-8.83-2.66-13.39-.49-8,4.71-14.91,13.26-13.41C132,87.74,132.61,85.49,131.13,85.23Z" fill="#1e8c0e"></path><path d="M140.07,74.57c-3.87-7.15-10.91-8.82-17.82-6.69a22.73,22.73,0,0,0-2.78,1.35c-17.37,12.86-5,41.91-2.36,41.68C126,110.18,125,105,128,90.41c2.1-10.31,10.63-11.63,13.82-11.64A25.73,25.73,0,0,0,140.07,74.57Z" fill="#8fdb5e"></path><path d="M136.26,69.83a14.48,14.48,0,0,0-14.8,7.1c-6.35,10.62-4.89,23-4,34.7.11,1.49,2.45,1.5,2.34,0-.61-8.47-1.81-16.85.5-25.16,1.13-4.08,2.48-8.61,5.75-11.53a12,12,0,0,1,13.07-1.87c-.3-.4-.59-.8-.89-1.2C137.53,71.19,136.89,70.51,136.26,69.83Z" fill="#1e8c0e"></path><path d="M208.63,142.21a1,1,0,0,0,0,2A1,1,0,0,0,208.63,142.21Z" fill="#fff"></path><path d="M204.09,148.3a1,1,0,0,0,0,2A1,1,0,0,0,204.09,148.3Z" fill="#fff"></path><path d="M201,156a1,1,0,0,0,0,2A1,1,0,0,0,201,156Z" fill="#fff"></path><path d="M190.47,153.88a1,1,0,0,0,0,2A1,1,0,0,0,190.47,153.88Z" fill="#fff"></path><path d="M197.6,153a1,1,0,0,0,0,2A1,1,0,0,0,197.6,153Z" fill="#fff"></path><path d="M197,147.4a1,1,0,0,0,0,2A1,1,0,0,0,197,147.4Z" fill="#fff"></path><path d="M199.94,143.76a1,1,0,0,0,0,2A1,1,0,0,0,199.94,143.76Z" fill="#fff"></path><path d="M205.78,138.31a1,1,0,0,0,0,2A1,1,0,0,0,205.78,138.31Z" fill="#fff"></path><path d="M190.6,148.69a1,1,0,0,0,0,2A1,1,0,0,0,190.6,148.69Z" fill="#fff"></path><path d="M184.24,160.24a1,1,0,0,0,0,2A1,1,0,0,0,184.24,160.24Z" fill="#fff"></path><path d="M189.56,167.12a1,1,0,0,0,0,2A1,1,0,0,0,189.56,167.12Z" fill="#fff"></path><path d="M194,161a1,1,0,0,0,0,2A1,1,0,0,0,194,161Z" fill="#fff"></path><path d="M198.38,167.77a1,1,0,0,0,0,2A1,1,0,0,0,198.38,167.77Z" fill="#fff"></path><path d="M185.54,175a1,1,0,0,0,0,2A1,1,0,0,0,185.54,175Z" fill="#fff"></path><path d="M180,177.5a1,1,0,0,0,0,2A1,1,0,0,0,180,177.5Z" fill="#fff"></path><path d="M182.16,167.25a1,1,0,0,0,0,2A1,1,0,0,0,182.16,167.25Z" fill="#fff"></path><path d="M175.29,169.19a1,1,0,0,0,0,2A1,1,0,0,0,175.29,169.19Z" fill="#fff"></path><path d="M182.29,154.53a1,1,0,0,0,0,2A1,1,0,0,0,182.29,154.53Z" fill="#fff"></path><path d="M177.49,162.06a1,1,0,0,0,0,2A1,1,0,0,0,177.49,162.06Z" fill="#fff"></path><path d="M124.66,188.36c-.8-1-32.43-8.31-33.26-9.3L46.6,199l5.72,3.53c5.68,4,25.5,14.66,31.27,18.55l24.66-14.4C108,205.27,121.8,192,124.66,188.36Z" opacity="0.63" fill="url(#linear-gradient-3)" style="mix-blend-mode: multiply;"></path></g></g></svg>