<svg xmlns="http://www.w3.org/2000/svg" xmlns:xlink="http://www.w3.org/1999/xlink" viewBox="0 0 400 300" width="406" height="306" class="illustration styles_illustrationTablet__1DWOa"><defs><linearGradient id="linear-gradient" x1="335.89" y1="176.09" x2="296.77" y2="213.29" gradientUnits="userSpaceOnUse"><stop offset="0" stop-color="#f15a24"></stop><stop offset="1" stop-color="#fff"></stop></linearGradient><linearGradient id="linear-gradient-2" x1="239.46" y1="157.01" x2="195.1" y2="199.19" gradientUnits="userSpaceOnUse"><stop offset="0" stop-color="#225870"></stop><stop offset="1" stop-color="#fff"></stop></linearGradient><linearGradient id="linear-gradient-3" x1="173.9" y1="193.33" x2="154.68" y2="211.6" xlink:href="#linear-gradient-2"></linearGradient><linearGradient id="linear-gradient-4" x1="148.02" y1="176.59" x2="128.8" y2="194.86" xlink:href="#linear-gradient-2"></linearGradient></defs><title>PP_</title><g style="isolation: isolate;"><g id="Layer_2" data-name="Layer 2"><path d="M192.34,288.42l-165.77-98c-5.28-3-9.8-7.83-4.66-11L188.28,83.55c2.5-1.55,6.29-2.56,8.82-1.09l174,101c5.28,3.06,6.22,11.63.94,14.69L214.19,288.26A22,22,0,0,1,192.34,288.42Z" fill="#fda400"></path><path d="M298,219.12c11.84-7.49,44.27-24.24,44.27-24.24l-16.21-9.82-46,19.28C286.33,208,291.69,215.54,298,219.12Z" opacity="0.68" fill="url(#linear-gradient)" style="mix-blend-mode: multiply;"></path><path d="M99.23,200.06l61.3,33.9a11.38,11.38,0,0,0,11.2-.1l115-66.39a5.61,5.61,0,0,0-.09-9.76l-59.41-32.79a7.6,7.6,0,0,0-7.47.07L99.18,194.59A3.14,3.14,0,0,0,99.23,200.06Z" fill="#e28807"></path><polyline points="129.37 34.08 126.85 32.62 81.37 59.47 81.39 108.62 83.53 109.79" fill="#68e1fd"></polyline><polyline points="129.37 34.08 126.85 32.62 81.37 59.47 81.39 108.62 83.53 109.79" opacity="0.27"></polyline><polygon points="83.53 60.54 83.53 109.79 129.37 82.45 129.37 34.08 83.53 60.54" fill="#68e1fd"></polygon><polygon points="89.13 61.88 125.04 40.9 125.26 81.47 89.13 102.96 89.13 61.88" fill="#fff"></polygon><path d="M100,62.64A85.7,85.7,0,0,0,95.86,73c-1.17,3.61,4.5,5.15,5.66,1.56a73.83,73.83,0,0,1,3.53-8.94C106.66,62.21,101.6,59.22,100,62.64Z" fill="#f68b5f"></path><path d="M109.83,58.49q-4.55,11.81-8.53,23.82c-1.19,3.6,4.48,5.14,5.66,1.56q4-12,8.53-23.82C116.86,56.52,111.18,55,109.83,58.49Z" fill="#f68b5f"></path><path d="M119.16,69.8a3,3,0,0,0-4,1.05,76,76,0,0,0-3.11,7.7c-1.22,3.59,4.45,5.13,5.66,1.56a61.93,61.93,0,0,1,2.52-6.3A3,3,0,0,0,119.16,69.8Z" fill="#f68b5f"></path><path d="M99.23,197.57l61.3,33.9a11.38,11.38,0,0,0,11.2-.1l115-66.39a5.61,5.61,0,0,0-.09-9.76l-59.41-32.79a7.6,7.6,0,0,0-7.47.07L99.18,192.1A3.14,3.14,0,0,0,99.23,197.57Z" fill="#68e1fd"></path><path d="M341.93,178.12c-1.28-1.26-1.18-1.7-1.33-3.36-1.72-.61-4.37-2-6.93-1.86-1.83.13-4.29,1.39-5.7,1.86-.78,2.6-1.29,3.92-3.78,5.23a15.88,15.88,0,0,1-1.77.77,3.3,3.3,0,0,0-2.1,3.6c.74,4.77,3.52,12.89,13.8,12.89,11.2,0,13-9.44,13.17-13.95a2.4,2.4,0,0,0-1.16-2.17A22,22,0,0,1,341.93,178.12Z" fill="#a5dd73"></path><ellipse cx="334.29" cy="174.76" rx="6.31" ry="2.36" fill="#200904"></ellipse><path d="M327.55,167.59c.74,2.84,1.26,5.75,1.71,8.64q.3.17.61.32l.91.29.4.09a97.07,97.07,0,0,0-1.94-9.86c0-.17.08-.34.11-.51.83-.92,2-2.52.77-3.28-.77-.46-1.35,0-1.77.76a33,33,0,0,0-5.54-10.69c.66-1.23.5-3.21.35-4.47s-.56-3-1.81-3.56a.94.94,0,0,0-1.08.14c-.71.67-.62,1.89-.63,2.77,0,.62,0,1.25,0,1.87-.44-.39-.9-.77-1.38-1.13,0,0,0,0,0,0a7.49,7.49,0,0,0-2.78-4.24c-1-.68-2.83-1.45-3.82-.37-2.32,2.53,3.57,5.41,5.21,6a.85.85,0,0,0,.36.06,23.35,23.35,0,0,1,1.85,1.55,8.1,8.1,0,0,0-3.09-.25c-1.2.15-3.11.72-3.35,2.15-.57,3.4,7.3,1.82,8.84,1.4a.84.84,0,0,0,.4-.24,27.14,27.14,0,0,1,2.45,3.94,7.62,7.62,0,0,0-3-.86c-1.12-.07-3.2,0-3.77,1.15-.68,1.38,1,2.2,2,2.54a15.57,15.57,0,0,0,5.62.45.85.85,0,0,0,.58-.26c.41,1,.77,2.07,1.1,3.13-1.81-1.28-5.06-1.81-6.39,0a.89.89,0,0,0,0,.9c.4.81,1.66.94,2.44,1.15a36.47,36.47,0,0,0,3.76.79A.92.92,0,0,0,327.55,167.59Z" fill="#f67770"></path><path d="M329.91,156.81a.87.87,0,0,0,.2,0c.15.61.25,1.22.39,1.83-.09-.06-.17-.13-.27-.19a2,2,0,0,0-2.8.53c-.53,1,.34,2.22,1,3a13.26,13.26,0,0,0,3,2l.06,0a101.93,101.93,0,0,1,1.32,13.13c.29,0,.58,0,.87.05s.61,0,.92,0a103.54,103.54,0,0,0-1.77-15.89.84.84,0,0,0,.7-.25c1.25-1.48,5.74-6.83,2.34-8.37-2.42-1.1-3.43,2-3.88,4.66-.27-1.16-.51-2.33-.82-3.49a.8.8,0,0,0,.25-.17c2.12-2.15,4-4.46,4.27-7.57h0a.88.88,0,0,0-.55-1.19c-1.69-.53-2.9.85-3.77,2.12a9.36,9.36,0,0,0-1.3,2.91c-.33-1.07-.67-2.14-1-3.21a4,4,0,0,0-3.59-7.1c-2.2.73-2.75,3.3-2.26,5.33a3.31,3.31,0,0,0,4.17,2.38c.65,1.89,1.22,3.8,1.76,5.71a6.38,6.38,0,0,0-1.64-1.43c-.92-.56-2.65-1.4-3.48-.31s.37,2.58,1.27,3.31A11,11,0,0,0,329.91,156.81Zm-2-11.42a.85.85,0,0,0-.33.05c-1.09.41-2.26.35-2.6-.95s-.09-3,1.39-3.22C328.8,140.84,329.72,144.06,327.86,145.39Z" fill="#f67770"></path><path d="M360.83,148.23a5.14,5.14,0,0,0-5.33,2.2.72.72,0,0,0-.51.44c-.44.22-.84.47-1.26.71a6.53,6.53,0,0,0,.51-5.07.89.89,0,0,0-.77-.59.81.81,0,0,0-.61.12l-.12.07,0,0a7.31,7.31,0,0,0-1.86,6.51.91.91,0,0,0,.28.54c-7.7,5.53-11.74,14.51-14,23.77a9.27,9.27,0,0,0,2-.64c2.2-8.47,6-16.55,13.05-21.65,1.1,2.18,3.47,2.91,5.75,3.1a.75.75,0,0,0,.65-.24,1,1,0,0,0,.48-1.26,5.82,5.82,0,0,0-2.49-2.14,7.44,7.44,0,0,0-2.22-.9q1-.56,2-1a6.42,6.42,0,0,0,5-2.64A.9.9,0,0,0,360.83,148.23Z" fill="#f67770"></path><path d="M347.25,150.22a.84.84,0,0,0-.35-.23.9.9,0,0,0-1.21.28c-1.31,2-1.08,5.55.15,7.49a.92.92,0,0,0,1.6-.12.9.9,0,0,0,.33-.4C348.72,154.91,349.06,152.19,347.25,150.22Z" fill="#f67770"></path><path d="M342.32,156a.84.84,0,0,0-.35-.23.9.9,0,0,0-1.21.28c-1.31,2-1.08,5.55.15,7.49a.92.92,0,0,0,1.6-.12.9.9,0,0,0,.33-.4C343.78,160.65,344.12,157.93,342.32,156Z" fill="#f67770"></path><path d="M354.41,160.47a.84.84,0,0,0,.3-.3.9.9,0,0,0,0-1.24c-1.68-1.66-5.24-2.12-7.38-1.28a.92.92,0,0,0-.18,1.59.9.9,0,0,0,.33.41C349.52,161,352.13,161.86,354.41,160.47Z" fill="#f67770"></path><path d="M350.58,164.36a.84.84,0,0,0,.19-.38.9.9,0,0,0-.43-1.17c-2.11-1.06-5.64-.38-7.41,1.09a.92.92,0,0,0,.32,1.57.9.9,0,0,0,.44.28C346.11,166.39,348.85,166.39,350.58,164.36Z" fill="#f67770"></path><path d="M346.45,181.39c-2.21,1.66-4.76,2.18-7.65,2.58-1.64.23-5,1.53-4.23,3.34.16.4,1,.72,1.26,1a3.62,3.62,0,0,1,1.1,1.64c.38,1.84-1.33,3.17-2.93,3.55-1.4.34-2.89-.15-4.26-.4-.86-.15-3.29-.93-4-.33a3.07,3.07,0,0,0-.89,1,12.88,12.88,0,0,0,9.3,3.39c11.2,0,13-9.44,13.17-13.95A2.38,2.38,0,0,0,346.45,181.39Z" fill="#98d15d"></path><path d="M196.18,203.43c11.84-7.49,49-26.72,49-26.72l-19.54-12.59-48,26.54C183.95,194.29,189.86,199.85,196.18,203.43Z" opacity="0.68" fill="url(#linear-gradient-2)" style="mix-blend-mode: multiply;"></path><path d="M175.71,201.52l-7.61-4.9-20.78,11.49c2.73,1.57,5.29,4,8,5.53,4.07-2.58,15-8.35,19.39-10.62A7.56,7.56,0,0,0,175.71,201.52Z" opacity="0.68" fill="url(#linear-gradient-3)" style="mix-blend-mode: multiply;"></path><path d="M129.27,196.7c5.13-3.24,21.22-11.57,21.22-11.57L142,179.67l-20.78,11.49C124,192.74,126.53,195.15,129.27,196.7Z" opacity="0.68" fill="url(#linear-gradient-4)" style="mix-blend-mode: multiply;"></path><path d="M177.64,145.1s2.83-4.65,2.65-7.72c0,0,5.15.53,7.59,4.59s-5.85,10.2-5.85,10.2" fill="#e0b8a4"></path><path d="M230.38,137c-3.1-7-7.57-15.69-9.12-23.54-.91-4.62-1.06-16.5-6.73-25.36a37.72,37.72,0,0,0-9.33-2.06,11.86,11.86,0,0,0-9,4.73c.68,2.13,1.38,4.18,2.06,5.83,0,0,5.2,13.35,11.42,25.18A281.57,281.57,0,0,1,222.46,149a60.7,60.7,0,0,1,3.93,14.67s4.09.74,6.76-.72C233.15,162.91,233.48,144,230.38,137Z" fill="#11aa7e"></path><path d="M226.41,161.24a3.13,3.13,0,0,1-.78,2.88,50.69,50.69,0,0,1-6.73,5.7c-2.53,1.69-4.85,1.23-4.37,3s5.8,1.08,7.75.73,7.58-3.51,10-3.77,3.35-1.84.92-9.3" fill="#e0b8a4"></path><path d="M209.37,102.11s5.2,13.35,11.42,25.18a281.56,281.56,0,0,1,12.81,27.15,60.7,60.7,0,0,1,3.93,14.67s4.09.74,6.76-.72c0,0,.34-18.9-2.77-25.87s-7.57-15.69-9.12-23.54-3.08-38.67-33.83-32C198.56,86.93,206.69,95.6,209.37,102.11Z" fill="#15c899"></path><path d="M237.52,169.11a3.13,3.13,0,0,1-.78,2.88,50.69,50.69,0,0,1-6.73,5.7c-2.53,1.69-4.85,1.23-4.37,3s5.8,1.08,7.75.73,7.58-3.51,10-3.77,3.35-1.84.92-9.3" fill="#efd0be"></path><path d="M175.15,128.61s-9.45,19.63-11.37,21.49-12.84,23.23-15,25.14-7.75,2.52-11.33,4.31-7,5.23-6.16,6.32,11-3.06,11.42-1.22-3.22,2.94-2.42,3.8,8.11-1.34,10.26-3.22,2.45-7.1,4.65-9,29.83-36.67,30-43.76S180.94,125.39,175.15,128.61Z" fill="#efd0be"></path><path d="M178,144.37s-7.64,3.48-10,8.34-2.69,11.43.92,15.31,8.48,4.44,10.78,3.1,6.51-11.7,7.12-17S183.47,143.34,178,144.37Z" fill="#42371b"></path><circle cx="162.77" cy="152.87" r="5.13" transform="translate(-15.34 18.19) rotate(-6.11)" fill="#42371b"></circle><path d="M174.55,192.91s-10.76,5-9.45,5.75,3.23-.58,3.23-.58-7.59,2.8-7.53,4.45-1.33,4.53,2.21,4.36a26.9,26.9,0,0,0,11.48-3.73c3.44-2,4.9-5.88,5.76-7.7s8.06-14.79,8.63-18.22,2.73-12.64,3.74-15,10.87-15.05,9.26-20-6.64-7.81-11.77-4.53-6.89,27.89-8.11,31.68S174.55,192.91,174.55,192.91Z" fill="#efd0be"></path><path d="M180.75,141.22s5.86-3.12,5.73,3.53L202,145.83s.4-1.91,1.49-6.62c2.17-9.34,6-28.36,10.92-33.13,3.81-3.7-3.8-14.48-11.11-18.74a5.78,5.78,0,0,0-8.08,2.57c-2,4.13-4.93,10.49-6.94,15.72-2.07,5.39-10.06,16.62-13.18,23S180.75,141.22,180.75,141.22Z" fill="#f68b5f"></path></g></g></svg>