<svg xmlns="http://www.w3.org/2000/svg" viewBox="0 0 497.08 102.05"><defs><style>.cls-1{fill:#231815;}.cls-2{fill:#f08300;}</style></defs><g id="图层_2" data-name="图层 2"><g id="图层_1-2" data-name="图层 1"><path class="cls-1" d="M303.06,97l0-12.66-6.61,11.1a1.1,1.1,0,0,1-1,.54h0a1.09,1.09,0,0,1-1-.54l-6.61-11V97a1.31,1.31,0,0,1-1.31,1.31h0A1.32,1.32,0,0,1,285.28,97V80.59a1.43,1.43,0,0,1,1.43-1.43h0a1.4,1.4,0,0,1,1.23.7l7.59,12.78L303,79.87a1.41,1.41,0,0,1,1.23-.71h0a1.43,1.43,0,0,1,1.43,1.43l0,16.43a1.31,1.31,0,0,1-1.31,1.32h0A1.32,1.32,0,0,1,303.06,97Z"/><path class="cls-1" d="M318.22,79.16h.11a1.32,1.32,0,0,1,1.32,1.31V97a1.32,1.32,0,0,1-1.32,1.31h-.11A1.31,1.31,0,0,1,316.91,97V80.47A1.31,1.31,0,0,1,318.22,79.16Z"/><path class="cls-1" d="M347.37,80.47V97a1.32,1.32,0,0,1-1.32,1.31h-.3a1.29,1.29,0,0,1-1-.49L333.61,84V97a1.31,1.31,0,0,1-1.31,1.31h-.11A1.32,1.32,0,0,1,330.87,97V80.47a1.32,1.32,0,0,1,1.32-1.31h.3a1.3,1.3,0,0,1,1,.49l11.12,13.81v-13a1.31,1.31,0,0,1,1.31-1.31h.11A1.32,1.32,0,0,1,347.37,80.47Z"/><path class="cls-1" d="M358.58,80.32a1.16,1.16,0,0,1,1.17-1.16h6.91c6.17,0,10.36,3.89,10.36,9.59s-4.19,9.59-10.36,9.59h-6.91a1.16,1.16,0,0,1-1.17-1.16ZM366.5,96c4.74,0,7.78-2.91,7.78-7.21s-3-7.21-7.78-7.21h-5.18V96Z"/><path class="cls-1" d="M385.32,95.31v0a1.17,1.17,0,0,1,1.65-.5,10.37,10.37,0,0,0,5.29,1.45c3.31,0,4.74-1.29,4.74-3,0-4.69-11.62-1.72-11.62-8.85,0-3,2.3-5.48,7.34-5.48A12.14,12.14,0,0,1,398,80.08a1.18,1.18,0,0,1,.56,1.5l0,0a1.18,1.18,0,0,1-1.6.59,9.82,9.82,0,0,0-4.16-1c-3.26,0-4.66,1.37-4.66,3,0,4.69,11.62,1.75,11.62,8.8,0,2.93-2.36,5.45-7.42,5.45a12.29,12.29,0,0,1-6.55-1.79A1.15,1.15,0,0,1,385.32,95.31Z"/><path class="cls-1" d="M423.07,97.12v.06a1.16,1.16,0,0,1-1.16,1.16H410.32a1.16,1.16,0,0,1-1.17-1.16V80.32a1.16,1.16,0,0,1,1.17-1.16h11.2a1.16,1.16,0,0,1,1.17,1.16v.06a1.16,1.16,0,0,1-1.17,1.16h-9.63v5.89h8.45a1.17,1.17,0,0,1,1.17,1.17h0a1.16,1.16,0,0,1-1.17,1.16h-8.45V96h10A1.16,1.16,0,0,1,423.07,97.12Z"/><path class="cls-1" d="M449.47,80.33V97.17a1.17,1.17,0,0,1-1.17,1.17h-.52a1.16,1.16,0,0,1-.91-.44L435.71,84V97.17a1.16,1.16,0,0,1-1.16,1.17h-.41A1.17,1.17,0,0,1,433,97.17V80.33a1.17,1.17,0,0,1,1.17-1.17h.52a1.18,1.18,0,0,1,.91.43l11.16,13.87V80.33a1.17,1.17,0,0,1,1.17-1.17h.4A1.17,1.17,0,0,1,449.47,80.33Z"/><path class="cls-1" d="M459.33,95.31v0a1.15,1.15,0,0,1,1.65-.5,10.45,10.45,0,0,0,5.28,1.44c3.32,0,4.75-1.29,4.75-3,0-4.69-11.62-1.72-11.62-8.85,0-3,2.3-5.48,7.34-5.48A12.06,12.06,0,0,1,472,80.08a1.19,1.19,0,0,1,.57,1.5l0,0a1.17,1.17,0,0,1-1.6.6,9.82,9.82,0,0,0-4.16-1c-3.26,0-4.66,1.37-4.66,3,0,4.69,11.62,1.75,11.62,8.8,0,2.93-2.36,5.45-7.43,5.45a12.28,12.28,0,0,1-6.54-1.79A1.15,1.15,0,0,1,459.33,95.31Z"/><path class="cls-1" d="M497.08,97.12v.06a1.16,1.16,0,0,1-1.16,1.16H484.33a1.16,1.16,0,0,1-1.17-1.16V80.32a1.16,1.16,0,0,1,1.17-1.16h11.2a1.16,1.16,0,0,1,1.17,1.16v.06a1.16,1.16,0,0,1-1.17,1.16H485.9v5.89h8.45a1.17,1.17,0,0,1,1.17,1.17h0a1.16,1.16,0,0,1-1.17,1.16H485.9V96h10A1.16,1.16,0,0,1,497.08,97.12Z"/><path class="cls-1" d="M496.34,60.94l-.52-.46c-2.4-2.14-4.7-4.19-6.92-6.22a.65.65,0,0,1,0-.94c5.05-5.41,8.21-11.94,8.21-18.28v-.57a1.78,1.78,0,0,0-1.77-1.78h-8.68A.65.65,0,0,1,486,32V24.59a.66.66,0,0,1,.66-.67h8.68a1.77,1.77,0,0,0,1.77-1.77V21a1.78,1.78,0,0,0-1.77-1.78h-8.68a.65.65,0,0,1-.66-.66V15.29a1.78,1.78,0,0,0-1.78-1.77h-1.14a1.78,1.78,0,0,0-1.78,1.77v3.28a.65.65,0,0,1-.66.66h-8.68A1.78,1.78,0,0,0,470.16,21v1.14a1.77,1.77,0,0,0,1.77,1.77h8.68a.66.66,0,0,1,.66.67V32a.65.65,0,0,1-.66.66h-8.68a1.78,1.78,0,0,0-1.77,1.78v1.14a1.78,1.78,0,0,0,1.77,1.78h19.48a.66.66,0,0,1,.66.78,25.35,25.35,0,0,1-6.63,11.94.68.68,0,0,1-1,0A112.91,112.91,0,0,1,475,39.89a1.77,1.77,0,0,0-2.46-.3l-.91.71a1.77,1.77,0,0,0-.3,2.51,113.5,113.5,0,0,0,9.63,10.39.67.67,0,0,1-.06,1A35.52,35.52,0,0,1,469,60.11a1.76,1.76,0,0,0-1.26,2.07l.21,1a1.8,1.8,0,0,0,2.19,1.51,40,40,0,0,0,14.37-7.32.67.67,0,0,1,.86,0c2.35,2.16,4.8,4.34,7.36,6.61l.52.46a1.77,1.77,0,0,0,2.5-.14l.76-.86A1.77,1.77,0,0,0,496.34,60.94Z"/><path class="cls-1" d="M466.46,42.45a1.78,1.78,0,0,0,1.37-1.73V38.83a1.33,1.33,0,0,0-1.63-1.3l-1.68.39a.66.66,0,0,1-.81-.65V27.08a.67.67,0,0,1,.66-.66h1.93a1.77,1.77,0,0,0,1.77-1.77V23.5a1.77,1.77,0,0,0-1.77-1.77h-1.93a.67.67,0,0,1-.66-.67V15.44a1.78,1.78,0,0,0-1.78-1.77h-1.14A1.77,1.77,0,0,0,459,15.44v5.62a.67.67,0,0,1-.67.67h-3.83a1.77,1.77,0,0,0-1.77,1.77v1.15a1.78,1.78,0,0,0,1.77,1.77h3.83a.67.67,0,0,1,.67.66V38.67a.67.67,0,0,1-.52.65l-4.38,1a1.79,1.79,0,0,0-1.37,1.73V44a1.33,1.33,0,0,0,1.63,1.29l3.82-.88A.67.67,0,0,1,459,45V57.2a2.09,2.09,0,0,1-1.57,2l-3.37.86a1.77,1.77,0,0,0-1.27,2.16l.28,1.11a1.78,1.78,0,0,0,2.16,1.28l3.36-.86a6.78,6.78,0,0,0,5.1-6.57V43.62a.66.66,0,0,1,.51-.65Z"/><path class="cls-1" d="M339.92,57.3l-1.29-.69a1.77,1.77,0,0,1-.76-2.3c2-4.18,2.7-8.39,2.7-15.2V26a1.78,1.78,0,0,1,1.77-1.78h1.46A1.78,1.78,0,0,1,345.57,26V39.11c0,6.49-.55,11.77-3.18,17.36A1.79,1.79,0,0,1,339.92,57.3Z"/><path class="cls-1" d="M368,64.57H356.14a6.94,6.94,0,0,1-6.94-6.93V20.78A1.78,1.78,0,0,1,351,19h1.45a1.78,1.78,0,0,1,1.78,1.78V57.64a1.94,1.94,0,0,0,1.93,1.93H368a1.94,1.94,0,0,0,1.93-1.93V52.52a1.77,1.77,0,0,1,1.77-1.77h1.46a1.77,1.77,0,0,1,1.77,1.77v5.12A6.93,6.93,0,0,1,368,64.57Z"/><path class="cls-1" d="M376.31,24.2h-1.82a1.32,1.32,0,0,0-1.26,1.74,117.86,117.86,0,0,1,5,27.92A1.75,1.75,0,0,0,380,55.54h1.27a1.83,1.83,0,0,0,2-1.84,124.49,124.49,0,0,0-4.8-27.91A2.23,2.23,0,0,0,376.31,24.2Z"/><path class="cls-1" d="M425.88,29.94a1.76,1.76,0,0,0,2.43.34l.93-.67a1.78,1.78,0,0,0,.37-2.52,99.32,99.32,0,0,0-8.26-9.34,1.77,1.77,0,0,0-2.54.07l-.78.84a1.75,1.75,0,0,0,.05,2.45A93.92,93.92,0,0,1,425.88,29.94Z"/><path class="cls-1" d="M421.47,31a1.76,1.76,0,0,0-2.54.06l-.78.84a1.78,1.78,0,0,0,.05,2.46,89.86,89.86,0,0,1,7.8,8.82,1.76,1.76,0,0,0,2.43.34l.93-.67a1.76,1.76,0,0,0,.37-2.51A95.38,95.38,0,0,0,421.47,31Z"/><path class="cls-1" d="M414.41,41.47l-6.57-8.1V33H413a1.77,1.77,0,0,0,1.77-1.77V30A1.78,1.78,0,0,0,413,28.26H408.5a.67.67,0,0,1-.66-.66V19.93a.66.66,0,0,1,.58-.66c1.64-.22,3.21-.46,4.56-.71a1.76,1.76,0,0,0,1.4-2.13l-.25-1.12A1.77,1.77,0,0,0,412.08,14,116.26,116.26,0,0,1,398,15.52a1.77,1.77,0,0,0-1.7,1.77v1.14a1.77,1.77,0,0,0,1.84,1.78c1.29-.05,2.76-.15,4.3-.28a.66.66,0,0,1,.73.66v7a.67.67,0,0,1-.67.66h-4.43A1.78,1.78,0,0,0,396.28,30v1.14A1.77,1.77,0,0,0,398.05,33h4.43a.67.67,0,0,1,.67.67v1.52A97.73,97.73,0,0,1,395,51.6a1.77,1.77,0,0,0,.53,2.42l.69.46a1.78,1.78,0,0,0,2.48-.53q2.13-3.42,4-7.11a.22.22,0,0,1,.42.09V62.8a1.77,1.77,0,0,0,1.77,1.77h1.15a1.77,1.77,0,0,0,1.77-1.77V40.94a.22.22,0,0,1,.39-.14L411,44.23a1.78,1.78,0,0,0,2.5.26l.64-.53A1.77,1.77,0,0,0,414.41,41.47Z"/><path class="cls-1" d="M438.6,46.48l-.86.12a.67.67,0,0,1-.75-.66V15.44a1.77,1.77,0,0,0-1.77-1.77h-1.15a1.77,1.77,0,0,0-1.77,1.77V46.63a.66.66,0,0,1-.59.67c-5.55.58-11.68,1.07-15.71,1.19a1.78,1.78,0,0,0-1.72,1.77v1.15a1.77,1.77,0,0,0,1.82,1.77c4-.12,10-.58,15.47-1.15a.66.66,0,0,1,.73.66V62.8a1.77,1.77,0,0,0,1.77,1.77h1.15A1.77,1.77,0,0,0,437,62.8V52a.66.66,0,0,1,.59-.66l1.5-.2a1.77,1.77,0,0,0,1.53-1.76V48.24A1.78,1.78,0,0,0,438.6,46.48Z"/><path class="cls-1" d="M358.69,15.27a131.66,131.66,0,0,1,4.2,30.15,1.75,1.75,0,0,0,1.76,1.74h1.46a1.77,1.77,0,0,0,1.78-1.79,138.28,138.28,0,0,0-4.13-30.46A1.77,1.77,0,0,0,362,13.59H360A1.33,1.33,0,0,0,358.69,15.27Z"/><path class="cls-1" d="M319.89,29H287.17a1.78,1.78,0,0,1-1.78-1.78V19.08a5.51,5.51,0,0,1,5.5-5.5h25.27a5.5,5.5,0,0,1,5.5,5.5v8.15A1.78,1.78,0,0,1,319.89,29ZM290,25.1h27.12a.67.67,0,0,0,.66-.66V19.08a1.59,1.59,0,0,0-1.59-1.59H290.89a1.59,1.59,0,0,0-1.59,1.59v5.36A.67.67,0,0,0,290,25.1Z"/><rect class="cls-1" x="281.36" y="30.99" width="44.29" height="3.9" rx="1.77"/><path class="cls-1" d="M305.87,59.5v-.1a1,1,0,0,1,1-1h14.36a2,2,0,0,0,1.95-1.95h0a1.94,1.94,0,0,0-1.95-1.94H306.83a1,1,0,0,1-1-1v-.1a1,1,0,0,1,1-1h9.33a5.62,5.62,0,0,0,5.62-5.61V38.65A1.78,1.78,0,0,0,320,36.87H287.05a1.78,1.78,0,0,0-1.77,1.78v8.27a5.61,5.61,0,0,0,5.61,5.61h9.33a1,1,0,0,1,1,1v.1a1,1,0,0,1-1,1H285.86a1.94,1.94,0,0,0-1.95,1.94h0a2,2,0,0,0,1.95,1.95h14.36a1,1,0,0,1,1,1v.1a1,1,0,0,1-1,1H283.31a2,2,0,0,0-1.95,1.95h0a2.12,2.12,0,0,0,2.11,2.11H323.7a2,2,0,0,0,1.95-1.95v-.16a2,2,0,0,0-1.95-1.95H306.83A1,1,0,0,1,305.87,59.5Zm11.76-12.58a1.47,1.47,0,0,1-1.47,1.47h-9.33a1,1,0,0,1-1-1h0a1,1,0,0,1,1-1h6.59a1.77,1.77,0,0,0,1.77-1.77h0a1.77,1.77,0,0,0-1.77-1.77h-6.59a1,1,0,0,1-1-1h0a1,1,0,0,1,1-.95H317a.65.65,0,0,1,.66.66Zm-26.74,1.47a1.47,1.47,0,0,1-1.47-1.47V41.68a.66.66,0,0,1,.66-.66h10.14a1,1,0,0,1,1,.95h0a1,1,0,0,1-1,1h-6.59a1.77,1.77,0,0,0-1.77,1.77h0a1.77,1.77,0,0,0,1.77,1.77h6.59a1,1,0,0,1,1,1h0a1,1,0,0,1-1,1Z"/><rect class="cls-1" x="291.86" y="19.52" width="23.34" height="3.54" rx="1.77"/><path class="cls-2" d="M204.09,0H51A51,51,0,0,0,0,51H0a51,51,0,0,0,51,51H204.09a51,51,0,0,0,51-51h0A51,51,0,0,0,204.09,0ZM66.84,64.37A18.37,18.37,0,1,1,85.21,46,18.37,18.37,0,0,1,66.84,64.37Zm60.72,10A18.36,18.36,0,0,1,109.19,56h36.74A18.37,18.37,0,0,1,127.56,74.41Zm60.72-10A18.37,18.37,0,1,1,206.65,46,18.36,18.36,0,0,1,188.28,64.37Z"/></g></g></svg>